<svg width="550" height="141" viewBox="0 0 550 141" fill="none" xmlns="http://www.w3.org/2000/svg">
<path d="M6.9143 46.6475C1.14242 73.3353 1.49364 86.884 6.9143 115.819C12.335 144.755 54.1851 146.785 50.2886 115.819C46.3916 84.8534 110.181 76.5811 112.592 46.6475C115.004 16.7139 81.6092 3.15541 62.2126 2.71979C42.8165 2.28413 12.6861 19.9599 6.9143 46.6475Z" fill="url(#paint0_linear_91_12)" stroke="url(#paint1_linear_91_12)" stroke-width="3"/>
<path d="M175.022 96.2599V39.3176H198.244C201.341 39.3176 204.138 40.1039 206.637 41.6766C209.19 43.1951 211.227 45.283 212.748 47.9403C214.269 50.5976 215.03 53.5531 215.03 56.807C215.03 60.0608 214.269 63.0164 212.748 65.6737C211.227 68.331 209.19 70.4731 206.637 72.1001C204.138 73.6728 201.341 74.4591 198.244 74.4591H183.822V96.2599H175.022ZM183.822 65.9991H198.081C199.548 65.9991 200.879 65.5924 202.074 64.7789C203.269 63.9112 204.22 62.7995 204.926 61.4437C205.686 60.0337 206.067 58.4881 206.067 56.807C206.067 55.1258 205.686 53.6074 204.926 52.2516C204.22 50.8958 203.269 49.8112 202.074 48.9978C200.879 48.1843 199.548 47.7776 198.081 47.7776H183.822V65.9991ZM240.209 97.0733C236.678 97.0733 233.446 96.0972 230.512 94.1449C227.633 92.1926 225.325 89.5353 223.587 86.173C221.848 82.8106 220.979 79.0145 220.979 74.7845C220.979 70.5003 221.848 66.7041 223.587 63.396C225.379 60.0337 227.769 57.4035 230.757 55.5055C233.799 53.6074 237.194 52.6583 240.942 52.6583C243.169 52.6583 245.206 52.9837 247.053 53.6345C248.9 54.2853 250.503 55.2072 251.861 56.4003C253.273 57.5391 254.414 58.8678 255.283 60.3862C256.206 61.9047 256.777 63.5316 256.994 65.267L255.12 64.6162V53.5531H263.594V96.2599H255.12V86.0916L257.075 85.5222C256.749 86.9864 256.07 88.4235 255.038 89.8335C254.061 91.1893 252.784 92.4095 251.209 93.4941C249.688 94.5787 247.977 95.4464 246.075 96.0972C244.229 96.748 242.273 97.0733 240.209 97.0733ZM242.409 89.3455C244.962 89.3455 247.216 88.7218 249.172 87.4745C251.127 86.2272 252.648 84.5189 253.735 82.3497C254.875 80.1262 255.446 77.6045 255.446 74.7845C255.446 72.0187 254.875 69.5512 253.735 67.382C252.648 65.2128 251.127 63.5045 249.172 62.2572C247.216 61.0099 244.962 60.3862 242.409 60.3862C239.91 60.3862 237.683 61.0099 235.727 62.2572C233.826 63.5045 232.305 65.2128 231.164 67.382C230.078 69.5512 229.535 72.0187 229.535 74.7845C229.535 77.6045 230.078 80.1262 231.164 82.3497C232.305 84.5189 233.826 86.2272 235.727 87.4745C237.683 88.7218 239.91 89.3455 242.409 89.3455ZM276.698 96.2599V53.5531H285.09V96.2599H276.698ZM280.772 44.117C278.979 44.117 277.594 43.656 276.616 42.7341C275.638 41.8122 275.149 40.5106 275.149 38.8295C275.149 37.2568 275.638 35.9824 276.616 35.0062C277.648 34.0301 279.033 33.542 280.772 33.542C282.564 33.542 283.949 34.003 284.927 34.9249C285.905 35.8468 286.394 37.1483 286.394 38.8295C286.394 40.4022 285.878 41.6766 284.846 42.6528C283.868 43.6289 282.51 44.117 280.772 44.117ZM297.99 114.156V53.5531H306.464V63.3147L305.16 62.5826C305.486 60.9556 306.41 59.4101 307.931 57.9458C309.452 56.4274 311.299 55.2072 313.471 54.2853C315.699 53.3091 317.98 52.821 320.316 52.821C324.173 52.821 327.595 53.7701 330.583 55.6681C333.57 57.5662 335.933 60.1693 337.671 63.4774C339.41 66.7855 340.279 70.5816 340.279 74.8658C340.279 79.0958 339.41 82.892 337.671 86.2543C335.988 89.5624 333.652 92.1926 330.664 94.1449C327.676 96.043 324.309 96.992 320.56 96.992C318.062 96.992 315.644 96.5039 313.309 95.5278C310.973 94.4974 308.99 93.1958 307.36 91.6232C305.731 90.0505 304.726 88.4235 304.346 86.7424L306.464 85.6035V114.156H297.99ZM319.175 89.2641C321.674 89.2641 323.901 88.6405 325.857 87.3931C327.812 86.1458 329.36 84.4376 330.501 82.2683C331.642 80.0991 332.212 77.6316 332.212 74.8658C332.212 72.1001 331.642 69.6597 330.501 67.5447C329.415 65.3755 327.894 63.6672 325.938 62.4199C323.983 61.1726 321.728 60.5489 319.175 60.5489C316.622 60.5489 314.368 61.1726 312.412 62.4199C310.457 63.613 308.909 65.2941 307.768 67.4633C306.627 69.6326 306.057 72.1001 306.057 74.8658C306.057 77.6316 306.627 80.0991 307.768 82.2683C308.909 84.4376 310.457 86.1458 312.412 87.3931C314.368 88.6405 316.622 89.2641 319.175 89.2641ZM376.875 96.2599V48.7537C376.875 46.3133 377.418 44.1441 378.505 42.246C379.591 40.348 381.085 38.8566 382.986 37.772C384.887 36.6874 387.087 36.1451 389.586 36.1451C391.324 36.1451 392.954 36.4705 394.475 37.1212C395.996 37.772 397.218 38.6397 398.142 39.7243L395.29 46.1506C394.584 45.4999 393.796 44.9847 392.927 44.6051C392.112 44.1712 391.324 43.9543 390.564 43.9543C389.423 43.9543 388.445 44.1441 387.631 44.5237C386.87 44.8491 386.3 45.3914 385.919 46.1506C385.539 46.8556 385.349 47.7233 385.349 48.7537V96.2599H381.112C380.406 96.2599 379.7 96.2599 378.993 96.2599C378.287 96.2599 377.581 96.2599 376.875 96.2599ZM370.03 62.0131V54.2853H395.453V62.0131H370.03ZM421.857 97.0733C417.674 97.0733 413.926 96.1243 410.612 94.2262C407.353 92.2739 404.773 89.6437 402.872 86.3357C400.97 82.9733 400.02 79.1501 400.02 74.8658C400.02 70.5816 400.97 66.7855 402.872 63.4774C404.773 60.1151 407.353 57.4849 410.612 55.5868C413.926 53.6345 417.674 52.6583 421.857 52.6583C425.985 52.6583 429.679 53.6345 432.938 55.5868C436.252 57.4849 438.859 60.1151 440.76 63.4774C442.662 66.7855 443.612 70.5816 443.612 74.8658C443.612 79.1501 442.662 82.9733 440.76 86.3357C438.859 89.6437 436.252 92.2739 432.938 94.2262C429.679 96.1243 425.985 97.0733 421.857 97.0733ZM421.857 89.4268C424.41 89.4268 426.691 88.8032 428.701 87.5558C430.711 86.2543 432.286 84.5189 433.427 82.3497C434.568 80.1262 435.111 77.6316 435.057 74.8658C435.111 72.0458 434.568 69.5512 433.427 67.382C432.286 65.1585 430.711 63.4231 428.701 62.1758C426.691 60.9285 424.41 60.3049 421.857 60.3049C419.304 60.3049 416.995 60.9556 414.931 62.2572C412.921 63.5045 411.346 65.2399 410.205 67.4633C409.064 69.6326 408.521 72.1001 408.575 74.8658C408.521 77.6316 409.064 80.1262 410.205 82.3497C411.346 84.5189 412.921 86.2543 414.931 87.5558C416.995 88.8032 419.304 89.4268 421.857 89.4268ZM471.987 97.0733C467.804 97.0733 464.056 96.1243 460.742 94.2262C457.483 92.2739 454.903 89.6437 453.002 86.3357C451.1 82.9733 450.15 79.1501 450.15 74.8658C450.15 70.5816 451.1 66.7855 453.002 63.4774C454.903 60.1151 457.483 57.4849 460.742 55.5868C464.056 53.6345 467.804 52.6583 471.987 52.6583C476.115 52.6583 479.809 53.6345 483.068 55.5868C486.382 57.4849 488.989 60.1151 490.891 63.4774C492.792 66.7855 493.742 70.5816 493.742 74.8658C493.742 79.1501 492.792 82.9733 490.891 86.3357C488.989 89.6437 486.382 92.2739 483.068 94.2262C479.809 96.1243 476.115 97.0733 471.987 97.0733ZM471.987 89.4268C474.54 89.4268 476.821 88.8032 478.831 87.5558C480.841 86.2543 482.417 84.5189 483.557 82.3497C484.698 80.1262 485.241 77.6316 485.187 74.8658C485.241 72.0458 484.698 69.5512 483.557 67.382C482.417 65.1585 480.841 63.4231 478.831 62.1758C476.821 60.9285 474.54 60.3049 471.987 60.3049C469.434 60.3049 467.125 60.9556 465.061 62.2572C463.051 63.5045 461.476 65.2399 460.335 67.4633C459.194 69.6326 458.651 72.1001 458.705 74.8658C458.651 77.6316 459.194 80.1262 460.335 82.3497C461.476 84.5189 463.051 86.2543 465.061 87.5558C467.125 88.8032 469.434 89.4268 471.987 89.4268ZM520.732 97.0733C516.821 97.0733 513.317 96.1243 510.221 94.2262C507.179 92.2739 504.761 89.6437 502.969 86.3357C501.176 82.9733 500.28 79.1501 500.28 74.8658C500.28 70.5816 501.149 66.7855 502.887 63.4774C504.68 60.1151 507.097 57.4849 510.139 55.5868C513.181 53.6345 516.631 52.6583 520.487 52.6583C522.606 52.6583 524.643 53.0108 526.599 53.7158C528.608 54.3666 530.401 55.2885 531.976 56.4816C533.552 57.6205 534.774 58.8949 535.643 60.3049C536.566 61.6606 537.028 63.0435 537.028 64.4535L534.584 64.6162V36.0637H542.976V96.2599H534.584V86.0916H536.213C536.213 87.3932 535.779 88.6947 534.91 89.9962C534.04 91.2435 532.873 92.4095 531.406 93.4941C529.994 94.5787 528.337 95.4464 526.436 96.0972C524.589 96.748 522.687 97.0733 520.732 97.0733ZM521.873 89.8335C524.426 89.8335 526.68 89.1828 528.636 87.8812C530.591 86.5797 532.112 84.8172 533.199 82.5937C534.339 80.316 534.91 77.7401 534.91 74.8658C534.91 71.9916 534.339 69.4428 533.199 67.2193C532.112 64.9416 530.591 63.152 528.636 61.8505C526.68 60.5489 524.426 59.8981 521.873 59.8981C519.319 59.8981 517.065 60.5489 515.11 61.8505C513.154 63.152 511.606 64.9416 510.465 67.2193C509.379 69.4428 508.836 71.9916 508.836 74.8658C508.836 77.7401 509.379 80.316 510.465 82.5937C511.606 84.8172 513.154 86.5797 515.11 87.8812C517.065 89.1828 519.319 89.8335 521.873 89.8335Z" fill="white"/>
<defs>
<linearGradient id="paint0_linear_91_12" x1="57.7161" y1="2.71191" x2="57.7161" y2="138.289" gradientUnits="userSpaceOnUse">
<stop stop-color="#00D856"/>
<stop offset="1" stop-color="#027957"/>
</linearGradient>
<linearGradient id="paint1_linear_91_12" x1="57.7161" y1="2.71191" x2="57.7161" y2="138.289" gradientUnits="userSpaceOnUse">
<stop stop-color="#00D856"/>
<stop offset="1" stop-color="#027957"/>
</linearGradient>
</defs>
</svg>
