<svg width="240" height="61" viewBox="0 0 240 61" fill="none" xmlns="http://www.w3.org/2000/svg">
<g clip-path="url(#clip0_3951_6992)">
<path d="M43.68 1.12988C20.01 1.12988 0.809998 13.4099 0.809998 28.5499C0.809998 43.6899 20.01 57.1599 43.68 57.1599C67.35 57.1599 86.55 43.6999 86.55 28.5499C86.55 13.3999 67.37 1.12988 43.68 1.12988Z" fill="#00B1EA"/>
<path d="M29.75 20.0698C29.75 20.0698 29.31 20.5398 29.58 20.8898C30.24 21.7398 32.29 22.2198 34.36 21.7598C35.59 21.4798 37.18 20.2298 38.7 19.0098C40.175 17.68 41.8658 16.6113 43.7 15.8498C44.8636 15.4231 46.1346 15.388 47.32 15.7498C48.5216 16.2011 49.6376 16.8538 50.62 17.6798C53.49 19.8398 65.05 29.9198 67.05 31.6798C73.1899 29.1122 79.549 27.1041 86.05 25.6798C85.2 20.5098 82.05 15.5698 77.31 11.6798C70.65 14.4798 61.97 16.1498 54.01 12.2698C51.3074 11.0474 48.3855 10.3841 45.42 10.3198C39.11 10.4698 36.37 13.1998 33.48 16.0898L29.75 20.0698Z" fill="white"/>
<path d="M66.52 32.7798C66.38 32.6598 52.94 20.8898 49.88 18.5998C48.8186 17.6576 47.511 17.0367 46.11 16.8098C45.5047 16.7647 44.8961 16.8222 44.31 16.9798C42.51 17.6587 40.8444 18.6506 39.39 19.9098C37.69 21.2698 36.08 22.5498 34.59 22.9098C32.7888 23.2826 30.9137 23.0026 29.3 22.1198C28.9171 21.8775 28.6117 21.5305 28.42 21.1198C28.3105 20.8151 28.2949 20.4845 28.3751 20.1708C28.4553 19.8571 28.6277 19.5746 28.87 19.3598L32.59 15.3598L33.9 14.0698C32.757 14.2442 31.6276 14.4981 30.52 14.8298C29.2267 15.2578 27.8808 15.5068 26.52 15.5698C25.1764 15.4313 23.8411 15.221 22.52 14.9398C18.5521 14.0098 14.6789 12.7143 10.95 11.0698C5.67001 14.9998 2.22999 19.8198 1.20999 25.2298C1.96999 25.4298 3.95 25.8798 4.47 25.9998C16.41 28.6598 20.13 31.3898 20.81 31.9998C21.2063 31.5538 21.6985 31.2033 22.2496 30.9747C22.8008 30.7461 23.3966 30.6454 23.9922 30.68C24.5879 30.7147 25.168 30.8838 25.6889 31.1747C26.2098 31.4657 26.6581 31.8708 27 32.3598C27.8084 31.7117 28.8139 31.3589 29.85 31.3598C30.4291 31.3679 31.0031 31.4691 31.55 31.6598C32.0826 31.8275 32.5728 32.1082 32.987 32.4827C33.4012 32.8572 33.7297 33.3167 33.95 33.8298C34.472 33.5958 35.038 33.4765 35.61 33.4798C36.2999 33.4869 36.9808 33.6368 37.61 33.9198C38.4802 34.3247 39.1869 35.0134 39.6139 35.873C40.041 36.7325 40.163 37.7118 39.96 38.6498C40.1165 38.6393 40.2735 38.6393 40.43 38.6498C41.2528 38.6463 42.0622 38.8574 42.7784 39.2624C43.4947 39.6674 44.0928 40.2522 44.5139 40.959C44.935 41.6659 45.1644 42.4704 45.1795 43.293C45.1946 44.1156 44.9949 44.928 44.6 45.6498C45.8353 46.405 47.2626 46.787 48.71 46.7498C49.072 46.7491 49.43 46.6741 49.762 46.5297C50.0939 46.3852 50.3928 46.1742 50.64 45.9098C50.76 45.7398 50.89 45.5498 50.77 45.4098L47.4 41.6698C47.4 41.6698 46.84 41.1498 47.03 40.9398C47.22 40.7298 47.57 41.0298 47.8 41.2298C49.51 42.6698 51.6 44.8198 51.6 44.8198C51.6 44.8198 51.77 45.1198 52.6 45.2598C53.0639 45.3409 53.5393 45.3277 53.998 45.2212C54.4567 45.1147 54.8893 44.917 55.27 44.6398C55.4824 44.4559 55.6797 44.2553 55.86 44.0398C56.0976 43.7133 56.2172 43.3157 56.199 42.9123C56.1808 42.5089 56.026 42.1236 55.76 41.8198L51.75 37.3598C51.75 37.3598 51.18 36.8398 51.38 36.6298C51.58 36.4198 51.92 36.7298 52.16 36.9298C53.4 37.9298 55.16 39.7398 56.85 41.3898C57.4111 41.7703 58.0786 41.9628 58.7562 41.9394C59.4338 41.916 60.0864 41.6781 60.62 41.2598C61.057 41.0191 61.4185 40.6615 61.664 40.227C61.9095 39.7926 62.0293 39.2985 62.01 38.7998C61.9208 38.1748 61.6251 37.5975 61.17 37.1598L55.79 31.7598C55.79 31.7598 55.22 31.2798 55.43 31.0298C55.64 30.7798 55.97 31.1198 56.2 31.3198C57.91 32.7598 62.54 36.9998 62.54 36.9998C63.0849 37.3515 63.7223 37.5328 64.3707 37.5203C65.0191 37.5078 65.649 37.3022 66.18 36.9298C66.521 36.729 66.8084 36.4485 67.0173 36.1124C67.2263 35.7763 67.3508 35.3945 67.38 34.9998C67.4159 34.5887 67.357 34.1748 67.2079 33.7899C67.0588 33.4051 66.8235 33.0595 66.52 32.7798Z" fill="white"/>
<path d="M40.46 39.6199C39.8288 39.7044 39.2063 39.845 38.6 40.0399C38.54 40.0399 38.65 39.6699 38.73 39.4699C38.81 39.2699 39.91 35.9799 37.23 34.8299C36.6311 34.5083 35.9442 34.389 35.2719 34.4899C34.5996 34.5909 33.9781 34.9066 33.5 35.3899C33.39 35.5099 33.34 35.4999 33.33 35.3899C33.3062 34.775 33.0938 34.1823 32.7217 33.6922C32.3497 33.202 31.8359 32.8382 31.25 32.6499C30.4163 32.3857 29.5189 32.4021 28.6953 32.6965C27.8717 32.9909 27.1674 33.547 26.69 34.2799C26.6025 33.6319 26.2993 33.0323 25.8294 32.5777C25.3594 32.1231 24.75 31.84 24.0995 31.7741C23.449 31.7082 22.7952 31.8633 22.2436 32.2144C21.692 32.5655 21.2747 33.0922 21.059 33.7095C20.8434 34.3267 20.8419 34.9986 21.0548 35.6169C21.2677 36.2351 21.6826 36.7636 22.2326 37.1171C22.7827 37.4707 23.4357 37.6288 24.0866 37.5658C24.7374 37.5028 25.348 37.2224 25.82 36.7699C25.82 36.7699 25.82 36.7699 25.82 36.8699C25.6216 37.7747 25.756 38.7207 26.1987 39.5344C26.6414 40.3481 27.3626 40.975 28.23 41.2999C28.6991 41.4798 29.2071 41.5338 29.7036 41.4566C30.2 41.3794 30.6677 41.1737 31.06 40.8599C31.3 40.6999 31.33 40.7599 31.3 40.9899C31.2 41.6599 31.3 43.1199 33.36 43.9399C33.8636 44.1861 34.4331 44.2636 34.9843 44.161C35.5354 44.0583 36.0388 43.781 36.42 43.3699C36.68 43.1299 36.75 43.1699 36.76 43.5399C36.7952 44.2606 37.0409 44.9551 37.4667 45.5376C37.8926 46.1201 38.4798 46.5649 39.1559 46.8171C39.8319 47.0693 40.567 47.1178 41.2703 46.9566C41.9736 46.7953 42.6142 46.4314 43.1128 45.9099C43.6114 45.3883 43.9461 44.7321 44.0757 44.0223C44.2052 43.3125 44.1238 42.5802 43.8415 41.9162C43.5592 41.2522 43.0884 40.6855 42.4874 40.2862C41.8864 39.887 41.1815 39.6727 40.46 39.6699V39.6199Z" fill="white"/>
<path d="M43.68 0C19.56 0 0 12.83 0 28.57V30.23C0 46.93 17.1 60.45 43.68 60.45C70.43 60.45 87.36 46.93 87.36 30.23V28.56C87.36 12.83 67.8 0 43.68 0ZM85.39 25.4C79.0942 26.8035 72.9488 28.8129 67.04 31.4C62.89 27.78 53.32 19.46 50.73 17.51C49.7237 16.653 48.5768 15.9764 47.34 15.51C46.8026 15.3414 46.2432 15.2537 45.68 15.25C44.9629 15.2579 44.2513 15.3759 43.57 15.6C41.7343 16.3496 40.0425 17.412 38.57 18.74L38.48 18.8C36.98 20 35.42 21.23 34.24 21.5C33.728 21.615 33.2047 21.672 32.68 21.67C32.1464 21.7091 31.6104 21.6407 31.1037 21.469C30.597 21.2972 30.1299 21.0255 29.73 20.67C29.66 20.57 29.73 20.42 29.88 20.21L33.52 16.28C36.38 13.42 39.07 10.73 45.28 10.58H45.59C48.408 10.6984 51.1775 11.3535 53.75 12.51C57.2202 14.2679 61.0501 15.1988 64.94 15.23C69.1635 15.1586 73.3204 14.1655 77.12 12.32C81.56 16.03 84.49 20.52 85.39 25.4ZM43.68 1.68002C56.48 1.68002 67.94 5.35 75.68 11.13C72.3165 12.6604 68.6747 13.4841 64.98 13.55C61.3637 13.5203 57.8025 12.6616 54.57 11.04C51.7766 9.76382 48.7592 9.05024 45.69 8.94H45.34C41.643 8.88117 38.0492 10.1596 35.22 12.54C33.501 12.6295 31.8005 12.9387 30.16 13.46C29.0089 13.8456 27.8119 14.0776 26.6 14.15C26.14 14.15 25.33 14.15 25.25 14.15C20.894 13.3824 16.6212 12.2003 12.49 10.62C20.15 5.13003 31.29 1.69 43.68 1.69V1.68002ZM10.95 11.68C16.27 13.85 22.74 15.55 24.79 15.68C25.36 15.68 25.97 15.79 26.58 15.79C27.9415 15.7257 29.2876 15.4733 30.58 15.04C31.35 14.83 32.21 14.59 33.11 14.42C32.87 14.66 32.63 14.89 32.39 15.14L28.68 19.14C28.4087 19.3869 28.2165 19.7085 28.1276 20.0644C28.0386 20.4203 28.0568 20.7945 28.18 21.14C28.4033 21.5882 28.7503 21.963 29.18 22.22C30.378 22.8962 31.7344 23.2414 33.11 23.22C33.6342 23.2234 34.1574 23.1697 34.67 23.06C36.22 22.72 37.85 21.41 39.58 20.06C41.008 18.8284 42.6388 17.854 44.4 17.18C44.8404 17.0624 45.2941 17.0019 45.75 17C45.8631 16.9888 45.9769 16.9888 46.09 17C47.4454 17.2273 48.7099 17.8302 49.74 18.74C52.74 21.02 66.24 32.79 66.36 32.91C66.629 33.1664 66.8397 33.4778 66.9778 33.8229C67.1158 34.168 67.178 34.5388 67.16 34.91C67.1343 35.2606 67.0233 35.5996 66.8369 35.8976C66.6504 36.1956 66.394 36.4436 66.09 36.62C65.5651 36.9697 64.9506 37.1607 64.32 37.17C63.7678 37.1716 63.2266 37.0155 62.76 36.72C62.71 36.72 58.1 32.46 56.41 31.03C56.1998 30.8054 55.9227 30.6546 55.62 30.6C55.5538 30.6011 55.4885 30.6159 55.4283 30.6434C55.368 30.6709 55.3141 30.7106 55.27 30.76C55 31.09 55.27 31.54 55.66 31.84L61.05 37.25C61.4529 37.6416 61.7163 38.1545 61.8 38.71C61.8163 39.163 61.7062 39.6116 61.4818 40.0055C61.2575 40.3993 60.9279 40.7229 60.53 40.94C59.9698 41.3345 59.305 41.5538 58.62 41.57C58.0741 41.5722 57.5405 41.4083 57.09 41.1L56.32 40.34C54.91 38.95 53.45 37.51 52.38 36.62C52.1657 36.3972 51.885 36.2499 51.58 36.2C51.5158 36.1987 51.4521 36.2115 51.3934 36.2374C51.3347 36.2633 51.2823 36.3017 51.24 36.35C51.12 36.49 51.04 36.72 51.34 37.13C51.4215 37.2373 51.5118 37.3377 51.61 37.43L55.54 41.84C55.7698 42.0968 55.9042 42.4248 55.9206 42.769C55.937 43.1132 55.8344 43.4526 55.63 43.73L55.49 43.9C55.37 44.03 55.24 44.15 55.13 44.25C54.573 44.656 53.8992 44.8701 53.21 44.86C53.0304 44.8775 52.8496 44.8775 52.67 44.86C52.3857 44.8386 52.1157 44.7265 51.9 44.54L51.85 44.49C51.64 44.27 49.65 42.25 48.02 40.88C47.8188 40.6632 47.5516 40.5191 47.26 40.47C47.1936 40.4698 47.1279 40.484 47.0675 40.5117C47.0071 40.5393 46.9533 40.5796 46.91 40.63C46.59 40.98 47.07 41.52 47.28 41.71L50.63 45.41C50.6022 45.4914 50.5579 45.5663 50.5 45.63C50.38 45.79 49.98 46.2 48.75 46.36C48.6002 46.3707 48.4498 46.3707 48.3 46.36C47.1451 46.2788 46.0237 45.9369 45.02 45.36C45.3761 44.5994 45.5349 43.7614 45.4817 42.9232C45.4285 42.0851 45.165 41.2739 44.7156 40.5644C44.2662 39.855 43.6454 39.2701 42.9103 38.8639C42.1753 38.4576 41.3498 38.2431 40.51 38.24H40.33C40.452 37.2964 40.267 36.3386 39.8024 35.5084C39.3377 34.6781 38.6181 34.0195 37.75 33.63C37.0915 33.3372 36.3806 33.1808 35.66 33.17C35.1372 33.1698 34.6188 33.2647 34.13 33.45C33.6229 32.462 32.7458 31.7144 31.69 31.37C31.112 31.165 30.5033 31.0602 29.89 31.06C28.8844 31.0527 27.903 31.3682 27.09 31.96C26.6948 31.4665 26.1943 31.0675 25.6251 30.7924C25.0558 30.5173 24.4322 30.373 23.8 30.37C22.6778 30.3729 21.6012 30.8143 20.8 31.6C19.8 30.81 15.62 28.17 4.54001 25.65C4.02001 25.53 2.81999 25.19 2.04999 24.96C3.10999 19.99 6.27001 15.45 10.95 11.72V11.68ZM31.49 40.52L31.37 40.41H31.25C31.1251 40.4212 31.0066 40.47 30.91 40.55C30.4325 40.9165 29.8516 41.1229 29.25 41.14C28.935 41.136 28.6233 41.0751 28.33 40.96C27.5151 40.6568 26.8385 40.0675 26.4263 39.302C26.0141 38.5365 25.8946 37.6472 26.09 36.8C26.1019 36.7387 26.098 36.6753 26.0788 36.6158C26.0595 36.5564 26.0256 36.5028 25.98 36.46L25.8 36.31L25.63 36.47C25.2001 36.8904 24.6408 37.1535 24.0428 37.2164C23.4448 37.2794 22.843 37.1386 22.3349 36.817C21.8268 36.4953 21.4422 36.0115 21.2434 35.444C21.0445 34.8765 21.0431 34.2585 21.2393 33.69C21.4355 33.1216 21.8178 32.636 22.3243 32.312C22.8309 31.9879 23.432 31.8443 24.0303 31.9045C24.6287 31.9647 25.1891 32.2251 25.621 32.6435C26.0529 33.0619 26.3309 33.6139 26.41 34.21L26.51 34.93L26.91 34.32C27.2579 33.8117 27.7209 33.3928 28.2613 33.0974C28.8018 32.802 29.4043 32.6384 30.02 32.62C30.4133 32.6237 30.8041 32.6843 31.18 32.8C31.7175 32.9689 32.1888 33.3017 32.5277 33.7518C32.8666 34.2019 33.0563 34.7467 33.07 35.31C33.07 35.65 33.35 35.67 33.39 35.67C33.4499 35.6659 33.5082 35.6496 33.5615 35.622C33.6148 35.5945 33.662 35.5564 33.7 35.51C33.9585 35.2424 34.2698 35.0314 34.614 34.8903C34.9583 34.7491 35.3281 34.6809 35.7 34.69C36.2077 34.696 36.7085 34.8084 37.17 35.02C39.68 36.1 38.54 39.28 38.53 39.32C38.32 39.84 38.3 40.08 38.53 40.22H38.63H38.7C38.866 40.2031 39.0282 40.1592 39.18 40.09C39.6079 39.9194 40.0602 39.8181 40.52 39.79C41.4265 39.8004 42.2929 40.1651 42.9339 40.8061C43.5749 41.4471 43.9396 42.3135 43.95 43.22C43.9699 44.127 43.6287 45.0048 43.0013 45.6603C42.374 46.3157 41.5121 46.6951 40.605 46.715C39.698 46.7349 38.8202 46.3937 38.1647 45.7664C37.5093 45.139 37.1299 44.2771 37.11 43.37C37.11 43.21 37.11 42.79 36.74 42.79C36.5795 42.8079 36.4306 42.8823 36.32 43C35.8829 43.466 35.2786 43.7394 34.64 43.76C34.2611 43.7532 33.8873 43.6716 33.54 43.52C31.59 42.73 31.54 41.39 31.64 40.85C31.6381 40.7936 31.6237 40.7382 31.5977 40.6881C31.5718 40.6379 31.535 40.5942 31.49 40.56V40.52ZM43.68 55.39C20.48 55.39 1.67999 43.39 1.67999 28.51C1.67999 27.91 1.68 27.32 1.78 26.73L4.19 27.3C15.5 29.82 19.19 32.43 19.87 32.92C19.5968 33.5637 19.4867 34.2649 19.5495 34.9614C19.6122 35.6578 19.8458 36.328 20.2296 36.9126C20.6134 37.4971 21.1354 37.978 21.7495 38.3124C22.3636 38.6469 23.0507 38.8247 23.75 38.83C24.0117 38.833 24.273 38.8096 24.53 38.76C24.7018 39.5992 25.0863 40.3802 25.6466 41.0281C26.2069 41.676 26.9244 42.1691 27.73 42.46C28.2112 42.6488 28.7231 42.7471 29.24 42.75C29.5769 42.7499 29.9126 42.7096 30.24 42.63C30.6283 43.449 31.2354 44.1449 31.9942 44.6407C32.753 45.1366 33.634 45.4132 34.54 45.44C34.9844 45.4409 35.4252 45.3596 35.84 45.2C36.1559 45.9638 36.6563 46.6374 37.2963 47.1605C37.9363 47.6835 38.696 48.0397 39.5074 48.1973C40.3189 48.3548 41.1567 48.3087 41.9459 48.0631C42.7352 47.8176 43.4512 47.3801 44.03 46.79C45.3191 47.5419 46.7696 47.974 48.26 48.05C48.473 48.0661 48.687 48.0661 48.9 48.05C49.4501 48.0324 49.9902 47.8985 50.4849 47.6572C50.9795 47.4159 51.4175 47.0727 51.77 46.65C51.8387 46.559 51.8989 46.4619 51.95 46.36C52.3908 46.4955 52.8489 46.5663 53.31 46.57C54.3045 46.542 55.2628 46.191 56.04 45.57C56.8641 45.0262 57.4449 44.1837 57.66 43.22C57.959 43.285 58.264 43.3186 58.57 43.32C59.574 43.3076 60.5519 42.9979 61.38 42.43C62.01 42.0669 62.5291 41.5389 62.8815 40.9029C63.2339 40.2668 63.4063 39.5467 63.38 38.82C63.6858 38.885 63.9974 38.9185 64.31 38.92C65.2503 38.9139 66.1681 38.6323 66.95 38.11C67.4723 37.7923 67.911 37.3542 68.2294 36.8323C68.5477 36.3104 68.7365 35.7198 68.78 35.11C68.8413 34.266 68.6386 33.4238 68.2 32.7C73.8497 30.391 79.6836 28.5612 85.64 27.23C85.64 27.67 85.69 28.12 85.69 28.57C85.69 43.4 66.88 55.43 43.68 55.43V55.39Z" fill="#2D3277"/>
<path d="M237.12 8.77979C235.53 6.77979 233.12 5.77979 229.9 5.77979C226.68 5.77979 224.27 6.77979 222.68 8.77979C221.137 10.8101 220.302 13.2899 220.302 15.8398C220.302 18.3897 221.137 20.8695 222.68 22.8998C224.267 24.8598 226.673 25.8365 229.9 25.8298C233.13 25.8298 235.53 24.8298 237.12 22.8998C238.663 20.8695 239.498 18.3897 239.498 15.8398C239.498 13.2899 238.663 10.8101 237.12 8.77979ZM233.19 20.2298C232.782 20.7104 232.274 21.0965 231.701 21.3613C231.129 21.626 230.506 21.7632 229.875 21.7632C229.244 21.7632 228.621 21.626 228.049 21.3613C227.476 21.0965 226.968 20.7104 226.56 20.2298C225.801 18.9037 225.402 17.4025 225.402 15.8748C225.402 14.3471 225.801 12.8459 226.56 11.5198C226.97 11.0422 227.479 10.6589 228.051 10.3961C228.623 10.1333 229.245 9.99719 229.875 9.99719C230.505 9.99719 231.127 10.1333 231.699 10.3961C232.271 10.6589 232.78 11.0422 233.19 11.5198C234.04 12.805 234.447 14.3322 234.35 15.8698C234.442 17.41 234.035 18.9389 233.19 20.2298Z" fill="white"/>
<path d="M196.58 7.11993C194.863 6.27947 192.971 5.86119 191.06 5.89993C187.88 5.89993 185.63 6.73992 184.32 8.38992C183.455 9.57417 182.97 10.9937 182.93 12.4599H187.69C187.769 11.8292 188.01 11.2297 188.39 10.7199C188.719 10.4003 189.115 10.1567 189.548 10.0064C189.982 9.85609 190.443 9.80267 190.9 9.84991C191.723 9.80643 192.546 9.95715 193.3 10.2899C193.574 10.451 193.796 10.6875 193.94 10.9711C194.083 11.2548 194.142 11.5737 194.11 11.8899C194.104 12.2055 193.999 12.5111 193.808 12.7627C193.618 13.0143 193.352 13.1989 193.05 13.2899C192.406 13.5233 191.733 13.668 191.05 13.7199L189.36 13.9199C187.843 14.0453 186.364 14.4558 185 15.1299C184.127 15.6265 183.41 16.3586 182.933 17.2427C182.455 18.1267 182.236 19.1272 182.3 20.1299C182.253 20.9032 182.379 21.6773 182.669 22.3954C182.96 23.1135 183.408 23.7574 183.98 24.2799C185.185 25.2456 186.686 25.765 188.23 25.7499C199 26.2299 198.87 20.0799 198.96 18.7499V11.6699C198.98 9.46325 198.187 7.94659 196.58 7.11993ZM194.07 17.8599C194.131 18.5002 194.035 19.1458 193.789 19.7402C193.543 20.3346 193.156 20.8598 192.66 21.2699C191.781 21.8841 190.732 22.2092 189.66 22.1999C189.032 22.2167 188.417 22.0153 187.92 21.6299C187.668 21.4007 187.473 21.116 187.35 20.7985C187.226 20.4809 187.179 20.1391 187.21 19.7999C187.187 19.3765 187.285 18.9554 187.492 18.5854C187.699 18.2154 188.007 17.9118 188.38 17.7099C189.095 17.3632 189.862 17.1369 190.65 17.0399L191.77 16.8399C192.218 16.7611 192.659 16.6474 193.09 16.4999C193.439 16.3788 193.774 16.2212 194.09 16.0299L194.07 17.8599Z" fill="white"/>
<path d="M172.04 10.1099C172.548 10.0703 173.058 10.1511 173.529 10.3457C174 10.5404 174.418 10.8433 174.75 11.2299C175.15 11.793 175.408 12.4451 175.5 13.1299H180.8C180.51 10.4499 179.57 8.57986 177.99 7.52986C176.156 6.40648 174.029 5.8531 171.88 5.93987C170.608 5.87081 169.335 6.07519 168.148 6.5392C166.962 7.00321 165.888 7.71609 165 8.62987C163.34 10.4299 162.507 12.9399 162.5 16.1599C162.379 18.6901 163.182 21.178 164.76 23.1599C166.26 24.9499 168.62 25.8499 171.76 25.8499C174.9 25.8499 177.36 24.7799 178.99 22.6299C179.96 21.413 180.555 19.9395 180.7 18.3899H175.41C175.346 19.2707 175.022 20.1128 174.48 20.8099C174.147 21.1481 173.742 21.4073 173.296 21.5683C172.849 21.7293 172.372 21.7879 171.9 21.7399C171.139 21.7885 170.384 21.5844 169.751 21.1595C169.118 20.7345 168.643 20.1124 168.4 19.3899C168.021 18.3257 167.847 17.1989 167.89 16.0699C167.847 14.8885 168.02 13.7093 168.4 12.5899C168.639 11.827 169.128 11.1672 169.789 10.7171C170.449 10.267 171.243 10.0531 172.04 10.1099Z" fill="white"/>
<path d="M161.1 5.97021C150.2 5.97021 150.84 15.6202 150.84 15.6202V25.4202H155.75V16.2302C155.685 15.0849 155.88 13.9397 156.32 12.8802C156.987 11.5936 158.32 10.9502 160.32 10.9502H160.91C161.16 10.9502 161.42 10.9502 161.75 11.0202V6.02023H161.32L161.1 5.97021Z" fill="white"/>
<path d="M146.88 9.61978C146.082 8.40185 144.955 7.43461 143.63 6.82978C142.238 6.23083 140.735 5.93102 139.22 5.94977C137.98 5.90147 136.744 6.10721 135.586 6.55432C134.429 7.00144 133.375 7.6805 132.49 8.54978C130.763 10.2831 129.9 12.7798 129.9 16.0398C129.9 19.5198 130.857 22.0298 132.77 23.5698C134.636 25.0948 136.98 25.9128 139.39 25.8798C140.696 25.9575 142.004 25.7531 143.224 25.2803C144.444 24.8075 145.547 24.0774 146.46 23.1398C147.263 22.3506 147.852 21.3697 148.17 20.2898H142.92C142.734 20.5704 142.508 20.8229 142.25 21.0398C141.446 21.605 140.469 21.8704 139.49 21.7898C138.567 21.844 137.649 21.6248 136.85 21.1598C136.205 20.7335 135.682 20.1474 135.332 19.4586C134.981 18.7698 134.815 18.0018 134.85 17.2298H148.54C148.58 15.9842 148.527 14.7373 148.38 13.4998C148.18 12.1097 147.667 10.7831 146.88 9.61978ZM134.97 13.9898C135.087 12.9054 135.546 11.8862 136.28 11.0798C136.668 10.7089 137.129 10.4224 137.633 10.2382C138.137 10.0541 138.674 9.97629 139.21 10.0098C140.271 9.96891 141.308 10.3255 142.12 11.0098C142.533 11.393 142.862 11.8572 143.087 12.3734C143.313 12.8895 143.429 13.4466 143.43 14.0098L134.97 13.9898Z" fill="white"/>
<path d="M120.07 5.90023C118.999 5.89072 117.939 6.12107 116.968 6.57442C115.997 7.02777 115.14 7.69263 114.46 8.52022C113.787 7.68117 112.931 7.00837 111.956 6.554C110.981 6.09964 109.915 5.87592 108.84 5.90023C104.01 5.90023 100.89 9.45023 100.89 14.1502V25.4202H105.41V14.0402C105.382 13.5787 105.45 13.1164 105.612 12.6831C105.773 12.2498 106.023 11.8551 106.346 11.5244C106.67 11.1937 107.058 10.9344 107.488 10.7632C107.917 10.5919 108.378 10.5126 108.84 10.5302C111.84 10.5302 112.13 13.0002 112.13 14.0402V25.4202H116.65V14.0402C116.625 13.5795 116.696 13.1185 116.858 12.6866C117.02 12.2547 117.271 11.8612 117.593 11.5312C117.916 11.2011 118.303 10.9418 118.732 10.7695C119.16 10.5971 119.619 10.5157 120.08 10.5302C120.539 10.506 120.998 10.5816 121.426 10.752C121.853 10.9224 122.238 11.1834 122.555 11.5171C122.871 11.8508 123.112 12.2492 123.259 12.6848C123.407 13.1204 123.458 13.5828 123.41 14.0402V25.4202H127.93V14.1502C127.91 9.30023 125 5.90023 120.07 5.90023Z" fill="white"/>
<path d="M213.75 3.49015V8.79014C213.228 7.92073 212.486 7.20356 211.6 6.71015C210.683 6.20232 209.648 5.94373 208.6 5.96015C207.467 5.92138 206.34 6.15013 205.311 6.6279C204.283 7.10568 203.381 7.81904 202.68 8.71015C201.091 10.9519 200.308 13.6663 200.46 16.4101C200.374 18.8855 201.188 21.3082 202.75 23.2301C204.25 25.0001 207.2 25.7801 209.81 25.7801C218.93 25.7801 218.81 17.9701 218.81 17.9701V-0.0298722C218.81 -0.0298722 213.75 -0.509853 213.75 3.49015ZM212.75 20.2301C212.398 20.7375 211.922 21.1462 211.367 21.4175C210.812 21.6889 210.197 21.8137 209.58 21.7801C208.984 21.8028 208.393 21.6722 207.863 21.4008C207.332 21.1294 206.88 20.7263 206.55 20.2301C205.817 18.9202 205.47 17.4292 205.55 15.9302C205.507 14.53 205.853 13.1453 206.55 11.9302C206.88 11.3979 207.348 10.9652 207.905 10.6782C208.461 10.3911 209.085 10.2605 209.71 10.3001C210.622 10.2874 211.507 10.6074 212.2 11.2001C213.36 12.2001 213.95 13.9601 213.95 16.2701C213.997 17.6744 213.605 19.0583 212.83 20.2301H212.75Z" fill="white"/>
<path d="M111.34 32.98C107.27 32.79 105.2 33.76 103.86 34.78C102.01 36.19 100.86 38.2801 100.86 41.6201V58.82H103.26C103.907 58.8281 104.534 58.5965 105.02 58.17C105.271 57.9471 105.472 57.6728 105.608 57.3657C105.744 57.0587 105.813 56.726 105.81 56.39V49.9601C106.339 50.9215 107.148 51.6992 108.13 52.19C109.137 52.6357 110.229 52.8542 111.33 52.83C112.413 52.8501 113.485 52.6131 114.458 52.1385C115.432 51.664 116.279 50.9654 116.93 50.1C118.464 47.9771 119.233 45.3965 119.11 42.78C119.24 40.1833 118.407 37.6301 116.77 35.61C116.095 34.8215 115.264 34.1808 114.33 33.7282C113.395 33.2757 112.377 33.021 111.34 32.98ZM113.02 47.09C112.687 47.5737 112.238 47.9657 111.714 48.2296C111.189 48.4936 110.607 48.621 110.02 48.6C109.413 48.6311 108.809 48.5091 108.262 48.2452C107.715 47.9813 107.243 47.5841 106.89 47.09C106.078 45.8878 105.694 44.4471 105.8 43C105.678 41.4944 106.028 39.9882 106.8 38.69C107.141 38.203 107.599 37.8096 108.132 37.5457C108.665 37.2819 109.256 37.1562 109.85 37.1801C110.457 37.149 111.061 37.271 111.608 37.5349C112.155 37.7988 112.627 38.196 112.98 38.69C113.784 39.9776 114.166 41.4848 114.07 43C114.163 44.4402 113.795 45.8727 113.02 47.09Z" fill="#2D3277"/>
<path d="M153.83 34.7602C152.023 33.3627 149.755 32.6985 147.48 32.9002C144.48 32.9902 142.3 33.8202 140.95 35.6602C139.522 37.7808 138.821 40.3071 138.95 42.8602C138.851 45.0122 139.383 47.1462 140.48 49.0002C141.347 50.4164 142.633 51.5278 144.16 52.1802C145.526 52.7543 147.038 52.8803 148.48 52.5402C149.197 52.3777 149.873 52.0714 150.467 51.64C151.062 51.2086 151.563 50.6609 151.94 50.0302V51.2302C151.945 52.4673 151.56 53.6746 150.84 54.6802C150.305 55.3728 149.55 55.8629 148.7 56.0702C147.903 56.2358 147.073 56.1339 146.34 55.7802C145.585 55.4808 144.954 54.9344 144.55 54.2302H139.33C140.68 58.2902 143.1 60.0802 147.47 60.4002C154.47 60.9002 156.76 54.9402 156.76 51.7202V41.6402C156.75 38.3002 155.67 36.1502 153.83 34.7602ZM151.75 44.6902C151.65 45.578 151.33 46.4268 150.82 47.1602C149.92 48.4002 148.51 48.8402 146.61 48.4902C144.71 48.1402 143.75 46.3002 143.75 43.0102C143.722 41.5992 144.016 40.2005 144.61 38.9202C144.911 38.3226 145.388 37.8311 145.975 37.5113C146.563 37.1915 147.235 37.0585 147.9 37.1302C148.424 37.1 148.947 37.2024 149.42 37.4279C149.894 37.6534 150.303 37.9947 150.61 38.4202C151.239 39.292 151.644 40.305 151.79 41.3702C151.957 42.4717 151.944 43.5931 151.75 44.6902Z" fill="#2D3277"/>
<path d="M134.68 34.23C132.963 33.3914 131.071 32.9732 129.16 33.01C125.98 33.01 123.733 33.84 122.42 35.5C121.556 36.6815 121.072 38.0972 121.03 39.56H125.75C125.828 38.9352 126.07 38.3421 126.45 37.84C126.779 37.5204 127.175 37.2768 127.608 37.1265C128.042 36.9762 128.503 36.9228 128.96 36.97C129.783 36.9254 130.606 37.0762 131.36 37.41C131.634 37.5712 131.856 37.8076 132 38.0913C132.143 38.3749 132.202 38.6938 132.17 39.01C132.164 39.3256 132.059 39.6312 131.868 39.8828C131.678 40.1344 131.412 40.319 131.11 40.41C130.464 40.6384 129.792 40.7829 129.11 40.84L127.43 41.04C125.914 41.1707 124.436 41.581 123.07 42.25C122.197 42.7466 121.48 43.4787 121.003 44.3628C120.525 45.2469 120.306 46.2473 120.37 47.25C120.323 48.0233 120.449 48.7974 120.739 49.5155C121.03 50.2336 121.478 50.8776 122.05 51.4001C123.255 52.3658 124.756 52.8852 126.3 52.8701C137.05 53.3501 136.94 47.2001 137.03 45.8701V38.79C137.063 36.59 136.28 35.07 134.68 34.23ZM132.17 44.97C132.231 45.6103 132.135 46.2559 131.889 46.8503C131.643 47.4447 131.256 47.9699 130.76 48.38C129.881 48.9943 128.832 49.3193 127.76 49.31C127.132 49.3268 126.517 49.1254 126.02 48.7401C125.766 48.5123 125.57 48.2279 125.446 47.9099C125.323 47.592 125.276 47.2494 125.31 46.91C125.287 46.4867 125.385 46.0655 125.592 45.6955C125.799 45.3256 126.107 45.022 126.48 44.82C127.192 44.4744 127.955 44.2481 128.74 44.1501L129.86 43.9501C130.309 43.8764 130.751 43.7626 131.18 43.6101C131.529 43.4889 131.864 43.3313 132.18 43.1401V44.98L132.17 44.97Z" fill="#2D3277"/>
<path d="M175.48 35.8198C173.89 33.8198 171.48 32.8198 168.25 32.8198C165.02 32.8198 162.62 33.8198 161.03 35.8198C159.487 37.848 158.651 40.3262 158.651 42.8748C158.651 45.4234 159.487 47.9017 161.03 49.9298C162.62 51.8798 165.03 52.8598 168.25 52.8598C171.47 52.8598 173.88 51.8598 175.48 49.9298C177.023 47.9017 177.859 45.4234 177.859 42.8748C177.859 40.3262 177.023 37.848 175.48 35.8198ZM171.55 47.2298C171.142 47.7105 170.634 48.0965 170.061 48.3613C169.489 48.6261 168.866 48.7632 168.235 48.7632C167.604 48.7632 166.981 48.6261 166.409 48.3613C165.836 48.0965 165.328 47.7105 164.92 47.2298C164.154 45.9079 163.751 44.4074 163.751 42.8798C163.751 41.3522 164.154 39.8517 164.92 38.5298C165.33 38.0522 165.839 37.6689 166.411 37.4061C166.983 37.1433 167.605 37.0072 168.235 37.0072C168.865 37.0072 169.487 37.1433 170.059 37.4061C170.631 37.6689 171.14 38.0522 171.55 38.5298C172.4 39.815 172.807 41.3422 172.71 42.8798C172.795 44.4163 172.389 45.9399 171.55 47.2298Z" fill="#2D3277"/>
</g>
<defs>
<clipPath id="clip0_3951_6992">
<rect width="239.5" height="60.46" fill="white"/>
</clipPath>
</defs>
</svg>
