<svg width="1000" height="753" viewBox="0 0 1000 753" fill="none" xmlns="http://www.w3.org/2000/svg">
<path d="M608.057 408.712C596.863 417.868 594.741 419.201 588.745 420.805C578.522 423.539 567.241 420.192 559.822 412.206C550.772 402.472 527.892 321.649 521.142 275.544C513.659 224.488 511.34 168.479 514.872 124.018C516.332 105.603 517.852 101.355 525.49 94.3669C532.783 87.6851 538.854 86.6584 562.691 88.0669C573.709 88.7134 584.346 89.5748 586.312 89.9725C598.561 92.4303 608.288 105.149 607.968 118.279C607.921 120.455 608.808 133.206 609.945 146.6C612.096 171.788 615.574 197.218 620.566 224.169C624.655 246.247 640.086 303.356 647.678 324.498C655.935 347.489 657.734 354.612 656.593 359.851C654.979 367.278 650.512 373.903 642.605 380.602C638.423 384.132 634.817 387.079 634.575 387.143C634.344 387.205 631.11 389.771 627.39 392.839C623.684 395.914 614.981 403.052 608.057 408.712Z" fill="#D34E14"/>
<path d="M768.172 415.196C762.854 419.829 749.607 424.746 742.221 424.829C731.058 424.953 717.451 417.945 710.793 408.64C700.294 393.975 681.282 352.26 666.516 311.54C658.552 289.56 640.992 222.932 636.154 196.297C628.44 153.916 624.505 125.733 625.287 118.652C626.39 108.814 634.24 99.1217 644.162 95.3416C649.991 93.1178 656.138 93.0399 680.705 94.8404C686.72 95.282 711.474 96.7732 735.717 98.1646C759.96 99.5561 784.717 101.058 790.729 101.489C796.745 101.931 803.443 102.313 805.618 102.351C815.439 102.519 867.83 106.285 872.807 107.185C889.105 110.104 903.822 126.999 904.851 143.938C905.074 147.708 904.935 152.984 904.521 155.641C903.043 165.342 894.95 177.195 884.549 184.9C879.91 188.327 855.22 208.201 848.525 213.878C845.119 216.772 841.374 219.79 820.244 236.629C815.906 240.087 808.479 246.185 803.754 250.175C799.027 254.154 794.968 257.471 794.736 257.533C794.505 257.595 790.461 260.76 785.745 264.568C781.028 268.375 773.835 274.174 769.751 277.441C765.67 280.718 758.885 286.273 754.679 289.798C750.473 293.322 746.661 296.302 746.198 296.426C745.746 296.547 743.789 298.58 741.877 300.95C737.297 306.569 735.935 313.174 737.86 320.343C739.26 325.556 740.584 327.173 757.032 343.752C766.755 353.555 775.885 363.664 777.318 366.232C781.513 373.752 782.972 384.143 781.126 393.435C779.356 402.381 775.547 408.773 768.172 415.196Z" fill="#FCC035"/>
<path d="M426.474 375.238C422.498 357.238 419.581 340.295 417.184 324.42C415.856 315.949 414.527 308.805 413.468 302.978C398.892 305.093 382.467 308.276 364.184 311.978C360.737 312.776 357.29 313.564 353.844 314.093V362.796C353.054 374.709 347.489 383.208 337.121 387.671C326.754 392.134 317.25 394.287 308.498 394.287C303.604 394.267 298.725 393.735 293.941 392.7C279.894 389.527 270.353 381.322 265.318 368.084C261.601 351.94 260.013 333.68 260.013 312.776C260.013 300.862 260.552 288.42 261.611 274.929C265.175 236.937 273.362 199.519 285.988 163.504C298.706 126.446 316.46 94.9553 339.518 69.5417C352.766 56.3108 366.283 48.8973 379.801 46.7819C393.318 44.6664 403.119 43.6086 408.944 43.6086C422.986 43.6054 436.879 46.4889 449.756 52.0798C467.779 60.0129 479.178 74.0417 483.683 94.1573C490.038 151.591 495.337 215.464 499.579 285.775C502.496 329.449 505.153 368.353 508.061 402.229V402.758C508.061 411.229 503.815 417.845 495.055 422.345C486.589 426.908 477.112 429.276 467.491 429.229H465.902C455.302 428.7 447.322 425.258 442.323 418.373C435.746 407.527 430.451 392.969 426.474 375.238ZM406.863 229.14C406.603 216.698 406.073 204.524 405.274 192.351C404.475 180.178 403.416 169.851 402.097 161.38C400.778 152.908 398.91 148.148 396.523 147.091C396.022 146.879 395.478 146.79 394.934 146.831C390.689 146.831 386.183 151.062 382.207 159.264C377.441 168.542 373.204 179.909 369.2 193.668C365.196 207.428 362.047 220.409 359.659 233.111C357.272 245.544 355.683 254.284 355.414 259.573C363.636 259.044 372.378 258.784 381.12 258.256C390.131 257.987 399.143 257.717 408.414 257.189C407.922 249.256 407.392 239.727 406.863 229.14Z" fill="#00D856"/>
<path d="M216.927 486.672C211.124 502.187 206.561 518.138 203.28 534.372C200.725 548.643 199.443 559.498 199.443 567.172C199.323 571.104 199.681 575.035 200.511 578.881C209.351 577.809 218.251 577.31 227.155 577.387H230.36C240.833 577.48 251.267 578.694 261.483 581.006C271.934 583.993 277.694 588.252 279.18 593.996C280.676 599.563 281.317 603.58 281.317 606.559C281.376 611.252 280.2 615.879 277.908 619.975C274.705 625.542 270.441 628.31 265.115 628.279C263.971 628.308 262.827 628.238 261.696 628.066C257.452 626.964 253.073 626.464 248.69 626.581C243.769 626.664 238.856 627.018 233.974 627.639C222.734 628.925 211.823 632.246 201.775 637.437C200.074 638.931 199.22 642.336 199.22 648.089V659.548C199.22 667.428 199.433 676.159 199.861 685.741C200.502 697.45 201.143 707.675 201.775 716.61C201.988 721.296 202.202 724.961 202.416 727.262C202.198 737.486 198.148 744.29 190.264 747.674C182.163 751.293 174.703 753 168.088 753C163.648 752.914 159.225 752.414 154.878 751.506C143.144 748.955 134.188 742.135 128.01 731.279C117.058 707.945 110.342 682.852 108.176 657.172C106.045 631.62 104.98 611.179 104.98 595.851C104.942 575.43 106.081 555.024 108.39 534.734C112.44 499.393 119.055 470.212 128.651 447.647C134.554 434.765 144.726 424.31 157.451 418.049C170.244 411.656 181.754 408.037 191.992 407.397C202.211 406.544 209.476 406.126 213.954 406.126C225.247 406.146 236.518 407.142 247.64 409.104C262.988 411.888 276.208 415.701 287.291 420.814C298.17 426.14 304.775 432.523 307.553 439.983C310.107 447.22 311.603 453.604 311.603 459.143C311.526 463.159 311.025 467.155 310.107 471.066C307.98 480.65 304.134 488.955 298.383 495.765C292.633 502.575 286.232 506.203 279.19 506.843C271.516 506.843 265.765 503.856 262.133 497.686C258.032 490.85 254.743 483.561 252.332 475.965C250.409 470.398 248.486 464.896 246.144 459.783C243.998 455.003 240.875 450.723 236.975 447.22C229.933 455.803 223.105 469.006 216.927 486.672Z" fill="white"/>
<path d="M503.259 522.45C497.295 504.134 487.912 490.086 475.547 480.075C458.917 467.939 439.098 460.911 416.089 458.994C411.611 458.568 406.92 458.568 402.442 458.568C383.764 458.689 365.239 461.928 347.63 468.152C328.864 474.536 315.012 484.974 305.415 499.458C303.065 503.707 302.006 507.335 302.006 510.313C302.006 512.652 303.065 515.212 305.202 518.191C307.795 521.601 311.061 524.443 314.798 526.541C316.759 527.626 318.552 528.988 320.122 530.587C320.735 531.225 321.112 532.053 321.19 532.934C321.173 533.621 320.95 534.287 320.549 534.846C312.875 545.052 306.27 558.487 300.724 575.522C295.586 591.407 292.996 608.004 293.05 624.698C293.05 625.978 293.05 631.508 293.264 641.306C293.477 651.104 298.838 663.027 309.252 677.297C319.471 691.558 336.751 700.716 361.064 705.188C371.84 707.014 382.751 707.946 393.681 707.972C413.831 707.99 433.725 703.462 451.875 694.722C470.205 685.991 484.707 671.721 495.149 651.921C505.659 632.286 511.514 610.504 512.261 588.252C512.475 584.838 512.475 581.646 512.475 578.454C512.522 559.406 509.408 540.48 503.259 522.45ZM434.614 609.119C432.297 624.138 427.695 638.717 420.967 652.348C414.566 665.337 407.106 672.76 398.364 674.699C386.844 673.001 378.752 667.898 374.061 659.158C369.794 651.494 367.66 642.336 367.66 631.685C367.66 629.987 367.873 625.728 368.301 618.481C368.514 611.244 371.283 600.852 375.974 587.399C380.608 574.328 386.849 561.883 394.555 550.35C395.936 548.119 396.673 545.55 396.682 542.927C396.682 538.668 394.127 533.983 388.581 528.666C383.258 523.34 374.302 520.78 361.723 520.575C361.436 519.387 361.293 518.17 361.296 516.948C361.296 514.164 362.15 509.71 364.083 504.171C366.006 498.428 369.657 492.462 374.534 486.709C379.412 481.402 385.144 478.618 391.972 478.618L393.672 478.832C407.533 480.539 418.189 488.203 425.259 501.193C432.329 514.183 436.556 530.151 438.051 548.893C438.479 554.46 438.692 560.176 438.692 565.715C438.581 580.273 437.216 594.794 434.614 609.119Z" fill="white"/>
<path d="M999.997 529.269C999.95 534.96 999.597 540.644 998.928 546.295C995.732 571.644 987.631 596.983 974.625 622.109C961.86 646.821 945.872 669.735 927.078 690.25C908.498 710.477 890.41 725.378 873.139 734.786C855.869 744.371 840.521 749.057 827.515 749.057C823.431 749.064 819.357 748.635 815.363 747.776C803.203 744.585 793.401 735.427 785.932 720.099C778.5 704.975 772.712 686.242 768.885 663.881C764.969 641.989 762.486 619.866 761.452 597.651C760.384 576.144 759.752 556.557 759.752 539.309C759.752 533.565 759.966 527.813 759.966 522.273C760.598 499.912 761.239 480.966 762.307 465.675C763.589 452.258 770.668 441.607 783.675 433.943C796.467 426.279 809.26 421.807 822.266 420.526C835.272 419.246 845.083 418.615 851.902 418.615C865.337 418.609 878.749 419.749 891.989 422.02C912.883 425.639 931.853 432.022 949.124 441.393C966.18 450.551 978.973 462.26 987.288 476.744C995.77 492.949 1000.14 510.986 999.997 529.269ZM902.598 596.13C910.272 570.577 914.109 550.136 914.109 534.586C914.262 523.692 912.694 512.843 909.464 502.436C902.032 479.435 887.938 465.601 867.035 461.129H865.976C859.148 461.129 853.611 467.512 849.765 480.502C845.714 494.345 842.946 511.594 841.404 532.034C839.917 552.688 839.063 572.915 839.063 593.142V598.709C839.276 620.857 840.131 640.017 841.404 655.994C842.686 671.767 844.191 681.333 846.095 684.098C876.158 651.067 895.138 621.896 902.598 596.13Z" fill="white"/>
<path d="M426.474 375.238C422.498 357.238 419.581 340.295 417.184 324.42C415.856 315.949 414.527 308.805 413.468 302.978C398.892 305.093 382.467 308.276 364.184 311.978C360.737 312.776 357.29 313.564 353.844 314.093V362.796C353.054 374.709 347.489 383.208 337.121 387.671C326.754 392.134 317.25 394.287 308.498 394.287C303.604 394.267 298.725 393.735 293.941 392.7C279.894 389.527 270.353 381.322 265.318 368.084C261.601 351.94 260.013 333.68 260.013 312.776C260.013 300.862 260.552 288.42 261.611 274.929C265.175 236.937 273.362 199.519 285.988 163.504C298.706 126.446 316.46 94.9553 339.518 69.5417C352.766 56.3108 366.283 48.8973 379.801 46.7819C393.318 44.6664 403.119 43.6086 408.944 43.6086C422.986 43.6054 436.879 46.4889 449.756 52.0798C467.779 60.0129 479.178 74.0417 483.683 94.1573C490.038 151.591 495.337 215.464 499.579 285.775C502.496 329.449 505.153 368.353 508.061 402.229V402.758C508.061 411.229 503.815 417.845 495.055 422.345C486.589 426.908 477.112 429.276 467.491 429.229H465.902C455.302 428.7 447.322 425.258 442.323 418.373C435.746 407.527 430.451 392.969 426.474 375.238ZM406.863 229.14C406.603 216.698 406.073 204.524 405.274 192.351C404.475 180.178 403.416 169.851 402.097 161.38C400.778 152.908 398.91 148.148 396.523 147.091C396.022 146.879 395.478 146.79 394.934 146.831C390.689 146.831 386.183 151.062 382.207 159.264C377.441 168.542 373.204 179.909 369.2 193.668C365.196 207.428 362.047 220.409 359.659 233.111C357.272 245.544 355.683 254.284 355.414 259.573C363.636 259.044 372.378 258.784 381.12 258.256C390.131 257.987 399.143 257.717 408.414 257.189C407.922 249.256 407.392 239.727 406.863 229.14Z" fill="#FCC035"/>
<path d="M93.5522 331.583C93.5522 335.814 93.5522 340.045 93.8216 344.814C93.8216 349.045 94.0817 353.017 94.0817 356.988C94.0817 366.517 93.5522 375.248 93.0227 382.661C91.1646 392.979 86.3987 399.594 78.9759 402.248C71.5437 404.623 64.9291 405.959 59.3643 405.959C54.5324 405.995 49.7192 405.371 45.0574 404.104C34.4573 400.93 26.477 395.373 21.4696 386.901C16.7 377.623 12.4609 360.683 8.75134 336.083C4.9563 312.862 2.47489 289.447 1.31919 265.948C0.529525 243.986 0 227.043 0 214.87C0 195.283 0.789637 175.696 2.11813 156.416C4.50571 125.185 9.27158 97.9618 16.6944 74.8957C24.1266 52.1357 34.7081 37.318 48.4947 30.7025C97.7327 10.29 140.709 0 177.015 0C179.403 0 181.79 0.259802 184.169 0.259802C222.073 1.58662 249.367 10.8467 266.59 27.7891C283.545 44.7222 292.296 64.578 292.296 87.0689C292.231 92.6592 291.785 98.2393 290.968 103.77C285.672 132.617 275.602 158.513 261.026 181.31C246.746 203.602 229.543 223.886 209.875 241.62C190.495 258.822 171.153 273.667 152.34 285.525C133.258 297.699 116.824 307.793 102.777 315.43C99.6001 317.285 96.683 318.872 93.7752 320.468C93.5522 323.901 93.5522 327.612 93.5522 331.583ZM137.495 216.447C152.612 198.094 165.924 178.329 177.247 157.427C189.079 136.029 197.739 113.03 202.953 89.1473C203.555 85.5575 203.909 81.9296 204.013 78.2915C203.972 72.2652 202.987 66.2825 201.095 60.5605C197.918 51.5604 192.883 44.6758 186.231 40.1479C179.831 35.7834 172.25 33.4721 164.501 33.5231C161.215 33.5361 157.935 33.8034 154.691 34.3211C140.644 36.7056 131.902 43.85 128.678 56.0233C119.513 87.2016 112.864 119.064 108.797 151.303C104.561 184.39 101.114 217.18 98.7268 250.026C98.4667 251.343 98.4667 252.939 98.1973 254.526C109.94 246.352 122.918 233.65 137.495 216.447Z" fill="#D34E14"/>
<path d="M216.927 486.672C211.124 502.187 206.561 518.138 203.28 534.372C200.725 548.643 199.443 559.498 199.443 567.172C199.323 571.104 199.681 575.035 200.511 578.881C209.351 577.809 218.251 577.31 227.155 577.387H230.36C240.833 577.48 251.267 578.694 261.483 581.006C271.934 583.993 277.694 588.252 279.18 593.996C280.676 599.563 281.317 603.58 281.317 606.559C281.376 611.252 280.2 615.879 277.908 619.975C274.705 625.542 270.441 628.31 265.115 628.279C263.971 628.308 262.827 628.238 261.696 628.066C257.452 626.964 253.073 626.464 248.69 626.581C243.769 626.664 238.856 627.018 233.974 627.639C222.734 628.925 211.823 632.246 201.775 637.437C200.074 638.931 199.22 642.336 199.22 648.089V659.548C199.22 667.428 199.433 676.159 199.861 685.741C200.502 697.45 201.143 707.675 201.775 716.61C201.988 721.296 202.202 724.961 202.416 727.262C202.198 737.486 198.148 744.29 190.264 747.674C182.163 751.293 174.703 753 168.088 753C163.648 752.914 159.225 752.414 154.878 751.506C143.144 748.955 134.188 742.135 128.01 731.279C117.058 707.945 110.342 682.852 108.176 657.172C106.045 631.62 104.98 611.179 104.98 595.851C104.942 575.43 106.081 555.024 108.39 534.734C112.44 499.393 119.055 470.212 128.651 447.647C134.554 434.765 144.726 424.31 157.451 418.049C170.244 411.656 181.754 408.037 191.992 407.397C202.211 406.544 209.476 406.126 213.954 406.126C225.247 406.146 236.518 407.142 247.64 409.104C262.988 411.888 276.208 415.701 287.291 420.814C298.17 426.14 304.775 432.523 307.553 439.983C310.107 447.22 311.603 453.604 311.603 459.143C311.526 463.159 311.025 467.155 310.107 471.066C307.98 480.65 304.134 488.955 298.383 495.765C292.633 502.575 286.232 506.203 279.19 506.843C271.516 506.843 265.765 503.856 262.133 497.686C258.032 490.85 254.743 483.561 252.332 475.965C250.409 470.398 248.486 464.896 246.144 459.783C243.998 455.003 240.875 450.723 236.975 447.22C229.933 455.803 223.105 469.006 216.927 486.672Z" fill="#97BD21"/>
<path d="M503.259 522.45C497.295 504.134 487.912 490.086 475.547 480.075C458.917 467.939 439.098 460.911 416.089 458.994C411.611 458.568 406.92 458.568 402.442 458.568C383.764 458.689 365.239 461.928 347.63 468.152C328.864 474.536 315.012 484.974 305.415 499.458C303.065 503.707 302.006 507.335 302.006 510.313C302.006 512.652 303.065 515.212 305.202 518.191C307.795 521.601 311.061 524.443 314.798 526.541C316.759 527.626 318.552 528.988 320.122 530.587C320.735 531.225 321.112 532.053 321.19 532.934C321.173 533.621 320.95 534.287 320.549 534.846C312.875 545.052 306.27 558.487 300.724 575.522C295.586 591.407 292.996 608.004 293.05 624.698C293.05 625.978 293.05 631.508 293.264 641.306C293.477 651.104 298.838 663.027 309.252 677.297C319.471 691.558 336.751 700.716 361.064 705.188C371.84 707.014 382.751 707.946 393.681 707.972C413.831 707.99 433.725 703.462 451.875 694.722C470.205 685.991 484.707 671.721 495.149 651.921C505.659 632.286 511.514 610.504 512.261 588.252C512.475 584.838 512.475 581.646 512.475 578.454C512.522 559.406 509.408 540.48 503.259 522.45ZM434.614 609.119C432.297 624.138 427.695 638.717 420.967 652.348C414.566 665.337 407.106 672.76 398.364 674.699C386.844 673.001 378.752 667.898 374.061 659.158C369.794 651.494 367.66 642.336 367.66 631.685C367.66 629.987 367.873 625.728 368.301 618.481C368.514 611.244 371.283 600.852 375.974 587.399C380.608 574.328 386.849 561.883 394.555 550.35C395.936 548.119 396.673 545.55 396.682 542.927C396.682 538.668 394.127 533.983 388.581 528.666C383.258 523.34 374.302 520.78 361.723 520.575C361.436 519.387 361.293 518.17 361.296 516.948C361.296 514.164 362.15 509.71 364.083 504.171C366.006 498.428 369.657 492.462 374.534 486.709C379.412 481.402 385.144 478.618 391.972 478.618L393.672 478.832C407.533 480.539 418.189 488.203 425.259 501.193C432.329 514.183 436.556 530.151 438.051 548.893C438.479 554.46 438.692 560.176 438.692 565.715C438.581 580.273 437.216 594.794 434.614 609.119Z" fill="#97BD21"/>
<path d="M738.265 523.943C732.3 505.628 722.917 491.58 710.552 481.569C693.923 469.433 674.104 462.405 651.095 460.488C646.617 460.061 641.925 460.061 637.448 460.061C618.77 460.183 600.244 463.422 582.635 469.646C563.869 476.03 550.018 486.468 540.421 500.951C538.07 505.201 537.011 508.829 537.011 511.807C537.011 514.145 538.07 516.706 540.207 519.685C542.8 523.094 546.066 525.936 549.804 528.035C551.764 529.12 553.557 530.482 555.127 532.081C555.74 532.719 556.117 533.547 556.196 534.428C556.179 535.115 555.956 535.781 555.555 536.339C547.881 546.546 541.275 559.981 535.729 577.016C530.592 592.901 528.002 609.498 528.056 626.192C528.056 627.472 528.056 633.002 528.269 642.8C528.483 652.598 533.843 664.521 544.258 678.791C554.477 693.052 571.757 702.21 596.069 706.682C606.846 708.508 617.756 709.44 628.687 709.466C648.836 709.484 668.73 704.955 686.881 696.216C705.21 687.485 719.712 673.215 730.154 653.415C740.664 633.78 746.519 611.997 747.267 589.746C747.481 586.331 747.481 583.14 747.481 579.948C747.528 560.899 744.414 541.974 738.265 523.943ZM669.619 610.613C667.303 625.632 662.7 640.21 655.972 653.841C649.571 666.831 642.111 674.254 633.369 676.193C621.849 674.495 613.758 669.392 609.066 660.652C604.799 652.988 602.665 643.83 602.665 633.178C602.665 631.48 602.879 627.222 603.306 619.975C603.52 612.738 606.288 602.346 610.98 588.892C615.614 575.822 621.855 563.377 629.56 551.844C630.942 549.613 631.678 547.044 631.688 544.421C631.688 540.162 629.133 535.476 623.587 530.16C618.263 524.834 609.308 522.273 596.729 522.069C596.442 520.881 596.299 519.663 596.301 518.441C596.301 515.658 597.156 511.204 599.088 505.665C601.011 499.921 604.662 493.955 609.54 488.203C614.417 482.896 620.149 480.112 626.977 480.112L628.678 480.325C642.539 482.033 653.194 489.697 660.264 502.687C667.334 515.676 671.561 531.644 673.057 550.387C673.484 555.954 673.698 561.669 673.698 567.209C673.586 581.767 672.222 596.288 669.619 610.613Z" fill="#97BD21"/>
<path d="M999.997 529.269C999.95 534.96 999.597 540.644 998.928 546.295C995.732 571.644 987.631 596.983 974.625 622.109C961.86 646.821 945.872 669.735 927.078 690.25C908.498 710.477 890.41 725.378 873.139 734.786C855.869 744.371 840.521 749.057 827.515 749.057C823.431 749.064 819.357 748.635 815.363 747.776C803.203 744.585 793.401 735.427 785.932 720.099C778.5 704.975 772.712 686.242 768.885 663.881C764.969 641.989 762.486 619.866 761.452 597.651C760.384 576.144 759.752 556.557 759.752 539.309C759.752 533.565 759.966 527.813 759.966 522.273C760.598 499.912 761.239 480.966 762.307 465.675C763.589 452.258 770.668 441.607 783.675 433.943C796.467 426.279 809.26 421.807 822.266 420.526C835.272 419.246 845.083 418.615 851.902 418.615C865.337 418.609 878.749 419.749 891.989 422.02C912.883 425.639 931.853 432.022 949.124 441.393C966.18 450.551 978.973 462.26 987.288 476.744C995.77 492.949 1000.14 510.986 999.997 529.269ZM902.598 596.13C910.272 570.577 914.109 550.136 914.109 534.586C914.262 523.692 912.694 512.843 909.464 502.436C902.032 479.435 887.938 465.601 867.035 461.129H865.976C859.148 461.129 853.611 467.512 849.765 480.502C845.714 494.345 842.946 511.594 841.404 532.034C839.917 552.688 839.063 572.915 839.063 593.142V598.709C839.276 620.857 840.131 640.017 841.404 655.994C842.686 671.767 844.191 681.333 846.095 684.098C876.158 651.067 895.138 621.896 902.598 596.13Z" fill="#97BD21"/>
</svg>
