<svg width="1092" height="843" viewBox="0 0 1092 843" fill="none" xmlns="http://www.w3.org/2000/svg">
<path d="M665.979 762.151C665.979 762.151 664.756 766.041 673.864 760.468C682.972 754.894 705.711 750.634 716.465 751.994C727.22 753.354 719.628 727.788 711.645 723.684C703.663 719.579 678.695 737.302 665.979 762.151Z" fill="#F5AE42"/>
<path d="M666.698 761.291C666.698 761.291 664.75 766.041 673.861 760.468C682.971 754.895 705.707 750.635 716.462 751.995C727.217 753.354 719.624 727.788 711.642 723.684C703.659 719.579 679.415 736.442 666.698 761.291Z" fill="#6C174D"/>
<path d="M667.548 763.585C667.069 763.585 666.69 763.471 666.41 763.244C665.552 762.55 666.016 761.196 666.036 761.138C666.042 761.12 666.049 761.103 666.058 761.086C671.902 749.666 679.445 741.304 684.742 736.302C691.454 729.961 698.537 725.285 704.175 723.471C707.429 722.423 710.006 722.369 711.835 723.31C714.734 724.8 717.759 729.063 719.926 734.711C722.05 740.246 722.748 745.692 721.747 748.923C721.025 751.253 719.485 752.464 717.267 752.464C716.981 752.463 716.695 752.445 716.412 752.408C705.345 751.009 682.795 755.491 674.081 760.823C671.062 762.672 668.903 763.585 667.548 763.585ZM666.818 761.439C666.741 761.683 666.618 762.337 666.938 762.594C667.205 762.81 668.483 763.267 673.644 760.109C677.961 757.467 685.551 754.956 694.466 753.219C703.098 751.538 711.34 750.923 716.517 751.576C718.77 751.86 720.263 750.885 720.947 748.673C721.895 745.612 721.205 740.376 719.145 735.009C717.082 729.628 714.133 725.43 711.453 724.052C709.851 723.229 707.423 723.302 704.431 724.265C698.909 726.043 691.941 730.651 685.316 736.908C680.071 741.865 672.606 750.14 666.818 761.441V761.439Z" fill="#6C174D"/>
<path d="M712.208 728.58C710.944 728.289 712.334 727.816 710.658 726.143C708.983 724.471 707.141 725.846 707.141 725.846C707.44 725.235 707.508 724.665 707.186 724.215C705.744 722.194 701.958 723.459 700.572 721.838C699.187 720.217 695.878 721.703 695.878 721.703C695.878 721.703 676.121 733.496 670.465 747.08C664.809 760.663 665.241 764.833 667.699 763.893C670.157 762.953 671.969 760.833 673.769 762.503C675.569 764.173 673.322 767.303 675.498 768.843C676.718 769.707 679.54 768.156 678.183 765.842C676.827 763.528 675.031 759.238 678.073 756.936C681.116 754.635 688.101 753.41 687.688 756.642C686.666 764.653 695.188 761.256 692.539 757.871C690.291 754.996 692.359 749.949 697.372 752.728C701.578 755.06 701.044 751.884 705.193 750.521C708.287 749.504 713.985 749.471 713.985 749.471C717.983 747.123 714.367 745.964 714.367 745.964C714.367 745.964 717.717 743.385 716.877 741.603C716.036 739.822 716.444 737.014 716.518 734.172C716.592 731.33 713.472 728.871 712.208 728.58Z" fill="#FFCC02"/>
<path d="M712.207 728.581C710.943 728.29 712.333 727.817 710.657 726.144C708.982 724.472 707.139 725.847 707.139 725.847C707.439 725.236 707.507 724.666 707.185 724.216C705.743 722.195 701.957 723.46 700.571 721.839C699.186 720.218 695.877 721.704 695.877 721.704C695.877 721.704 695.419 721.979 694.62 722.491C700.801 724.115 713.559 729.324 711.208 747.862C711.208 747.862 686.534 749.632 679.752 753.848C674.874 756.88 669.972 762.579 666.168 763.311C666.44 764.007 666.983 764.167 667.698 763.894C670.156 762.953 671.968 760.834 673.768 762.504C675.568 764.174 673.321 767.304 675.497 768.844C676.717 769.708 679.539 768.157 678.182 765.843C676.826 763.529 675.03 759.239 678.072 756.937C681.115 754.635 688.1 753.411 687.687 756.643C686.665 764.654 695.187 761.257 692.538 757.872C690.29 754.997 692.358 749.95 697.371 752.729C701.577 755.061 701.043 751.885 705.192 750.522C708.286 749.505 713.984 749.472 713.984 749.472C717.982 747.124 714.366 745.965 714.366 745.965C714.366 745.965 717.716 743.386 716.876 741.604C716.035 739.823 716.443 737.015 716.517 734.173C716.591 731.331 713.471 728.872 712.207 728.581Z" fill="#6C174D"/>
<path d="M713.288 729.216C713.415 729.247 713.538 729.288 713.658 729.34C713.353 729.113 713.027 728.916 712.684 728.752C712.712 728.969 712.81 729.106 713.288 729.216Z" fill="white"/>
<path d="M715.482 746.612L715.461 746.592L715.449 746.601L715.482 746.612Z" fill="white"/>
<path d="M708.221 726.481C708.221 726.481 709.3 725.677 710.56 726.05C709.831 725.376 709.077 725.258 708.464 725.337C708.516 725.684 708.421 726.073 708.221 726.481Z" fill="white"/>
<path d="M706.9 723.883C705.65 722.679 703.299 723.032 701.705 722.528C702.786 723.692 705.183 723.279 706.9 723.883Z" fill="white"/>
<path d="M695.878 721.703C695.878 721.703 687.085 726.952 679.552 734.479C679.4 734.592 679.26 734.719 679.131 734.857C679.05 734.946 678.973 735.04 678.902 735.137C675.399 738.736 672.239 742.82 670.465 747.079C665.153 759.836 665.211 764.29 667.273 764.005C666.562 762.362 667.485 757.464 671.545 747.714C673.072 744.047 675.627 740.51 678.543 737.3C678.603 737.411 678.68 737.511 678.772 737.597C679.422 738.197 680.631 737.941 681.477 737.027C682.323 736.112 682.483 734.886 681.837 734.288C681.774 734.231 681.705 734.182 681.631 734.14C688.921 727.139 696.451 721.776 696.451 721.776C696.451 721.776 699.007 721.422 700.555 721.817C699.154 720.232 695.878 721.703 695.878 721.703Z" fill="white"/>
<path d="M676.34 769.506C675.939 769.506 675.56 769.402 675.258 769.187C673.932 768.248 674.013 766.81 674.085 765.54C674.144 764.478 674.201 763.474 673.486 762.81C672.48 761.878 671.515 762.35 669.895 763.264C669.254 763.626 668.59 764 667.849 764.284C666.959 764.625 666.427 764.341 666.138 764.044C664.293 762.144 667.263 753.683 670.079 746.92C673.033 739.823 679.838 733.245 685.027 728.975C690.633 724.362 695.615 721.374 695.665 721.345C695.679 721.336 695.693 721.329 695.708 721.322C695.854 721.256 699.32 719.728 700.891 721.567C701.435 722.202 702.522 722.316 703.673 722.437C705.071 722.583 706.655 722.749 707.528 723.972C707.752 724.286 707.847 724.647 707.813 725.051C708.691 724.773 709.888 724.784 710.955 725.848C711.959 726.849 711.991 727.522 712.01 727.925C712.011 727.976 712.015 728.027 712.022 728.078C712.048 728.094 712.122 728.13 712.303 728.172C713.759 728.506 717.021 731.125 716.941 734.184C716.925 734.812 716.892 735.44 716.861 736.047C716.752 738.148 716.649 740.13 717.26 741.426C718.019 743.037 716.145 744.982 715.156 745.857C715.634 746.124 716.204 746.582 716.28 747.266C716.375 748.116 715.694 748.956 714.2 749.835C714.137 749.872 714.064 749.892 713.991 749.892C713.934 749.892 708.324 749.937 705.327 750.924C703.834 751.414 702.997 752.137 702.258 752.775C700.883 753.962 699.901 754.613 697.171 753.099C695.3 752.062 693.692 752.095 692.757 753.189C691.777 754.335 691.827 756.283 692.872 757.62C693.635 758.599 693.671 759.742 692.964 760.679C692.104 761.816 690.435 762.301 689.164 761.783C688.258 761.414 686.808 760.249 687.274 756.597C687.342 756.068 687.172 755.705 686.739 755.455C685.15 754.535 680.666 755.505 678.325 757.277C675.398 759.493 677.503 763.861 678.544 765.637C679.212 766.778 679.075 767.949 678.178 768.772C677.655 769.249 676.971 769.506 676.34 769.506ZM672.327 761.466C672.908 761.466 673.485 761.668 674.055 762.196C675.06 763.128 674.986 764.435 674.921 765.588C674.853 766.793 674.794 767.833 675.742 768.505C676.196 768.827 677.054 768.665 677.613 768.151C677.962 767.831 678.454 767.133 677.822 766.056C676.668 764.087 674.358 759.224 677.822 756.605C680.229 754.786 685.107 753.537 687.161 754.726C687.889 755.147 688.215 755.83 688.105 756.698C687.812 758.993 688.3 760.522 689.48 761.003C690.401 761.379 691.665 761.003 692.296 760.17C692.573 759.803 692.931 759.05 692.212 758.131C690.932 756.493 690.891 754.082 692.12 752.644C693.319 751.239 695.359 751.135 697.577 752.364C699.935 753.672 700.528 753.159 701.711 752.139C702.47 751.484 703.414 750.669 705.066 750.126C707.981 749.168 713.025 749.066 713.871 749.057C715.307 748.193 715.475 747.626 715.448 747.362C715.393 746.85 714.538 746.461 714.243 746.365C714.171 746.342 714.107 746.299 714.057 746.241C714.007 746.183 713.974 746.114 713.961 746.039C713.948 745.964 713.956 745.887 713.983 745.816C714.01 745.745 714.056 745.683 714.116 745.636C714.915 745.019 717.07 742.988 716.503 741.785C715.802 740.298 715.91 738.213 716.025 736.006C716.056 735.404 716.088 734.781 716.105 734.164C716.171 731.618 713.298 729.261 712.116 728.989C711.357 728.815 711.199 728.495 711.174 727.965C711.159 727.648 711.138 727.213 710.364 726.441C708.971 725.053 707.454 726.136 707.39 726.184C707.315 726.238 707.223 726.265 707.13 726.262C707.038 726.258 706.949 726.224 706.877 726.165C706.806 726.105 706.756 726.024 706.736 725.933C706.716 725.842 706.726 725.748 706.766 725.664C707.148 724.881 706.921 724.564 706.847 724.459C706.193 723.543 704.927 723.41 703.585 723.27C702.322 723.138 701.016 723.001 700.255 722.111C699.294 720.987 696.932 721.696 696.073 722.077C695.717 722.291 690.924 725.206 685.55 729.63C680.438 733.836 673.74 740.307 670.852 747.241C668.782 752.213 667.414 756.197 666.781 759.082C666.068 762.338 666.513 763.228 666.739 763.46C666.801 763.523 666.989 763.716 667.55 763.502C668.234 763.24 668.87 762.881 669.484 762.534C670.421 762.007 671.377 761.466 672.327 761.466Z" fill="#6C174D"/>
<path d="M698.859 749.193C701.25 748.761 703.649 748.374 706.062 748.062C707.268 747.906 708.478 747.77 709.692 747.664C710.907 747.558 712.126 747.482 713.352 747.458C713.4 747.457 713.448 747.466 713.492 747.483C713.537 747.501 713.578 747.527 713.613 747.56C713.647 747.594 713.675 747.634 713.694 747.678C713.714 747.722 713.724 747.769 713.725 747.817C713.726 747.865 713.717 747.913 713.7 747.958C713.682 748.003 713.656 748.044 713.623 748.078C713.589 748.113 713.549 748.141 713.505 748.16C713.461 748.179 713.414 748.19 713.366 748.191H713.346C712.144 748.152 710.935 748.168 709.726 748.212C708.518 748.256 707.308 748.332 706.098 748.426C703.682 748.616 701.268 748.882 698.859 749.193Z" fill="#6C174D"/>
<path d="M706.576 723.671L706.61 723.647L706.593 723.635C706.587 723.647 706.582 723.659 706.576 723.671Z" fill="#6C174D"/>
<path d="M715.959 731.998C715.885 734.84 715.477 737.647 716.317 739.429C716.361 739.523 716.395 739.621 716.417 739.723C716.258 738.112 716.471 736.152 716.523 734.173C716.543 733.389 716.319 732.633 715.958 731.944C715.958 731.964 715.959 731.981 715.959 731.998Z" fill="#6C174D"/>
<path d="M716.451 740.027C716.475 741.736 713.807 743.79 713.807 743.79C713.807 743.79 715.204 744.239 715.299 745.142C716.221 744.236 717.422 742.755 716.88 741.606C716.662 741.143 716.528 740.611 716.451 740.027Z" fill="#6C174D"/>
<path d="M701.197 734.204C704.021 732.378 705.128 729.071 703.671 726.817C702.214 724.564 698.743 724.217 695.919 726.043C693.096 727.869 691.988 731.176 693.445 733.43C694.903 735.684 698.373 736.03 701.197 734.204Z" fill="#E32529"/>
<path d="M699.445 734.92C696.459 735.693 693.838 734.194 693.592 731.571C693.345 728.947 695.567 726.193 698.553 725.421C700.749 724.852 702.747 725.513 703.748 726.946C702.747 725.262 700.532 724.456 698.084 725.09C694.917 725.91 692.561 728.831 692.823 731.613C693.084 734.395 695.863 735.985 699.03 735.165C699.852 734.95 700.631 734.595 701.334 734.116C700.747 734.476 700.111 734.746 699.445 734.92Z" fill="white"/>
<path d="M699.035 726.229L699.726 733.591C701.66 732.745 703.001 730.841 702.829 729.016C702.658 727.192 701.032 726.058 699.035 726.229Z" fill="#BC1824"/>
<path d="M697.303 726.696C695.417 727.561 694.119 729.435 694.288 731.233C694.457 733.032 696.037 734.159 697.993 734.028L697.303 726.696Z" fill="#BC1824"/>
<path d="M697.303 726.696C695.417 727.561 694.119 729.435 694.288 731.233C694.457 733.032 696.037 734.159 697.993 734.028L697.303 726.696Z" fill="#BC1824"/>
<path d="M697.569 729.151C696.951 729.434 696.526 730.049 696.581 730.637C696.636 731.225 697.154 731.596 697.794 731.554L697.569 729.151Z" fill="#E32529"/>
<path d="M699.234 728.72C699.875 728.677 700.393 729.047 700.448 729.637C700.503 730.227 700.078 730.84 699.46 731.123L699.234 728.72Z" fill="#E32529"/>
<path d="M697.389 735.732C696.236 735.732 695.161 735.42 694.299 734.816C693.242 734.074 692.593 732.947 692.47 731.645C692.194 728.702 694.673 725.606 697.996 724.745C699.777 724.283 701.534 724.535 702.817 725.435C703.874 726.177 704.524 727.303 704.646 728.607C704.923 731.551 702.444 734.646 699.12 735.507C698.555 735.655 697.973 735.731 697.389 735.732ZM699.729 725.228C699.204 725.23 698.682 725.299 698.174 725.432C695.174 726.209 692.932 728.966 693.178 731.577C693.28 732.67 693.824 733.613 694.706 734.233C695.818 735.014 697.361 735.226 698.941 734.818C701.941 734.04 704.182 731.283 703.937 728.671C703.834 727.578 703.291 726.634 702.409 726.015C701.668 725.495 700.735 725.227 699.729 725.227V725.228Z" fill="#6C174D"/>
<path d="M696.646 732.417C696.684 732.518 696.715 732.622 696.738 732.728C696.766 732.825 696.778 732.926 696.773 733.027C696.767 733.093 696.735 733.155 696.683 733.198C696.632 733.242 696.566 733.263 696.499 733.258C696.432 733.253 696.37 733.222 696.325 733.172C696.281 733.121 696.258 733.055 696.262 732.988C696.264 732.965 696.269 732.942 696.277 732.92C696.315 732.826 696.367 732.739 696.432 732.663C696.497 732.576 696.569 732.494 696.646 732.417Z" fill="#F4C345"/>
<path d="M695.833 731.677C695.817 731.784 695.793 731.891 695.762 731.995C695.738 732.093 695.7 732.187 695.647 732.273C695.628 732.301 695.605 732.325 695.577 732.344C695.549 732.363 695.517 732.376 695.485 732.383C695.452 732.389 695.418 732.39 695.385 732.383C695.352 732.377 695.32 732.364 695.292 732.345C695.264 732.327 695.24 732.303 695.221 732.275C695.203 732.247 695.189 732.216 695.183 732.183C695.176 732.15 695.176 732.116 695.182 732.083C695.189 732.05 695.202 732.018 695.22 731.99C695.233 731.971 695.249 731.953 695.266 731.938C695.345 731.874 695.434 731.824 695.528 731.788C695.627 731.743 695.729 731.706 695.833 731.677Z" fill="#F4C345"/>
<path d="M695.617 730.491C695.554 730.571 695.485 730.647 695.41 730.717C695.346 730.785 695.27 730.842 695.187 730.885C695.126 730.912 695.057 730.913 694.994 730.89C694.932 730.866 694.881 730.819 694.853 730.759C694.824 730.699 694.82 730.63 694.842 730.567C694.863 730.504 694.909 730.451 694.968 730.421C694.991 730.411 695.016 730.403 695.041 730.399C695.134 730.389 695.229 730.395 695.32 730.416C695.421 730.434 695.52 730.458 695.617 730.491Z" fill="#F4C345"/>
<path d="M696.072 729.278C695.98 729.304 695.885 729.323 695.789 729.334C695.703 729.35 695.614 729.35 695.528 729.334C695.463 729.318 695.406 729.277 695.371 729.22C695.335 729.163 695.324 729.094 695.338 729.029C695.353 728.963 695.392 728.906 695.448 728.869C695.504 728.832 695.573 728.819 695.639 728.832C695.665 728.838 695.691 728.848 695.715 728.862C695.789 728.91 695.853 728.971 695.906 729.042C695.968 729.116 696.023 729.195 696.072 729.278Z" fill="#F4C345"/>
<path d="M697.038 728.463C696.948 728.42 696.862 728.37 696.78 728.314C696.701 728.267 696.632 728.207 696.574 728.137C696.533 728.082 696.515 728.014 696.524 727.947C696.533 727.879 696.569 727.818 696.623 727.777C696.677 727.736 696.746 727.718 696.813 727.727C696.881 727.736 696.942 727.772 696.983 727.826C696.999 727.847 697.012 727.871 697.021 727.895C697.048 727.982 697.06 728.074 697.056 728.165C697.058 728.265 697.052 728.364 697.038 728.463Z" fill="#F4C345"/>
<path d="M700.792 731.334C700.88 731.385 700.964 731.443 701.042 731.507C701.118 731.562 701.184 731.629 701.238 731.706C701.256 731.734 701.268 731.766 701.275 731.799C701.281 731.832 701.28 731.866 701.273 731.899C701.266 731.932 701.252 731.963 701.233 731.991C701.214 732.019 701.189 732.042 701.161 732.06C701.133 732.079 701.101 732.091 701.068 732.097C701.035 732.103 701.001 732.103 700.968 732.096C700.935 732.088 700.903 732.075 700.876 732.056C700.848 732.037 700.824 732.012 700.806 731.984C700.792 731.962 700.782 731.938 700.775 731.914C700.753 731.823 700.747 731.729 700.756 731.636C700.761 731.535 700.773 731.434 700.792 731.334Z" fill="#F4C345"/>
<path d="M701.414 730.207C701.509 730.191 701.605 730.182 701.702 730.18C701.789 730.173 701.877 730.181 701.961 730.206C702.026 730.227 702.08 730.273 702.111 730.334C702.141 730.395 702.147 730.465 702.125 730.53C702.104 730.595 702.058 730.648 701.997 730.679C701.936 730.71 701.866 730.715 701.801 730.694C701.775 730.685 701.75 730.672 701.728 730.656C701.66 730.601 701.602 730.534 701.557 730.458C701.503 730.378 701.455 730.295 701.414 730.207Z" fill="#F4C345"/>
<path d="M701.4 728.954C701.467 728.879 701.539 728.81 701.615 728.747C701.683 728.684 701.76 728.634 701.845 728.598C701.908 728.576 701.977 728.58 702.037 728.608C702.098 728.636 702.145 728.687 702.169 728.749C702.193 728.811 702.192 728.88 702.165 728.942C702.139 729.003 702.09 729.052 702.029 729.078C702.004 729.087 701.978 729.093 701.952 729.094C701.861 729.096 701.771 729.082 701.685 729.053C701.588 729.028 701.492 728.994 701.4 728.954Z" fill="#F4C345"/>
<path d="M700.754 728.011C700.773 727.906 700.8 727.803 700.835 727.702C700.862 727.607 700.904 727.516 700.959 727.434C700.981 727.405 701.009 727.38 701.041 727.362C701.073 727.344 701.108 727.333 701.145 727.33C701.181 727.327 701.218 727.332 701.253 727.344C701.287 727.356 701.319 727.376 701.345 727.401C701.371 727.427 701.392 727.458 701.405 727.492C701.419 727.526 701.424 727.563 701.422 727.599C701.42 727.636 701.411 727.672 701.394 727.704C701.377 727.737 701.353 727.765 701.324 727.788C701.244 727.846 701.155 727.891 701.06 727.92C700.961 727.958 700.858 727.988 700.754 728.011Z" fill="#F4C345"/>
<path d="M699.703 727.712C699.669 727.609 699.642 727.503 699.623 727.396C699.6 727.298 699.593 727.196 699.601 727.095C699.611 727.03 699.646 726.97 699.699 726.93C699.752 726.89 699.818 726.872 699.884 726.88C699.95 726.887 700.01 726.92 700.052 726.972C700.094 727.023 700.115 727.089 700.11 727.155C700.107 727.178 700.101 727.201 700.092 727.222C700.051 727.315 699.995 727.4 699.927 727.474C699.858 727.559 699.784 727.638 699.703 727.712Z" fill="#F4C345"/>
<path d="M699.726 733.948C699.637 733.948 699.552 733.915 699.487 733.855C699.421 733.796 699.381 733.714 699.372 733.626L698.681 726.264C698.677 726.217 698.682 726.17 698.696 726.125C698.71 726.08 698.732 726.039 698.762 726.003C698.792 725.967 698.829 725.937 698.871 725.915C698.912 725.894 698.958 725.88 699.004 725.876C701.239 725.683 702.995 726.991 703.183 728.985C703.365 730.924 701.971 732.998 699.869 733.918C699.824 733.938 699.775 733.948 699.726 733.948ZM699.423 726.568L700.031 733.045C701.608 732.17 702.616 730.556 702.476 729.051C702.337 727.571 701.08 726.568 699.429 726.568H699.423Z" fill="#BC1824"/>
<path d="M697.69 734.391C695.666 734.391 694.112 733.117 693.938 731.265C693.757 729.337 695.082 727.325 697.159 726.373C697.211 726.349 697.267 726.339 697.324 726.341C697.381 726.344 697.436 726.36 697.485 726.389C697.534 726.417 697.576 726.457 697.606 726.504C697.637 726.552 697.656 726.606 697.661 726.663L698.348 733.992C698.353 734.04 698.348 734.087 698.334 734.133C698.319 734.178 698.296 734.22 698.266 734.256C698.235 734.292 698.197 734.322 698.155 734.343C698.112 734.365 698.066 734.377 698.019 734.38C697.907 734.388 697.797 734.391 697.69 734.391ZM697.002 727.254C695.478 728.139 694.506 729.732 694.644 731.198C694.782 732.665 695.978 733.65 697.604 733.681L697.002 727.254Z" fill="#BC1824"/>
<path d="M688.335 747.067C690.976 745.359 692.012 742.265 690.649 740.157C689.285 738.049 686.039 737.725 683.398 739.433C680.756 741.141 679.72 744.234 681.084 746.342C682.447 748.451 685.693 748.775 688.335 747.067Z" fill="#E32529"/>
<path d="M686.695 747.735C683.902 748.461 681.45 747.056 681.22 744.603C680.99 742.15 683.067 739.572 685.861 738.849C687.915 738.316 689.784 738.935 690.721 740.275C689.784 738.7 687.712 737.945 685.422 738.539C682.46 739.306 680.257 742.038 680.501 744.639C680.745 747.241 683.345 748.729 686.307 747.962C687.076 747.761 687.805 747.429 688.462 746.981C687.913 747.318 687.318 747.572 686.695 747.735Z" fill="white"/>
<path d="M686.311 739.608L686.956 746.495C688.765 745.704 690.019 743.922 689.859 742.217C689.699 740.512 688.178 739.445 686.311 739.608Z" fill="#BC1824"/>
<path d="M684.69 740.043C682.925 740.852 681.711 742.604 681.869 744.285C682.028 745.966 683.505 747.022 685.334 746.9L684.69 740.043Z" fill="#BC1824"/>
<path d="M684.69 740.043C682.925 740.852 681.711 742.604 681.869 744.285C682.028 745.966 683.505 747.022 685.334 746.9L684.69 740.043Z" fill="#BC1824"/>
<path d="M684.939 742.341C684.36 742.606 683.963 743.181 684.014 743.731C684.066 744.28 684.549 744.628 685.149 744.587L684.939 742.341Z" fill="#E32529"/>
<path d="M686.498 741.937C687.097 741.897 687.581 742.242 687.633 742.793C687.684 743.344 687.287 743.918 686.709 744.183L686.498 741.937Z" fill="#E32529"/>
<path d="M684.77 748.53C683.685 748.53 682.672 748.236 681.86 747.667C680.863 746.967 680.251 745.905 680.135 744.675C679.875 741.906 682.205 738.994 685.33 738.184C687.005 737.75 688.659 737.987 689.867 738.834C690.864 739.533 691.477 740.595 691.592 741.825C691.852 744.595 689.522 747.506 686.398 748.316C685.866 748.456 685.319 748.528 684.77 748.53ZM686.959 738.704C686.471 738.706 685.985 738.77 685.513 738.895C682.722 739.618 680.636 742.18 680.864 744.608C680.959 745.621 681.462 746.494 682.281 747.069C683.312 747.795 684.747 747.99 686.215 747.61C689.006 746.887 691.092 744.325 690.864 741.897C690.769 740.884 690.265 740.01 689.447 739.436C688.759 738.952 687.893 738.704 686.959 738.704Z" fill="#6C174D"/>
<path d="M684.587 745.503C684.64 745.582 684.688 745.665 684.73 745.751C684.774 745.83 684.805 745.914 684.824 746.002C684.829 746.029 684.829 746.057 684.823 746.084C684.817 746.112 684.806 746.137 684.791 746.16C684.775 746.183 684.755 746.202 684.732 746.217C684.708 746.232 684.682 746.243 684.655 746.248C684.628 746.253 684.6 746.252 684.573 746.247C684.546 746.241 684.52 746.23 684.497 746.214C684.475 746.198 684.455 746.178 684.44 746.155C684.425 746.132 684.415 746.106 684.41 746.079C684.407 746.062 684.406 746.044 684.407 746.027C684.416 745.938 684.438 745.85 684.472 745.767C684.504 745.676 684.543 745.588 684.587 745.503Z" fill="#F4C345"/>
<path d="M683.638 745.122C683.642 745.222 683.64 745.322 683.631 745.421C683.627 745.515 683.61 745.609 683.58 745.698C683.571 745.724 683.556 745.748 683.537 745.769C683.519 745.789 683.496 745.805 683.471 745.817C683.446 745.829 683.419 745.835 683.391 745.836C683.363 745.837 683.336 745.833 683.31 745.823C683.284 745.814 683.26 745.799 683.24 745.78C683.219 745.762 683.203 745.739 683.191 745.714C683.18 745.689 683.173 745.662 683.172 745.634C683.171 745.606 683.175 745.579 683.185 745.553C683.19 745.538 683.198 745.523 683.207 745.509C683.262 745.432 683.327 745.364 683.4 745.305C683.475 745.238 683.555 745.177 683.638 745.122Z" fill="#F4C345"/>
<path d="M683.136 744.177C683.094 744.263 683.046 744.347 682.992 744.427C682.945 744.504 682.887 744.574 682.82 744.635C682.799 744.655 682.775 744.669 682.748 744.679C682.721 744.688 682.693 744.692 682.664 744.69C682.636 744.689 682.608 744.681 682.583 744.669C682.558 744.656 682.535 744.638 682.517 744.616C682.499 744.595 682.485 744.57 682.476 744.543C682.468 744.516 682.465 744.487 682.468 744.459C682.471 744.431 682.479 744.403 682.493 744.378C682.507 744.354 682.525 744.332 682.547 744.314C682.56 744.303 682.575 744.294 682.59 744.286C682.673 744.248 682.76 744.222 682.85 744.21C682.944 744.192 683.04 744.181 683.136 744.177Z" fill="#F4C345"/>
<path d="M683.25 743.002C683.174 743.049 683.095 743.09 683.012 743.124C682.938 743.161 682.858 743.186 682.776 743.198C682.721 743.203 682.665 743.187 682.621 743.152C682.578 743.116 682.55 743.065 682.544 743.01C682.538 742.954 682.555 742.898 682.59 742.855C682.625 742.811 682.676 742.783 682.732 742.777C682.751 742.775 682.77 742.775 682.789 742.777C682.87 742.794 682.948 742.823 683.02 742.864C683.1 742.904 683.177 742.95 683.25 743.002Z" fill="#F4C345"/>
<path d="M683.948 742.009C683.861 741.997 683.775 741.978 683.691 741.952C683.613 741.933 683.537 741.901 683.468 741.858C683.424 741.826 683.394 741.778 683.384 741.723C683.375 741.669 683.387 741.613 683.417 741.568C683.448 741.523 683.496 741.491 683.55 741.48C683.604 741.469 683.66 741.479 683.706 741.509C683.722 741.52 683.736 741.533 683.749 741.547C683.798 741.612 683.837 741.683 683.864 741.76C683.898 741.841 683.926 741.924 683.948 742.009Z" fill="#F4C345"/>
<path d="M687.954 744.382C688.031 744.433 688.104 744.49 688.173 744.551C688.239 744.606 688.298 744.67 688.346 744.742C688.361 744.768 688.371 744.796 688.374 744.826C688.378 744.856 688.375 744.886 688.366 744.914C688.357 744.943 688.342 744.969 688.323 744.991C688.303 745.013 688.278 745.031 688.251 745.043C688.224 745.056 688.195 745.062 688.165 745.062C688.135 745.062 688.106 745.056 688.078 745.043C688.051 745.031 688.027 745.013 688.007 744.991C687.987 744.969 687.973 744.942 687.964 744.914C687.942 744.831 687.932 744.744 687.937 744.658C687.936 744.566 687.942 744.473 687.954 744.382Z" fill="#F4C345"/>
<path d="M688.535 743.327C688.622 743.318 688.709 743.314 688.796 743.317C688.877 743.316 688.957 743.327 689.034 743.351C689.087 743.369 689.13 743.408 689.155 743.459C689.179 743.509 689.182 743.568 689.163 743.62C689.144 743.673 689.105 743.716 689.055 743.741C689.004 743.765 688.946 743.768 688.893 743.749C688.875 743.743 688.858 743.734 688.842 743.722C688.778 743.673 688.722 743.614 688.677 743.547C688.624 743.477 688.577 743.404 688.535 743.327Z" fill="#F4C345"/>
<path d="M688.521 742.155C688.585 742.091 688.654 742.032 688.727 741.978C688.791 741.925 688.864 741.883 688.942 741.852C688.97 741.841 689 741.837 689.03 741.84C689.06 741.842 689.09 741.851 689.116 741.865C689.142 741.88 689.165 741.9 689.183 741.924C689.201 741.948 689.214 741.976 689.22 742.005C689.227 742.035 689.227 742.065 689.22 742.095C689.214 742.124 689.201 742.152 689.183 742.176C689.165 742.2 689.142 742.22 689.116 742.235C689.09 742.25 689.06 742.258 689.03 742.261C688.946 742.264 688.862 742.255 688.781 742.233C688.693 742.213 688.606 742.187 688.521 742.155Z" fill="#F4C345"/>
<path d="M687.918 741.273C687.941 741.179 687.971 741.086 688.007 740.996C688.036 740.909 688.078 740.827 688.13 740.753C688.165 740.71 688.214 740.683 688.269 740.676C688.323 740.67 688.378 740.685 688.422 740.718C688.465 740.751 688.494 740.8 688.502 740.854C688.511 740.908 688.498 740.963 688.466 741.008C688.456 741.022 688.444 741.034 688.431 741.046C688.358 741.101 688.277 741.145 688.192 741.177C688.103 741.216 688.011 741.248 687.918 741.273Z" fill="#F4C345"/>
<path d="M686.935 740.993C686.909 740.898 686.89 740.8 686.877 740.702C686.86 740.61 686.857 740.516 686.867 740.423C686.869 740.395 686.878 740.368 686.892 740.343C686.905 740.318 686.924 740.296 686.946 740.279C686.968 740.261 686.994 740.248 687.021 740.241C687.048 740.233 687.077 740.232 687.105 740.235C687.133 740.239 687.16 740.249 687.185 740.263C687.209 740.278 687.23 740.297 687.247 740.32C687.263 740.343 687.275 740.369 687.282 740.396C687.288 740.424 687.289 740.453 687.284 740.481C687.282 740.497 687.277 740.513 687.272 740.528C687.235 740.614 687.186 740.695 687.127 740.767C687.068 740.847 687.004 740.922 686.935 740.993Z" fill="#F4C345"/>
<path d="M686.955 746.862C686.864 746.862 686.776 746.827 686.709 746.766C686.641 746.705 686.599 746.62 686.59 746.53L685.945 739.643C685.94 739.594 685.946 739.546 685.96 739.5C685.974 739.454 685.998 739.411 686.029 739.374C686.059 739.337 686.097 739.306 686.14 739.284C686.183 739.261 686.23 739.248 686.278 739.243C688.386 739.061 690.046 740.297 690.223 742.182C690.395 744.009 689.083 745.963 687.103 746.831C687.056 746.851 687.006 746.862 686.955 746.862ZM686.709 739.959L687.27 745.928C688.707 745.11 689.622 743.63 689.493 742.25C689.367 740.893 688.22 739.972 686.71 739.959H686.709Z" fill="#BC1824"/>
<path d="M685.048 747.276C683.139 747.276 681.67 746.071 681.506 744.321C681.335 742.503 682.582 740.608 684.538 739.711C684.591 739.687 684.65 739.675 684.708 739.678C684.766 739.681 684.823 739.698 684.874 739.727C684.924 739.756 684.967 739.797 684.999 739.846C685.031 739.895 685.05 739.951 685.055 740.01L685.699 746.866C685.704 746.915 685.699 746.964 685.684 747.011C685.669 747.057 685.645 747.101 685.614 747.138C685.582 747.175 685.543 747.206 685.5 747.227C685.456 747.249 685.408 747.262 685.359 747.266C685.254 747.273 685.151 747.276 685.048 747.276ZM684.377 740.622C682.99 741.45 682.109 742.908 682.235 744.251C682.361 745.593 683.449 746.499 684.934 746.542L684.377 740.622Z" fill="#BC1824"/>
<path d="M678.361 742.508C674.493 742.667 674.417 744.628 675.645 747.655C677.969 746.684 679.507 744.978 678.361 742.508Z" fill="#5BB25B"/>
<path d="M675.552 748.332C675.476 748.332 675.402 748.308 675.339 748.264C675.277 748.219 675.231 748.156 675.206 748.084C674.615 746.356 674.182 744.595 675.007 743.415C675.58 742.594 676.676 742.177 678.355 742.142C678.424 742.14 678.492 742.158 678.552 742.193C678.611 742.229 678.659 742.281 678.689 742.343C679.178 743.313 679.262 744.273 678.941 745.197C678.511 746.432 677.362 747.533 675.706 748.298C675.658 748.32 675.605 748.332 675.552 748.332ZM678.133 742.883C676.841 742.942 676.013 743.255 675.607 743.836C675.024 744.67 675.327 746.094 675.767 747.453C677.027 746.794 677.921 745.898 678.249 744.958C678.481 744.291 678.442 743.594 678.133 742.883Z" fill="#651946"/>
<path d="M678.48 742.855C678.22 742.974 677.977 743.126 677.756 743.307C677.517 743.502 677.298 743.721 677.102 743.959C676.699 744.452 676.362 745.025 676.084 745.651C676.087 745.303 676.134 744.958 676.224 744.622C676.314 744.279 676.442 743.947 676.606 743.633C676.773 743.305 676.991 743.005 677.252 742.746C677.522 742.485 677.858 742.26 678.245 742.161C678.333 742.139 678.426 742.152 678.506 742.195C678.585 742.238 678.646 742.309 678.677 742.394C678.707 742.479 678.705 742.573 678.67 742.657C678.636 742.741 678.572 742.809 678.49 742.848L678.48 742.855Z" fill="#651B47"/>
<path d="M685.365 731.95C688.79 730.144 689.841 731.802 690.299 735.035C687.803 735.364 685.616 734.662 685.365 731.95Z" fill="#5BB25B"/>
<path d="M689.735 735.664C688.284 735.664 687.053 735.285 686.217 734.568C685.474 733.931 685.065 733.058 685.001 731.973C684.996 731.904 685.012 731.836 685.045 731.775C685.079 731.715 685.128 731.665 685.189 731.632C686.658 730.819 687.814 730.629 688.723 731.051C690.029 731.656 690.54 733.397 690.897 735.188C690.907 735.238 690.906 735.29 690.895 735.34C690.884 735.39 690.862 735.437 690.832 735.478C690.801 735.519 690.762 735.553 690.717 735.579C690.672 735.604 690.623 735.619 690.572 735.624C690.286 735.651 690.007 735.664 689.735 735.664ZM685.752 732.159C685.844 732.93 686.16 733.552 686.694 734.01C687.45 734.66 688.675 734.983 690.094 734.921C689.79 733.525 689.337 732.141 688.413 731.713C687.771 731.415 686.899 731.561 685.752 732.159Z" fill="#651946"/>
<path d="M685.292 731.592C685.677 731.483 686.081 731.509 686.445 731.599C686.801 731.692 687.14 731.841 687.449 732.041C687.748 732.231 688.025 732.453 688.275 732.705C688.522 732.951 688.736 733.226 688.913 733.526C688.382 733.132 687.801 732.812 687.185 732.573C686.896 732.465 686.597 732.386 686.293 732.337C686.011 732.291 685.725 732.282 685.441 732.31H685.428C685.336 732.319 685.245 732.293 685.172 732.238C685.098 732.182 685.048 732.102 685.032 732.012C685.015 731.922 685.032 731.828 685.081 731.75C685.129 731.673 685.205 731.616 685.293 731.591L685.292 731.592Z" fill="#651B47"/>
<path d="M700.593 744.12C697.94 741.661 696.589 742.901 695.393 745.71C697.566 746.61 699.709 746.506 700.593 744.12Z" fill="#5BB25B"/>
<path d="M697.413 746.645C696.669 746.645 695.852 746.487 695.004 746.172C694.959 746.156 694.918 746.13 694.884 746.096C694.85 746.063 694.823 746.022 694.805 745.978C694.788 745.933 694.78 745.886 694.782 745.838C694.784 745.79 694.796 745.743 694.817 745.7C695.573 744.172 696.455 742.724 697.781 742.492C698.703 742.33 699.7 742.783 700.829 743.872C700.875 743.917 700.908 743.974 700.923 744.037C700.939 744.099 700.936 744.165 700.916 744.227C700.595 745.189 700.014 745.878 699.19 746.273C698.673 746.522 698.07 746.645 697.413 746.645ZM695.606 745.656C696.872 746.056 698.055 746.059 698.894 745.656C699.487 745.372 699.925 744.887 700.193 744.213C699.303 743.396 698.55 743.053 697.898 743.166C696.963 743.33 696.217 744.47 695.606 745.656Z" fill="#651946"/>
<path d="M700.439 744.425C700.19 744.332 699.929 744.271 699.664 744.243C699.377 744.214 699.088 744.213 698.802 744.24C698.187 744.306 697.585 744.454 697.01 744.68C697.242 744.453 697.502 744.256 697.784 744.095C698.07 743.928 698.374 743.795 698.69 743.696C699.017 743.59 699.359 743.538 699.703 743.54C700.054 743.547 700.424 743.622 700.746 743.814C700.817 743.858 700.87 743.928 700.893 744.009C700.917 744.09 700.91 744.177 700.873 744.254C700.837 744.33 700.774 744.39 700.696 744.422C700.617 744.455 700.53 744.457 700.45 744.43L700.439 744.425Z" fill="#651B47"/>
<path d="M670.335 750.331C670.544 750.343 670.741 750.361 670.946 750.384C671.151 750.406 671.35 750.434 671.554 750.471C671.763 750.505 671.97 750.552 672.174 750.61C672.385 750.675 672.598 750.742 672.835 750.888L672.862 750.905C672.919 750.94 672.968 750.986 673.008 751.04C673.047 751.094 673.075 751.156 673.09 751.221C673.106 751.286 673.108 751.353 673.098 751.419C673.087 751.485 673.063 751.549 673.028 751.606C672.993 751.663 672.947 751.712 672.893 751.751C672.839 751.79 672.777 751.819 672.712 751.834C672.647 751.849 672.58 751.852 672.514 751.841C672.447 751.831 672.384 751.807 672.327 751.772C672.3 751.755 672.274 751.735 672.251 751.714C672.165 751.635 672.012 751.551 671.857 751.48C671.692 751.405 671.523 751.339 671.351 751.283C671.174 751.225 670.993 751.171 670.809 751.123C670.625 751.075 670.437 751.029 670.257 750.992H670.249C670.166 750.976 670.091 750.929 670.042 750.86C669.992 750.791 669.97 750.706 669.981 750.621C669.992 750.537 670.035 750.46 670.101 750.406C670.166 750.352 670.25 750.325 670.335 750.331Z" fill="#5BB25B"/>
<path d="M670.335 750.331C670.544 750.343 670.741 750.361 670.946 750.384C671.151 750.406 671.35 750.434 671.554 750.471C671.763 750.505 671.97 750.552 672.174 750.61C672.385 750.675 672.598 750.742 672.835 750.888L672.862 750.905C672.919 750.94 672.968 750.986 673.008 751.04C673.047 751.094 673.075 751.156 673.09 751.221C673.106 751.286 673.108 751.353 673.098 751.419C673.087 751.485 673.063 751.549 673.028 751.606C672.993 751.663 672.947 751.712 672.893 751.751C672.839 751.79 672.777 751.819 672.712 751.834C672.647 751.849 672.58 751.852 672.514 751.841C672.447 751.831 672.384 751.807 672.327 751.772C672.3 751.755 672.274 751.735 672.251 751.714C672.165 751.635 672.012 751.551 671.857 751.48C671.692 751.405 671.523 751.339 671.351 751.283C671.174 751.225 670.993 751.171 670.809 751.123C670.625 751.075 670.437 751.029 670.257 750.992H670.249C670.166 750.976 670.091 750.929 670.042 750.86C669.992 750.791 669.97 750.706 669.981 750.621C669.992 750.537 670.035 750.46 670.101 750.406C670.166 750.352 670.25 750.325 670.335 750.331Z" fill="#6C174D"/>
<path d="M672.594 752.139C672.446 752.139 672.301 752.098 672.175 752.02C672.133 751.994 672.093 751.964 672.055 751.93C672.034 751.911 671.954 751.845 671.735 751.745C671.58 751.674 671.42 751.613 671.257 751.561C671.09 751.505 670.913 751.452 670.733 751.405C670.553 751.358 670.363 751.313 670.196 751.278C670.04 751.248 669.902 751.159 669.808 751.031C669.715 750.902 669.675 750.743 669.694 750.586C669.714 750.428 669.793 750.284 669.915 750.183C670.036 750.081 670.192 750.029 670.351 750.038C670.554 750.05 670.753 750.067 670.976 750.092C671.19 750.116 671.4 750.146 671.603 750.182C671.822 750.219 672.039 750.268 672.252 750.33C672.501 750.406 672.726 750.48 672.984 750.639L673.011 750.656C673.159 750.748 673.272 750.886 673.335 751.048C673.398 751.21 673.406 751.388 673.358 751.555C673.311 751.723 673.211 751.87 673.072 751.975C672.934 752.081 672.765 752.138 672.591 752.139H672.594ZM670.317 750.621C670.307 750.621 670.298 750.624 670.29 750.631C670.283 750.637 670.277 750.645 670.276 750.655C670.273 750.666 670.276 750.677 670.282 750.687C670.285 750.691 670.289 750.695 670.293 750.698C670.298 750.701 670.303 750.704 670.308 750.705C670.494 750.743 670.69 750.789 670.884 750.841C671.077 750.892 671.266 750.947 671.443 751.006C671.625 751.065 671.804 751.135 671.978 751.215C672.189 751.311 672.347 751.405 672.447 751.498C672.457 751.507 672.468 751.516 672.48 751.524C672.529 751.551 672.587 751.559 672.642 751.545C672.696 751.531 672.743 751.496 672.773 751.448C672.802 751.4 672.812 751.342 672.799 751.287C672.787 751.232 672.754 751.184 672.707 751.153L672.68 751.137C672.481 751.014 672.301 750.954 672.086 750.889C671.894 750.834 671.699 750.79 671.502 750.757C671.308 750.723 671.116 750.695 670.912 750.672C670.699 750.648 670.509 750.634 670.317 750.621Z" fill="#651946"/>
<path d="M670.799 750.727C669.619 746.411 664.66 749.931 664.66 749.931C664.66 749.931 668.558 754.598 670.799 750.727Z" fill="#5BB25B"/>
<path d="M670.773 750.771C670.782 750.756 670.791 750.742 670.799 750.727C669.619 746.411 664.66 749.931 664.66 749.931C664.66 749.931 664.793 750.09 665.023 750.324C665.953 749.733 669.543 747.708 670.773 750.771Z" fill="white"/>
<path d="M668.466 752.554C666.321 752.554 664.171 750.229 664.076 750.125C664.048 750.094 664.027 750.057 664.014 750.017C664.001 749.977 663.997 749.934 664.002 749.892C664.007 749.85 664.022 749.81 664.044 749.774C664.066 749.738 664.096 749.708 664.131 749.684C664.255 749.603 667.201 747.684 669.312 748.479C670.181 748.806 670.777 749.537 671.081 750.65C671.091 750.687 671.094 750.726 671.089 750.764C671.084 750.803 671.071 750.84 671.052 750.873C670.471 751.877 669.704 752.437 668.772 752.538C668.67 752.549 668.568 752.554 668.466 752.554ZM664.76 749.987C665.4 750.607 667.146 752.126 668.71 751.958C669.414 751.882 670.011 751.454 670.484 750.687C670.224 749.831 669.761 749.274 669.107 749.026C667.634 748.47 665.539 749.537 664.76 749.987Z" fill="#651946"/>
<path d="M670.76 751.016C670.481 751 670.202 750.967 669.927 750.917C669.65 750.871 669.377 750.808 669.103 750.746C668.555 750.618 668.009 750.478 667.469 750.295C668.038 750.257 668.602 750.26 669.163 750.276C669.444 750.285 669.725 750.294 670.004 750.32C670.283 750.342 670.56 750.38 670.835 750.435C670.907 750.45 670.971 750.492 671.013 750.553C671.055 750.613 671.074 750.687 671.064 750.76C671.054 750.833 671.018 750.9 670.961 750.947C670.904 750.994 670.832 751.018 670.759 751.014L670.76 751.016Z" fill="#651B47"/>
<path d="M668.363 752.552C668.738 752.221 669.116 751.892 669.499 751.566C669.881 751.242 670.267 750.92 670.67 750.608C670.732 750.566 670.808 750.549 670.882 750.56C670.956 750.572 671.023 750.612 671.069 750.671C671.115 750.731 671.136 750.806 671.128 750.88C671.12 750.955 671.084 751.024 671.027 751.073C671.012 751.084 670.997 751.094 670.98 751.102H670.978C670.538 751.322 670.1 751.561 669.664 751.805C669.228 752.05 668.795 752.299 668.363 752.552Z" fill="#651946"/>
<path d="M670.813 750.782C670.813 750.782 668.296 750.935 667.719 755.291C667.719 755.291 672.861 753.655 670.813 750.782Z" fill="#5BB25B"/>
<path d="M668.443 754.888C668.915 751.316 670.95 751.13 671.023 751.124C670.959 751.006 670.889 750.892 670.811 750.783C670.811 750.783 668.294 750.936 667.717 755.292C667.717 755.292 668.824 754.94 669.806 754.275C669.372 754.522 668.916 754.727 668.443 754.888Z" fill="white"/>
<path d="M667.72 755.584C667.678 755.584 667.637 755.575 667.599 755.558C667.561 755.541 667.528 755.516 667.5 755.485C667.473 755.453 667.452 755.417 667.44 755.377C667.428 755.337 667.425 755.295 667.43 755.254C668.031 750.711 670.683 750.499 670.795 750.492C670.845 750.489 670.894 750.498 670.939 750.52C670.984 750.541 671.022 750.574 671.051 750.614C671.569 751.34 671.712 752.065 671.478 752.768C670.876 754.576 667.933 755.531 667.808 755.571C667.78 755.58 667.75 755.584 667.72 755.584ZM670.675 751.101C670.171 751.215 668.627 751.809 668.084 754.846C668.895 754.519 670.543 753.728 670.925 752.583C671.084 752.105 671.002 751.619 670.675 751.101Z" fill="#651946"/>
<path d="M669.393 752.681C669.577 752.328 669.768 751.977 669.966 751.629C670.164 751.281 670.364 750.936 670.594 750.592C670.638 750.528 670.705 750.483 670.782 750.467C670.858 750.452 670.938 750.468 671.003 750.512C671.067 750.555 671.112 750.623 671.127 750.699C671.143 750.776 671.127 750.855 671.083 750.92C671.069 750.94 671.054 750.958 671.036 750.975C670.751 751.232 670.473 751.516 670.2 751.803C669.928 752.089 669.657 752.384 669.393 752.681Z" fill="#651946"/>
<path d="M670.792 750.771C670.792 750.771 668.445 749.848 669.244 745.526C669.244 745.526 673.625 748.671 670.792 750.771Z" fill="#5BB25B"/>
<path d="M669.923 746.087C669.706 745.889 669.478 745.702 669.242 745.526C668.443 749.848 670.79 750.771 670.79 750.771C670.824 750.745 670.857 750.719 670.889 750.694C670.421 750.349 669.208 749.128 669.923 746.087Z" fill="white"/>
<path d="M670.791 751.062C670.755 751.062 670.719 751.055 670.685 751.042C670.58 751.001 668.126 749.98 668.957 745.473C668.965 745.424 668.986 745.379 669.018 745.341C669.049 745.303 669.089 745.273 669.135 745.254C669.181 745.236 669.23 745.23 669.279 745.236C669.328 745.242 669.375 745.26 669.415 745.289C669.521 745.365 672.025 747.183 672.039 749.088C672.045 749.829 671.684 750.474 670.966 751.005C670.916 751.042 670.854 751.063 670.791 751.062ZM669.452 746.064C669.03 749.119 670.314 750.162 670.758 750.426C671.23 750.034 671.458 749.597 671.454 749.094C671.445 747.887 670.122 746.626 669.452 746.064Z" fill="#651946"/>
<path d="M670.027 748.526C670.187 748.891 670.353 749.252 670.524 749.611C670.695 749.967 670.871 750.324 671.062 750.657C671.098 750.724 671.107 750.803 671.086 750.876C671.065 750.95 671.016 751.012 670.95 751.05C670.884 751.088 670.805 751.099 670.731 751.081C670.657 751.062 670.593 751.016 670.553 750.951C670.541 750.929 670.531 750.907 670.524 750.884C670.412 750.486 670.328 750.096 670.247 749.703C670.166 749.311 670.094 748.918 670.027 748.526Z" fill="#651946"/>
<path d="M666.345 762.573C666.352 762.588 666.362 762.601 666.375 762.611C666.395 762.625 666.417 762.635 666.441 762.639C666.534 762.657 666.63 762.657 666.724 762.639C666.95 762.605 667.2 762.519 667.443 762.417C667.932 762.21 668.413 761.938 668.883 761.65C669.822 761.068 670.729 760.414 671.615 759.734C672.5 759.055 673.363 758.34 674.206 757.604C674.417 757.42 674.626 757.235 674.834 757.047C675.044 756.86 675.244 756.671 675.462 756.482C675.57 756.388 675.675 756.291 675.784 756.199L676.117 755.932L676.284 755.798L676.456 755.671L676.8 755.416C678.661 754.101 680.723 753.12 682.85 752.366C683.913 751.986 684.992 751.66 686.087 751.388C687.179 751.11 688.284 750.889 689.398 750.728C687.197 751.175 685.038 751.809 682.945 752.622C681.902 753.029 680.882 753.49 679.889 754.006C678.903 754.521 677.958 755.111 677.062 755.771L676.734 756.026L676.57 756.154L676.411 756.288L676.094 756.555C675.991 756.647 675.89 756.742 675.789 756.835C675.585 757.019 675.382 757.221 675.177 757.413C674.973 757.605 674.765 757.8 674.557 757.99C673.724 758.754 672.869 759.493 671.991 760.206C671.11 760.916 670.209 761.604 669.244 762.22C668.761 762.526 668.266 762.82 667.724 763.061C667.45 763.179 667.168 763.29 666.839 763.346C666.655 763.381 666.467 763.381 666.283 763.346C666.169 763.321 666.06 763.275 665.963 763.21C665.86 763.139 665.774 763.046 665.712 762.938C665.665 762.854 665.654 762.755 665.679 762.663C665.705 762.571 665.765 762.492 665.848 762.444C665.931 762.396 666.029 762.382 666.122 762.405C666.215 762.429 666.295 762.487 666.345 762.569V762.573Z" fill="#6C174D"/>
<path d="M708.889 745.726C709.202 745.645 709.407 745.394 709.348 745.166C709.289 744.938 708.988 744.818 708.675 744.899C708.363 744.98 708.157 745.231 708.217 745.459C708.276 745.688 708.577 745.807 708.889 745.726Z" fill="#6C174D"/>
<path d="M706.266 744.492C706.774 744.36 707.108 743.952 707.012 743.581C706.916 743.21 706.426 743.016 705.918 743.147C705.41 743.279 705.076 743.687 705.172 744.058C705.268 744.429 705.758 744.623 706.266 744.492Z" fill="#6C174D"/>
<path d="M700.222 740.304C700.605 740.159 700.823 739.798 700.709 739.498C700.596 739.197 700.193 739.07 699.81 739.215C699.428 739.359 699.209 739.72 699.323 740.021C699.436 740.322 699.839 740.448 700.222 740.304Z" fill="#6C174D"/>
<path d="M707.18 733.042C707.444 732.942 707.595 732.692 707.517 732.484C707.438 732.276 707.16 732.189 706.895 732.289C706.631 732.389 706.48 732.638 706.558 732.846C706.637 733.054 706.915 733.142 707.18 733.042Z" fill="#6C174D"/>
<path d="M708.123 738.412C708.424 738.299 708.596 738.015 708.507 737.779C708.417 737.543 708.101 737.443 707.8 737.557C707.5 737.671 707.328 737.954 707.417 738.19C707.507 738.427 707.823 738.526 708.123 738.412Z" fill="#6C174D"/>
<path d="M702.427 736.155C702.501 736.349 702.36 736.583 702.111 736.677C701.863 736.77 701.603 736.688 701.529 736.493C701.456 736.299 701.597 736.065 701.845 735.971C702.093 735.878 702.354 735.96 702.427 736.155Z" fill="#6C174D"/>
<path d="M694.05 743.267C694.286 743.096 694.37 742.807 694.235 742.621C694.101 742.435 693.8 742.422 693.564 742.593C693.327 742.764 693.244 743.053 693.378 743.239C693.512 743.426 693.813 743.438 694.05 743.267Z" fill="#6C174D"/>
<path d="M695.226 738.209C695.461 738.04 695.543 737.753 695.41 737.568C695.277 737.384 694.979 737.371 694.744 737.541C694.509 737.71 694.426 737.997 694.559 738.182C694.693 738.367 694.991 738.379 695.226 738.209Z" fill="#6C174D"/>
<path d="M679.25 751.673C679.561 751.448 679.671 751.067 679.494 750.822C679.318 750.577 678.922 750.561 678.61 750.786C678.298 751.011 678.188 751.392 678.365 751.637C678.542 751.882 678.938 751.898 679.25 751.673Z" fill="#6C174D"/>
<path d="M679.54 747.904C679.804 747.714 679.896 747.392 679.747 747.185C679.597 746.977 679.263 746.964 678.999 747.154C678.735 747.344 678.643 747.666 678.792 747.873C678.941 748.08 679.276 748.094 679.54 747.904Z" fill="#6C174D"/>
<path d="M673.822 755.021C673.996 754.895 674.057 754.684 673.958 754.547C673.86 754.411 673.64 754.402 673.466 754.527C673.293 754.652 673.232 754.864 673.33 755C673.428 755.137 673.649 755.146 673.822 755.021Z" fill="#6C174D"/>
<path d="M679.671 741.143C679.935 740.953 680.027 740.631 679.878 740.424C679.728 740.217 679.393 740.203 679.13 740.393C678.866 740.583 678.773 740.905 678.923 741.112C679.072 741.32 679.407 741.333 679.671 741.143Z" fill="#6C174D"/>
<path d="M684.897 737.559C685.241 737.31 685.362 736.89 685.167 736.619C684.972 736.348 684.534 736.33 684.19 736.579C683.846 736.827 683.725 737.248 683.92 737.518C684.115 737.789 684.553 737.807 684.897 737.559Z" fill="#6C174D"/>
<path d="M713.884 746.394C713.147 750.589 722.724 751.268 722.724 751.268C722.724 751.268 728.789 737.07 719.003 724.951C709.217 712.832 695.906 714.672 694.456 717.534C693.006 720.395 695.879 721.704 695.879 721.704C695.879 721.704 717.884 723.642 713.884 746.394Z" fill="#EB964F"/>
<path d="M719.003 724.953C709.217 712.835 695.904 714.672 694.454 717.534C693.162 720.083 695.301 721.4 695.784 721.659C695.203 721.032 694.72 720.003 695.465 718.532C695.782 717.907 696.709 717.334 698.059 716.97C697.748 717.167 697.573 717.395 697.611 717.605C697.687 718.029 698.594 718.222 699.635 718.036C700.677 717.85 701.462 717.355 701.386 716.93C701.359 716.777 701.223 716.656 701.014 716.57C705.766 716.452 712.654 718.453 718.287 725.428C727.385 736.693 721.746 749.892 721.746 749.892C721.746 749.892 715.43 749.444 713.847 746.972C714.041 750.652 722.723 751.268 722.723 751.268C722.723 751.268 728.789 737.07 719.003 724.953Z" fill="white"/>
<path d="M722.726 751.268C722.726 751.268 723.552 749.332 724.101 746.282C723.099 745.329 721.577 744.543 719.978 743.9C719.291 743.625 718.711 743.136 718.323 742.506C717.935 741.876 717.76 741.138 717.824 740.4C718.163 736.487 718.146 731.556 714.754 727.356C707.102 717.879 696.735 719.166 695.346 721.379C695.514 721.503 695.693 721.612 695.88 721.704C695.88 721.704 717.886 723.642 713.887 746.394C713.149 750.589 722.726 751.268 722.726 751.268Z" fill="#6C174D"/>
<path d="M722.725 751.686H722.695C722.426 751.667 716.071 751.19 714.055 748.607C713.522 747.924 713.326 747.155 713.473 746.322C714.662 739.562 713.635 734.007 710.423 729.817C705.219 723.028 695.935 722.129 695.842 722.121C695.794 722.116 695.748 722.103 695.705 722.083C695.647 722.056 694.274 721.417 693.792 720.043C693.499 719.208 693.597 718.3 694.082 717.342C694.652 716.219 696.583 715.356 699.124 715.089C704.67 714.503 712.891 716.719 719.33 724.689C724.469 731.053 725.224 737.984 724.952 742.679C724.658 747.759 723.173 751.286 723.11 751.433C723.077 751.508 723.024 751.572 722.955 751.617C722.887 751.662 722.807 751.686 722.725 751.686ZM714.296 746.466C714.191 747.065 714.327 747.596 714.713 748.09C716.273 750.088 721.176 750.697 722.449 750.823C722.8 749.895 723.881 746.744 724.117 742.6C724.375 738.061 723.64 731.361 718.677 725.215C712.451 717.505 704.537 715.361 699.209 715.921C696.678 716.188 695.184 717.018 694.827 717.723C694.45 718.466 694.366 719.152 694.578 719.762C694.89 720.662 695.764 721.175 695.995 721.295C696.447 721.342 698.652 721.612 701.435 722.604C704.266 723.614 708.238 725.595 711.081 729.301C714.446 733.685 715.527 739.461 714.296 746.466Z" fill="#6C174D"/>
<path d="M722.725 751.267C722.725 751.267 720.853 753.383 717.148 752.234C713.443 751.086 712.58 748.528 713.884 746.393C715.187 744.258 725.38 746.95 722.725 751.267Z" fill="#F5AE42"/>
<path d="M722.725 751.268C722.725 751.268 720.853 753.384 717.148 752.235C713.443 751.087 712.58 748.529 713.884 746.394C715.187 744.259 725.38 746.951 722.725 751.268Z" fill="#6C174D"/>
<path d="M719.283 752.999C718.618 752.999 717.866 752.896 717.026 752.636C714.464 751.841 713.49 750.516 713.123 749.544C712.716 748.465 712.86 747.269 713.529 746.176C714.034 745.349 715.293 745.207 716.262 745.231C718.791 745.297 722.176 746.577 723.235 748.532C723.745 749.473 723.693 750.495 723.082 751.487C723.069 751.508 723.054 751.528 723.038 751.546C722.975 751.62 721.716 752.999 719.283 752.999ZM716.063 746.066C715.129 746.066 714.454 746.266 714.243 746.613C713.704 747.491 713.588 748.405 713.907 749.248C714.331 750.375 715.527 751.294 717.274 751.835C720.48 752.829 722.167 751.243 722.392 751.013C722.829 750.283 722.864 749.6 722.501 748.93C721.613 747.292 718.547 746.127 716.242 746.065C716.18 746.066 716.121 746.066 716.063 746.066Z" fill="#6C174D"/>
<path d="M701.082 719.887C700.999 719.7 700.959 719.498 700.963 719.294C700.965 719.088 701.002 718.883 701.075 718.691C701.145 718.493 701.26 718.313 701.409 718.165C701.557 718.016 701.746 717.914 701.952 717.872C701.854 718.063 701.748 718.206 701.668 718.369C701.582 718.52 701.504 718.676 701.434 718.835C701.365 718.996 701.304 719.163 701.247 719.337C701.19 719.512 701.139 719.692 701.082 719.887Z" fill="#6D174D"/>
<path d="M702.19 720.62C702.13 720.348 702.144 720.067 702.19 719.792C702.239 719.515 702.333 719.247 702.467 718.999C702.598 718.746 702.78 718.522 703.002 718.342C703.059 718.299 703.114 718.254 703.173 718.216C703.232 718.177 703.298 718.147 703.361 718.115C703.423 718.083 703.489 718.058 703.557 718.039C703.624 718.018 703.692 718.001 703.761 717.987C703.573 718.202 703.384 718.369 703.232 718.576C703.072 718.768 702.928 718.972 702.802 719.187C702.674 719.407 702.561 719.635 702.464 719.87C702.363 720.111 702.277 720.359 702.19 720.62Z" fill="#6D174D"/>
<path d="M717.854 738.474C718.083 738.288 718.359 738.166 718.642 738.075C718.93 737.987 719.229 737.945 719.53 737.951C719.835 737.951 720.137 738.014 720.417 738.134C720.486 738.167 720.555 738.196 720.622 738.233C720.688 738.27 720.749 738.316 720.81 738.36C720.872 738.402 720.929 738.451 720.981 738.506C721.034 738.56 721.086 738.613 721.134 738.671C720.841 738.595 720.588 738.493 720.318 738.446C720.055 738.387 719.788 738.351 719.519 738.337C719.246 738.324 718.972 738.331 718.7 738.356C718.421 738.38 718.143 738.423 717.854 738.474Z" fill="#6D174D"/>
<path d="M717.387 740.409C717.749 740.222 718.151 740.116 718.555 740.057C718.965 739.998 719.382 740.001 719.792 740.064C719.894 740.083 719.998 740.094 720.097 740.122C720.196 740.149 720.299 740.176 720.398 740.207C720.498 740.237 720.593 740.283 720.69 740.321L720.833 740.384L720.969 740.46C721.059 740.514 721.15 740.565 721.237 740.623C721.324 740.682 721.399 740.755 721.479 740.82C721.519 740.852 721.557 740.886 721.593 740.922L721.697 741.036C721.764 741.113 721.831 741.192 721.892 741.274C721.524 741.085 721.196 740.882 720.829 740.756L720.696 740.701L720.559 740.657C720.467 740.63 720.379 740.594 720.287 740.57C720.194 740.547 720.101 740.523 720.009 740.499C719.916 740.476 719.821 740.461 719.727 740.443C719.346 740.377 718.961 740.342 718.574 740.339C718.177 740.338 717.781 740.362 717.387 740.409Z" fill="#6D174D"/>
<path d="M705.43 737.048C708.396 735.482 709.307 736.92 709.703 739.722C707.541 740.005 705.647 739.397 705.43 737.048Z" fill="#5BB25B"/>
<path d="M709.212 740.263C707.954 740.263 706.89 739.935 706.166 739.314C705.522 738.762 705.168 738.006 705.112 737.067C705.108 737.007 705.122 736.948 705.151 736.895C705.18 736.843 705.223 736.8 705.275 736.771C706.548 736.067 707.549 735.902 708.336 736.267C709.467 736.792 709.909 738.3 710.219 739.851C710.228 739.894 710.227 739.939 710.217 739.982C710.207 740.026 710.189 740.066 710.162 740.102C710.136 740.138 710.102 740.167 710.063 740.189C710.025 740.211 709.982 740.224 709.938 740.228C709.691 740.252 709.449 740.263 709.212 740.263ZM705.763 737.23C705.842 737.898 706.116 738.437 706.579 738.834C707.234 739.396 708.294 739.674 709.523 739.623C709.261 738.414 708.868 737.217 708.069 736.845C707.512 736.584 706.756 736.711 705.763 737.23Z" fill="#651946"/>
<path d="M705.366 736.738C705.7 736.643 706.05 736.666 706.365 736.743C706.673 736.823 706.967 736.952 707.234 737.125C707.494 737.289 707.734 737.482 707.95 737.7C708.164 737.912 708.349 738.151 708.503 738.41C708.042 738.069 707.538 737.792 707.004 737.585C706.754 737.492 706.495 737.424 706.232 737.381C705.988 737.342 705.74 737.334 705.493 737.357H705.482C705.403 737.364 705.325 737.341 705.262 737.294C705.199 737.246 705.156 737.176 705.142 737.098C705.128 737.021 705.143 736.94 705.184 736.873C705.226 736.806 705.291 736.757 705.367 736.735L705.366 736.738Z" fill="#651B47"/>
<path d="M100.69 442.71C100.69 448.13 100.69 454.12 100.98 460.39C100.98 466.1 101.26 471.23 101.26 476.39C101.26 489.51 100.69 500.92 100.12 510.9C98.12 524.9 92.99 533.44 85 536.9C77.01 540.36 69.89 542 63.9 542C58.6588 541.984 53.4547 541.12 48.49 539.44C42.9353 537.541 37.8224 534.538 33.4589 530.611C29.0955 526.684 25.5718 521.915 23.1 516.59C18 504.32 13.41 481.5 9.41 448.7C5.13 415.89 2.57 384.52 1.41 355.14C0.57 325.76 0 302.93 0 287C0 260.76 0.86 234.8 2.28 208.84C4.85 166.87 10 130.64 18 100.12C26 69.6 37.4 49.92 52.23 41.12C105.27 13.7067 151.377 0 190.55 0C193.11 0 195.68 0.29 198.25 0.29C239 2.28 268.42 14.55 287 37.08C305.26 59.62 314.67 86.15 314.67 116.38C314.604 123.734 314.127 131.079 313.24 138.38C307.54 176.88 296.7 211.38 281.01 241.92C266.215 271.001 247.711 298.04 225.96 322.36C206.915 343.656 186.195 363.392 164 381.38C143.46 397.64 125.77 410.76 110.66 421.03C107.23 423.6 104.09 425.88 100.96 427.87C100.69 432.44 100.69 437.29 100.69 442.71ZM148 289C163.407 266.18 177.67 239.937 190.79 210.27C203.715 181.091 213.021 150.44 218.5 119C219.151 114.272 219.532 109.511 219.64 104.74C219.623 96.7242 218.568 88.7444 216.5 81C213.08 68.74 207.66 59.89 200.5 53.9C193.34 47.91 185.38 44.77 177.11 44.77C173.561 44.7419 170.02 45.1278 166.56 45.92C151.44 49.05 142.02 58.75 138.56 74.73C128.679 116.642 121.557 159.156 117.24 202C112.67 246.21 108.97 290.14 106.4 333.78C106.11 335.78 106.11 337.78 105.83 339.78C118.38 328.89 132.35 312.06 148 289Z" fill="#027957"/>
<path d="M474.66 435.58C470.38 416.18 467.24 397.92 464.66 380.81C463.23 371.68 461.8 363.98 460.66 357.7C444.97 359.98 427.29 363.41 407.61 367.4C403.9 368.26 400.19 369.11 396.48 369.68V422.17C395.63 435.01 389.64 444.17 378.48 448.98C367.32 453.79 357.09 456.11 347.67 456.11C342.402 456.089 337.15 455.516 332 454.4C316.88 450.98 306.61 442.137 301.19 427.87C297.19 410.47 295.48 390.79 295.48 368.26C295.48 355.42 296.06 342.01 297.2 327.47C301.037 286.523 309.849 246.196 323.44 207.38C337.13 167.44 356.24 133.5 381.06 106.11C395.32 91.8502 409.87 83.8602 424.42 81.5802C438.97 79.3002 449.52 78.1602 455.79 78.1602C470.905 78.1567 485.859 81.2645 499.72 87.2902C519.12 95.8402 531.39 110.96 536.24 132.64C543.08 194.54 548.784 263.38 553.35 339.16C556.49 386.23 559.35 428.16 562.48 464.67V465.24C562.48 474.37 557.91 481.5 548.48 486.35C539.368 491.268 529.166 493.82 518.81 493.77H517.1C505.69 493.2 497.1 489.49 491.72 482.07C484.64 470.38 478.94 454.69 474.66 435.58ZM453.55 278.12C453.27 264.71 452.7 251.59 451.84 238.47C450.98 225.35 449.84 214.22 448.42 205.09C447 195.96 444.99 190.83 442.42 189.69C441.881 189.462 441.295 189.366 440.71 189.41C436.14 189.41 431.29 193.97 427.01 202.81C421.88 212.81 417.32 225.06 413.01 239.89C408.7 254.72 405.31 268.71 402.74 282.4C400.17 295.8 398.46 305.22 398.17 310.92C407.02 310.35 416.43 310.07 425.84 309.5C435.54 309.21 445.24 308.92 455.22 308.35C454.69 299.8 454.12 289.53 453.55 278.12Z" fill="#027957"/>
<path d="M695.12 389.901C695.12 395.901 691.12 401.901 683.12 407.301C673.71 414.151 665.44 417.861 658.02 418.431C650.6 419.001 646.33 419.281 644.9 419.281C633.2 419.281 622.65 414.721 613.52 406.161C600.11 391.041 591.52 370.791 587.28 344.831C583.136 320.136 581.035 295.142 581 270.101C581 261.251 581 252.701 581.57 243.571C583.29 209.911 587.57 179.391 594.12 152.291C600.67 125.191 608.67 106.931 618.12 97.2913C623.585 92.6589 630.368 89.8605 637.51 89.2913C644.36 89.0013 648.64 89.0013 650.06 89.0013C661.309 88.9528 672.521 90.2964 683.44 93.0013C696.56 96.4213 706.54 101.001 713.67 106.691C720.52 112.391 724.23 118.381 724.23 124.941C724.113 127.163 723.74 129.364 723.12 131.501C717.12 148.331 710.85 173.141 704.01 205.951C697.17 238.761 692.88 266.131 690.88 288.101C689.17 310.351 688.32 325.751 688.32 334.881C688.32 355.421 690.32 372.531 694.59 386.511C694.904 387.615 695.082 388.754 695.12 389.901Z" fill="#027957"/>
<path d="M829.001 446.42C829.001 450.98 829.001 455.54 829.291 460.68C829.291 465.24 829.571 469.52 829.571 473.8C829.571 484.07 829.001 493.48 828.431 501.47C826.431 512.59 821.301 519.72 813.311 522.58C805.311 525.14 798.191 526.58 792.201 526.58C787 526.619 781.819 525.946 776.801 524.58C765.391 521.16 756.801 515.17 751.411 506.04C746.277 496.04 741.714 477.783 737.721 451.27C733.636 426.243 730.965 401.007 729.721 375.68C728.871 352.01 728.301 333.75 728.301 320.63C728.301 299.52 729.151 278.41 730.581 257.63C733.151 223.97 738.281 194.63 746.271 169.77C754.271 145.24 765.661 129.27 780.501 122.14C833.501 100.14 879.761 89.0498 918.841 89.0498C921.411 89.0498 923.981 89.3298 926.541 89.3298C967.341 90.7598 996.721 100.74 1015.26 119C1033.51 137.25 1042.93 158.65 1042.93 182.89C1042.86 188.915 1042.38 194.929 1041.5 200.89C1035.8 231.98 1024.96 259.89 1009.27 284.46C993.9 308.486 975.382 330.347 954.211 349.46C933.351 368 912.531 384 892.281 396.78C871.741 409.9 854.051 420.78 838.931 429.01C835.511 431.01 832.371 432.72 829.241 434.44C829.001 438.14 829.001 442.14 829.001 446.42ZM876.301 322.33C892.573 302.549 906.902 281.247 919.091 258.72C931.827 235.658 941.148 210.87 946.761 185.13C947.409 181.261 947.79 177.351 947.901 173.43C947.857 166.935 946.797 160.487 944.761 154.32C941.341 144.62 935.921 137.2 928.761 132.32C921.872 127.616 913.712 125.125 905.371 125.18C901.834 125.194 898.303 125.482 894.811 126.04C879.691 128.61 870.281 136.31 866.811 149.43C856.945 183.033 849.788 217.373 845.411 252.12C840.851 287.78 837.141 323.12 834.571 358.52C834.291 359.94 834.291 361.66 834.001 363.37C846.641 354.56 860.611 340.87 876.301 322.33Z" fill="#027957"/>
<path d="M249.101 555.68C242.855 572.402 237.943 589.593 234.411 607.09C231.661 622.47 230.281 634.17 230.281 642.44C230.152 646.678 230.538 650.915 231.431 655.06C240.946 653.905 250.526 653.367 260.111 653.45H263.561C274.834 653.55 286.065 654.858 297.061 657.35C308.311 660.57 314.511 665.16 316.111 671.35C317.721 677.35 318.411 681.68 318.411 684.89C318.474 689.948 317.209 694.935 314.741 699.35C311.294 705.35 306.704 708.333 300.971 708.3C299.74 708.331 298.508 708.255 297.291 708.07C292.722 706.882 288.009 706.343 283.291 706.47C277.994 706.559 272.706 706.94 267.451 707.61C255.352 708.996 243.607 712.575 232.791 718.17C230.961 719.78 230.041 723.45 230.041 729.65V742C230.041 750.493 230.271 759.903 230.731 770.23C231.421 782.85 232.111 793.87 232.791 803.5C233.021 808.55 233.251 812.5 233.481 814.98C233.247 826 228.887 833.333 220.401 836.98C211.681 840.88 203.651 842.72 196.531 842.72C191.751 842.627 186.99 842.088 182.311 841.11C169.681 838.36 160.041 831.01 153.391 819.31C141.602 794.161 134.373 767.117 132.041 739.44C129.747 711.9 128.601 689.87 128.601 673.35C128.56 651.341 129.786 629.348 132.271 607.48C136.631 569.39 143.751 537.94 154.081 513.62C160.434 499.736 171.384 488.468 185.081 481.72C198.851 474.83 211.241 470.93 222.261 470.24C233.261 469.32 241.081 468.87 245.901 468.87C258.057 468.891 270.189 469.965 282.161 472.08C298.681 475.08 312.911 479.19 324.841 484.7C336.551 490.44 343.661 497.32 346.651 505.36C349.401 513.16 351.011 520.04 351.011 526.01C350.928 530.338 350.389 534.645 349.401 538.86C347.111 549.19 342.971 558.14 336.781 565.48C330.591 572.82 323.701 576.73 316.121 577.42C307.861 577.42 301.671 574.2 297.761 567.55C293.347 560.183 289.806 552.327 287.211 544.14C285.141 538.14 283.071 532.21 280.551 526.7C278.241 521.548 274.879 516.935 270.681 513.16C263.101 522.41 255.751 536.64 249.101 555.68Z" fill="black"/>
<path d="M557.31 594.24C550.89 574.5 540.79 559.36 527.48 548.57C509.58 535.49 488.247 527.916 463.48 525.85C458.66 525.39 453.61 525.39 448.79 525.39C428.685 525.521 408.744 529.012 389.79 535.72C369.59 542.6 354.68 553.85 344.35 569.46C341.82 574.04 340.68 577.95 340.68 581.16C340.68 583.68 341.82 586.44 344.12 589.65C346.911 593.325 350.427 596.388 354.45 598.65C356.56 599.819 358.49 601.287 360.18 603.01C360.84 603.698 361.246 604.59 361.33 605.54C361.312 606.28 361.072 606.998 360.64 607.6C352.38 618.6 345.27 633.08 339.3 651.44C333.77 668.56 330.982 686.448 331.04 704.44C331.04 705.82 331.04 711.78 331.27 722.34C331.5 732.9 337.27 745.75 348.48 761.13C359.48 776.5 378.08 786.37 404.25 791.19C415.85 793.158 427.594 794.162 439.36 794.19C461.049 794.21 482.463 789.329 502 779.91C521.73 770.5 537.34 755.12 548.58 733.78C559.893 712.618 566.195 689.142 567 665.16C567.23 661.48 567.23 658.04 567.23 654.6C567.281 634.07 563.929 613.673 557.31 594.24ZM483.42 687.65C480.926 703.837 475.972 719.549 468.73 734.24C461.84 748.24 453.81 756.24 444.4 758.33C432 756.5 423.29 751 418.24 741.58C413.647 733.32 411.35 723.45 411.35 711.97C411.35 710.14 411.58 705.55 412.04 697.74C412.27 689.94 415.25 678.74 420.3 664.24C425.288 650.153 432.006 636.74 440.3 624.31C441.787 621.906 442.58 619.137 442.59 616.31C442.59 611.72 439.84 606.67 433.87 600.94C428.14 595.2 418.5 592.44 404.96 592.22C404.651 590.939 404.497 589.627 404.5 588.31C404.5 585.31 405.42 580.51 407.5 574.54C409.57 568.35 413.5 561.92 418.75 555.72C424 550 430.17 547 437.52 547L439.35 547.23C454.27 549.07 465.74 557.33 473.35 571.33C480.96 585.33 485.51 602.54 487.12 622.74C487.58 628.74 487.81 634.9 487.81 640.87C487.69 656.56 486.221 672.211 483.42 687.65Z" fill="black"/>
<path d="M1092 601.59C1091.95 607.723 1091.57 613.849 1090.85 619.94C1087.41 647.26 1078.69 674.57 1064.69 701.65C1050.95 728.284 1033.74 752.979 1013.51 775.09C993.51 796.89 974.04 812.95 955.45 823.09C936.86 833.42 920.34 838.47 906.34 838.47C901.944 838.478 897.559 838.016 893.26 837.09C880.17 833.65 869.62 823.78 861.58 807.26C853.58 790.96 847.35 770.77 843.23 746.67C839.015 723.076 836.343 699.232 835.23 675.29C834.08 652.11 833.4 631 833.4 612.41C833.4 606.22 833.63 600.02 833.63 594.05C834.31 569.95 835 549.53 836.15 533.05C837.53 518.59 845.15 507.11 859.15 498.85C872.92 490.59 886.69 485.77 900.69 484.39C914.69 483.01 925.25 482.33 932.59 482.33C947.052 482.324 961.488 483.552 975.74 486C998.23 489.9 1018.65 496.78 1037.24 506.88C1055.6 516.75 1069.37 529.37 1078.32 544.98C1087.45 562.445 1092.15 581.885 1092 601.59ZM987.16 673.65C995.42 646.11 999.55 624.08 999.55 607.32C999.715 595.579 998.027 583.886 994.55 572.67C986.55 547.88 971.38 532.97 948.88 528.15H947.74C940.39 528.15 934.43 535.03 930.29 549.03C925.93 563.95 922.95 582.54 921.29 604.57C919.69 626.83 918.77 648.63 918.77 670.43V676.43C919 700.3 919.92 720.95 921.29 738.17C922.67 755.17 924.29 765.48 926.34 768.46C958.7 732.86 979.13 701.42 987.16 673.65Z" fill="black"/>
<path d="M807.47 606.86C802.19 590.57 791.4 575.86 774.88 563.26C758.36 550.66 735.18 543.261 705.57 541.461C701.67 541.231 697.77 541.23 694.32 541.23C679.15 541.23 666.32 542.59 655.95 545.3L655.34 545.461C652.605 546.189 649.914 547.074 647.28 548.11C638.69 551.38 632.54 555.54 628.84 560.51C611.93 574.6 591.9 601.01 583.84 649.41C583.71 650.16 583.59 650.92 583.46 651.68V651.75C583.23 653.2 583.01 654.681 582.81 656.211C581.877 663.054 581.416 669.954 581.43 676.86C581.43 687.65 582.81 700.27 585.56 715.19C588.32 729.88 595.2 742.96 605.99 754.43C617.681 765.465 631.689 773.749 646.99 778.68L689.61 660.17C690.61 657.51 692.41 655.86 694.42 655.86H702.42C704.42 655.86 706.28 657.53 707.23 660.19L748.7 776.47C758.267 772.683 767.179 767.415 775.11 760.86C784.75 752.6 793.24 739.971 800.58 723.451C807.7 706.93 812.29 688.57 814.35 668.37C814.81 663.37 815.04 658.501 815.04 653.451C815 638.76 812.52 623.16 807.47 606.86Z" fill="#212121"/>
<path d="M807.47 606.86C802.19 590.57 791.4 575.86 774.88 563.26C758.36 550.66 735.18 543.261 705.57 541.461C701.67 541.231 697.77 541.23 694.32 541.23C679.15 541.23 666.32 542.59 655.95 545.3L655.34 545.461C652.605 546.189 649.914 547.074 647.28 548.11C638.69 551.38 632.54 555.54 628.84 560.51C611.93 574.6 591.9 601.01 583.84 649.41C583.71 650.16 583.59 650.92 583.46 651.68V651.75C583.23 653.2 583.01 654.681 582.81 656.211C581.877 663.054 581.416 669.954 581.43 676.86C581.43 687.65 582.81 700.27 585.56 715.19C588.32 729.88 595.2 742.96 605.99 754.43C617.681 765.465 631.689 773.749 646.99 778.68L689.61 660.17C690.61 657.51 692.41 655.86 694.42 655.86H702.42C704.42 655.86 706.28 657.53 707.23 660.19L748.7 776.47C758.267 772.683 767.179 767.415 775.11 760.86C784.75 752.6 793.24 739.971 800.58 723.451C807.7 706.93 812.29 688.57 814.35 668.37C814.81 663.37 815.04 658.501 815.04 653.451C815 638.76 812.52 623.16 807.47 606.86Z" fill="black"/>
<path d="M738.67 633.1C736.45 628.99 733.45 626.71 727.18 624.22C716.308 619.83 704.722 617.478 693 617.28C683.59 617.15 674.13 618.33 664.77 619.51C661.77 619.88 658.98 622.12 656.1 623.51L656.52 624.64L738.67 633.1Z" fill="#EFEFEF"/>
<path d="M716.83 618.38C717.57 612.69 713.93 606.13 707.74 602.71C700.63 598.78 693.64 599.33 687.16 604.09C683.52 606.76 680.91 610.26 681.05 615.17L687.93 604.66C687.77 607.56 686.63 609.87 686.19 612.3C686.03 613.19 687.42 615.2 688.28 615.3C697.77 616.49 707.3 617.4 716.83 618.38Z" fill="#EFEFEF"/>
<path d="M727.91 635.19C723.68 634.75 720.03 634.31 716.36 634.05C715.504 634.083 714.693 634.441 714.09 635.05C711.77 637.37 709.57 639.81 707.33 642.19C713.31 644.39 723 641.34 727.91 635.19Z" fill="#EFEFEF"/>
<path d="M667.07 629.37C668.16 634.85 678.95 641.131 684.81 639.711C681.9 631.311 675.85 627.8 667.07 629.37Z" fill="#EFEFEF"/>
<path d="M695.681 640.07C695.667 637.954 695.54 635.841 695.301 633.74C695.199 633.294 694.991 632.88 694.695 632.532C694.399 632.184 694.024 631.912 693.601 631.74C690.251 631.21 686.861 630.96 683.381 630.6C684.421 638.41 687.351 640.64 695.681 640.07Z" fill="#EFEFEF"/>
<path d="M697.119 640.21C704.819 642.5 709.589 640.09 710.619 633.39L706.059 632.92C698.489 632.14 698.489 632.14 697.119 640.21Z" fill="#EFEFEF"/>
<path d="M656 628.001C657.94 632.801 667 638.291 672.31 638.271C669.96 636.271 666.8 634.541 665.08 631.881C662.74 628.341 659.86 627.761 656 628.001Z" fill="#EFEFEF"/>
<path d="M720.17 643.73C726.62 642.93 733.27 642.19 738.22 636.64C735.87 636.08 733.22 635.36 731.5 636.27C727.49 638.34 723.9 641.21 720.17 643.73Z" fill="#EFEFEF"/>
<path d="M738.671 633.1L656.551 624.64L656.131 623.51C659.011 622.12 661.791 619.88 664.801 619.51C674.161 618.33 683.621 617.15 693.031 617.28C704.743 617.481 716.319 619.834 727.181 624.22C733.451 626.71 736.451 629 738.671 633.1Z" fill="white"/>
<path d="M716.83 618.38C707.3 617.38 697.77 616.49 688.28 615.31C687.42 615.2 686.03 613.19 686.19 612.31C686.63 609.88 687.77 607.57 687.93 604.67L681.05 615.18C680.91 610.27 683.52 606.77 687.16 604.1C693.64 599.34 700.63 598.79 707.74 602.72C713.93 606.13 717.57 612.69 716.83 618.38Z" fill="white"/>
<path d="M727.91 635.19C722.97 641.34 713.31 644.39 707.33 642.14C709.57 639.76 711.77 637.32 714.09 635C714.693 634.391 715.504 634.034 716.36 634C720 634.31 723.68 634.75 727.91 635.19Z" fill="white"/>
<path d="M667.07 629.37C675.85 627.8 681.9 631.311 684.81 639.711C679 641.131 668.16 634.85 667.07 629.37Z" fill="white"/>
<path d="M695.681 640.07C687.351 640.64 684.421 638.41 683.381 630.61C686.861 630.97 690.251 631.22 693.601 631.75C694.024 631.923 694.399 632.195 694.695 632.543C694.991 632.891 695.199 633.305 695.301 633.75C695.54 635.849 695.667 637.958 695.681 640.07Z" fill="white"/>
<path d="M697.119 640.21C698.489 632.14 698.489 632.14 706.059 632.92L710.619 633.39C709.589 640.09 704.819 642.5 697.119 640.21Z" fill="white"/>
<path d="M656 628C659.91 627.75 662.79 628.33 665.08 631.88C666.8 634.54 669.96 636.27 672.31 638.27C667 638.3 657.89 632.81 656 628Z" fill="white"/>
<path d="M720.17 643.73C723.9 641.21 727.49 638.34 731.5 636.27C733.26 635.36 735.87 636.08 738.22 636.64C733.27 642.19 726.62 642.93 720.17 643.73Z" fill="white"/>
</svg>
