<svg width="512" height="512" viewBox="0 0 512 512" fill="none" xmlns="http://www.w3.org/2000/svg">
<path d="M310.095 409.574C310.095 409.574 309.542 411.333 313.66 408.813C317.778 406.293 328.058 404.367 332.921 404.982C337.783 405.597 334.35 394.038 330.741 392.183C327.132 390.327 315.844 398.34 310.095 409.574Z" fill="#F5AE42"/>
<path d="M310.419 409.185C310.419 409.185 309.538 411.333 313.657 408.813C317.776 406.293 328.055 404.367 332.917 404.982C337.78 405.597 334.347 394.038 330.738 392.183C327.129 390.327 316.168 397.95 310.419 409.185Z" fill="#6C174D"/>
<path d="M310.803 410.223C310.587 410.223 310.415 410.171 310.289 410.069C309.901 409.755 310.11 409.142 310.119 409.117C310.122 409.109 310.126 409.101 310.129 409.093C312.772 403.93 316.182 400.15 318.576 397.888C321.611 395.021 324.814 392.907 327.363 392.087C328.834 391.613 329.999 391.589 330.826 392.014C332.136 392.688 333.504 394.615 334.484 397.169C335.444 399.671 335.759 402.133 335.307 403.594C334.981 404.647 334.284 405.195 333.282 405.195C333.152 405.195 333.023 405.186 332.895 405.17C327.891 404.537 317.697 406.564 313.757 408.974C312.392 409.81 311.416 410.223 310.803 410.223ZM310.473 409.253C310.438 409.363 310.382 409.659 310.527 409.775C310.648 409.872 311.226 410.079 313.559 408.651C315.511 407.457 318.943 406.321 322.973 405.536C326.876 404.776 330.602 404.498 332.942 404.794C333.961 404.922 334.636 404.481 334.945 403.481C335.374 402.097 335.062 399.73 334.13 397.303C333.198 394.871 331.865 392.973 330.653 392.349C329.929 391.977 328.831 392.011 327.478 392.446C324.982 393.25 321.832 395.333 318.836 398.162C316.465 400.403 313.09 404.144 310.473 409.253V409.253Z" fill="#6C174D"/>
<path d="M330.994 394.397C330.423 394.265 331.051 394.051 330.294 393.295C329.536 392.539 328.703 393.161 328.703 393.161C328.838 392.884 328.869 392.627 328.724 392.423C328.072 391.51 326.36 392.081 325.734 391.349C325.107 390.616 323.611 391.288 323.611 391.288C323.611 391.288 314.679 396.619 312.122 402.761C309.565 408.902 309.76 410.787 310.871 410.362C311.983 409.937 312.802 408.978 313.616 409.733C314.43 410.488 313.413 411.903 314.398 412.6C314.949 412.991 316.225 412.289 315.612 411.243C314.998 410.197 314.186 408.257 315.562 407.217C316.937 406.176 320.095 405.623 319.909 407.084C319.446 410.706 323.299 409.17 322.102 407.639C321.086 406.34 322.02 404.058 324.287 405.314C326.188 406.369 325.947 404.933 327.823 404.316C329.222 403.857 331.798 403.842 331.798 403.842C333.605 402.78 331.97 402.256 331.97 402.256C331.97 402.256 333.485 401.09 333.105 400.285C332.725 399.479 332.91 398.21 332.943 396.925C332.977 395.64 331.566 394.528 330.994 394.397Z" fill="#FFCC02"/>
<path d="M330.994 394.397C330.423 394.266 331.051 394.052 330.294 393.296C329.536 392.539 328.703 393.161 328.703 393.161C328.838 392.885 328.869 392.627 328.724 392.424C328.072 391.51 326.36 392.082 325.734 391.349C325.107 390.616 323.611 391.288 323.611 391.288C323.611 391.288 323.404 391.412 323.043 391.644C325.837 392.378 331.605 394.733 330.543 403.114C330.543 403.114 319.387 403.915 316.321 405.821C314.116 407.191 311.899 409.768 310.18 410.099C310.303 410.414 310.548 410.486 310.871 410.362C311.983 409.937 312.802 408.979 313.616 409.734C314.43 410.489 313.413 411.904 314.398 412.601C314.949 412.991 316.225 412.29 315.612 411.244C314.998 410.197 314.186 408.258 315.562 407.217C316.937 406.177 320.095 405.623 319.909 407.084C319.446 410.706 323.299 409.17 322.102 407.64C321.086 406.34 322.02 404.058 324.287 405.315C326.188 406.369 325.947 404.933 327.823 404.317C329.222 403.857 331.798 403.842 331.798 403.842C333.605 402.781 331.97 402.257 331.97 402.257C331.97 402.257 333.485 401.09 333.105 400.285C332.725 399.48 332.91 398.21 332.943 396.925C332.977 395.64 331.566 394.529 330.994 394.397Z" fill="#6C174D"/>
<path d="M331.482 394.684C331.54 394.698 331.595 394.717 331.649 394.74C331.511 394.637 331.364 394.548 331.209 394.474C331.222 394.572 331.266 394.634 331.482 394.684Z" fill="white"/>
<path d="M332.475 402.549L332.466 402.54L332.461 402.544L332.475 402.549Z" fill="white"/>
<path d="M329.191 393.447C329.191 393.447 329.679 393.084 330.249 393.253C329.919 392.948 329.579 392.894 329.301 392.93C329.325 393.087 329.282 393.263 329.191 393.447Z" fill="white"/>
<path d="M328.595 392.273C328.029 391.729 326.967 391.888 326.246 391.661C326.735 392.187 327.818 392 328.595 392.273Z" fill="white"/>
<path d="M323.611 391.288C323.611 391.288 319.636 393.661 316.23 397.064C316.162 397.115 316.098 397.172 316.04 397.235C316.003 397.275 315.969 397.317 315.936 397.361C314.353 398.988 312.924 400.835 312.122 402.76C309.72 408.528 309.747 410.541 310.679 410.412C310.357 409.67 310.775 407.455 312.61 403.047C313.301 401.389 314.456 399.79 315.774 398.339C315.801 398.389 315.836 398.435 315.878 398.473C316.171 398.744 316.718 398.629 317.101 398.215C317.483 397.802 317.555 397.248 317.263 396.978C317.235 396.952 317.203 396.929 317.17 396.91C320.466 393.745 323.87 391.32 323.87 391.32C323.87 391.32 325.026 391.161 325.726 391.339C325.093 390.623 323.611 391.288 323.611 391.288Z" fill="white"/>
<path d="M314.777 412.899C314.596 412.899 314.425 412.852 314.288 412.755C313.688 412.33 313.725 411.68 313.757 411.106C313.784 410.626 313.81 410.172 313.487 409.872C313.032 409.45 312.596 409.664 311.863 410.077C311.573 410.241 311.273 410.41 310.938 410.538C310.536 410.692 310.296 410.564 310.165 410.43C309.331 409.571 310.673 405.745 311.946 402.688C313.282 399.479 316.359 396.506 318.704 394.575C321.239 392.489 323.491 391.138 323.514 391.125C323.52 391.121 323.527 391.118 323.533 391.115C323.6 391.085 325.167 390.394 325.877 391.225C326.123 391.513 326.614 391.564 327.134 391.619C327.766 391.685 328.483 391.76 328.877 392.313C328.979 392.455 329.022 392.618 329.006 392.801C329.403 392.675 329.944 392.68 330.427 393.161C330.881 393.614 330.895 393.918 330.904 394.1C330.904 394.123 330.906 394.146 330.909 394.169C330.921 394.176 330.954 394.193 331.036 394.212C331.694 394.363 333.169 395.547 333.133 396.93C333.126 397.214 333.111 397.498 333.097 397.772C333.047 398.722 333.001 399.618 333.277 400.204C333.62 400.932 332.773 401.812 332.326 402.207C332.542 402.328 332.8 402.535 332.834 402.844C332.877 403.229 332.569 403.608 331.894 404.006C331.865 404.023 331.833 404.032 331.799 404.032C331.774 404.032 329.237 404.052 327.882 404.498C327.207 404.72 326.829 405.047 326.495 405.335C325.873 405.872 325.429 406.166 324.195 405.481C323.349 405.013 322.622 405.028 322.199 405.522C321.756 406.04 321.779 406.921 322.251 407.526C322.596 407.968 322.613 408.485 322.293 408.908C321.904 409.422 321.15 409.642 320.575 409.407C320.165 409.241 319.51 408.714 319.72 407.063C319.751 406.824 319.674 406.66 319.479 406.547C318.76 406.131 316.733 406.569 315.675 407.37C314.351 408.372 315.303 410.347 315.773 411.15C316.075 411.666 316.014 412.195 315.608 412.567C315.371 412.783 315.062 412.899 314.777 412.899ZM312.963 409.264C313.225 409.264 313.486 409.356 313.744 409.594C314.198 410.016 314.165 410.606 314.135 411.128C314.105 411.672 314.078 412.143 314.507 412.447C314.712 412.592 315.1 412.519 315.353 412.286C315.51 412.142 315.733 411.826 315.447 411.339C314.926 410.449 313.881 408.251 315.447 407.067C316.535 406.244 318.741 405.679 319.669 406.217C319.999 406.407 320.146 406.716 320.096 407.109C319.964 408.146 320.184 408.838 320.718 409.055C321.134 409.225 321.705 409.055 321.991 408.678C322.116 408.512 322.278 408.172 321.953 407.757C321.374 407.016 321.356 405.926 321.911 405.276C322.453 404.641 323.376 404.593 324.379 405.149C325.445 405.74 325.713 405.509 326.247 405.047C326.591 404.751 327.017 404.383 327.764 404.137C329.082 403.704 331.363 403.658 331.745 403.654C332.394 403.264 332.47 403.007 332.458 402.888C332.433 402.656 332.047 402.48 331.913 402.437C331.881 402.426 331.852 402.407 331.829 402.381C331.807 402.355 331.792 402.323 331.786 402.289C331.78 402.256 331.783 402.221 331.796 402.189C331.808 402.157 331.829 402.129 331.856 402.107C332.217 401.829 333.191 400.91 332.935 400.366C332.618 399.694 332.667 398.751 332.719 397.754C332.733 397.481 332.748 397.2 332.755 396.921C332.785 395.77 331.486 394.704 330.952 394.581C330.608 394.502 330.537 394.358 330.526 394.118C330.519 393.975 330.509 393.778 330.159 393.429C329.53 392.802 328.844 393.291 328.815 393.313C328.781 393.337 328.74 393.35 328.698 393.348C328.656 393.347 328.615 393.331 328.583 393.304C328.551 393.277 328.528 393.241 328.519 393.2C328.51 393.159 328.515 393.116 328.533 393.078C328.705 392.724 328.603 392.58 328.57 392.533C328.274 392.119 327.701 392.059 327.095 391.995C326.524 391.936 325.933 391.874 325.589 391.472C325.155 390.963 324.087 391.284 323.698 391.456C323.538 391.553 321.371 392.871 318.941 394.871C316.63 396.773 313.602 399.698 312.296 402.833C311.36 405.081 310.742 406.882 310.455 408.186C310.133 409.659 310.334 410.061 310.437 410.166C310.465 410.194 310.549 410.282 310.803 410.185C311.112 410.066 311.4 409.904 311.678 409.747C312.101 409.509 312.533 409.264 312.963 409.264Z" fill="#6C174D"/>
<path d="M324.959 403.715C326.04 403.52 327.124 403.345 328.215 403.204C328.761 403.134 329.308 403.072 329.857 403.024C330.406 402.976 330.957 402.942 331.511 402.931C331.533 402.931 331.554 402.935 331.575 402.943C331.595 402.951 331.613 402.962 331.629 402.977C331.645 402.993 331.657 403.011 331.666 403.03C331.675 403.05 331.679 403.072 331.68 403.094C331.68 403.115 331.676 403.137 331.668 403.157C331.661 403.177 331.649 403.196 331.634 403.212C331.619 403.227 331.6 403.24 331.581 403.249C331.561 403.257 331.539 403.262 331.517 403.262H331.509C330.965 403.245 330.419 403.252 329.872 403.272C329.326 403.292 328.779 403.326 328.232 403.369C327.139 403.455 326.048 403.575 324.959 403.715Z" fill="#6C174D"/>
<path d="M328.447 392.177L328.462 392.166L328.455 392.161C328.452 392.166 328.45 392.172 328.447 392.177Z" fill="#6C174D"/>
<path d="M332.689 395.942C332.656 397.226 332.472 398.496 332.851 399.301C332.871 399.344 332.886 399.388 332.896 399.434C332.825 398.706 332.921 397.82 332.944 396.925C332.954 396.571 332.852 396.229 332.689 395.917C332.689 395.926 332.689 395.934 332.689 395.942Z" fill="#6C174D"/>
<path d="M332.912 399.572C332.923 400.344 331.717 401.273 331.717 401.273C331.717 401.273 332.348 401.476 332.392 401.884C332.808 401.474 333.351 400.805 333.106 400.285C333.008 400.076 332.947 399.836 332.912 399.572Z" fill="#6C174D"/>
<path d="M326.018 396.939C327.294 396.113 327.795 394.618 327.136 393.599C326.478 392.58 324.909 392.424 323.632 393.249C322.355 394.075 321.854 395.57 322.513 396.589C323.172 397.608 324.741 397.764 326.018 396.939Z" fill="#E32529"/>
<path d="M325.224 397.262C323.874 397.612 322.689 396.934 322.577 395.748C322.466 394.562 323.47 393.317 324.82 392.968C325.813 392.711 326.716 393.01 327.169 393.657C326.717 392.896 325.715 392.531 324.608 392.818C323.176 393.189 322.112 394.51 322.23 395.767C322.348 397.025 323.604 397.744 325.036 397.373C325.408 397.276 325.76 397.116 326.078 396.899C325.812 397.062 325.525 397.184 325.224 397.262V397.262Z" fill="white"/>
<path d="M325.039 393.334L325.352 396.662C326.226 396.28 326.832 395.419 326.754 394.594C326.677 393.769 325.942 393.256 325.039 393.334Z" fill="#BC1824"/>
<path d="M324.254 393.545C323.402 393.936 322.815 394.783 322.891 395.596C322.968 396.409 323.682 396.919 324.567 396.859L324.254 393.545Z" fill="#BC1824"/>
<path d="M324.254 393.545C323.402 393.936 322.815 394.783 322.891 395.596C322.968 396.409 323.682 396.919 324.567 396.859L324.254 393.545Z" fill="#BC1824"/>
<path d="M324.377 394.655C324.097 394.783 323.905 395.061 323.93 395.327C323.955 395.592 324.189 395.76 324.479 395.741L324.377 394.655Z" fill="#E32529"/>
<path d="M325.129 394.46C325.419 394.441 325.653 394.608 325.678 394.874C325.702 395.141 325.51 395.418 325.231 395.546L325.129 394.46Z" fill="#E32529"/>
<path d="M324.296 397.63C323.775 397.63 323.288 397.489 322.899 397.216C322.421 396.881 322.127 396.371 322.072 395.783C321.947 394.452 323.068 393.052 324.57 392.663C325.375 392.454 326.17 392.568 326.75 392.975C327.228 393.31 327.521 393.82 327.577 394.409C327.702 395.74 326.581 397.139 325.078 397.529C324.823 397.596 324.56 397.63 324.296 397.63V397.63ZM325.354 392.881C325.116 392.882 324.88 392.913 324.651 392.974C323.294 393.325 322.281 394.571 322.392 395.752C322.438 396.246 322.684 396.672 323.083 396.953C323.585 397.306 324.283 397.402 324.997 397.217C326.354 396.865 327.367 395.619 327.256 394.438C327.21 393.944 326.964 393.517 326.565 393.237C326.23 393.002 325.809 392.881 325.354 392.881V392.881Z" fill="#6C174D"/>
<path d="M323.957 396.131C323.974 396.177 323.988 396.224 323.999 396.272C324.011 396.315 324.016 396.361 324.014 396.406C324.012 396.437 323.997 396.465 323.974 396.484C323.951 396.504 323.921 396.513 323.89 396.511C323.86 396.509 323.832 396.495 323.812 396.472C323.792 396.449 323.782 396.419 323.783 396.389C323.784 396.379 323.787 396.368 323.79 396.358C323.807 396.316 323.831 396.277 323.86 396.242C323.89 396.203 323.922 396.165 323.957 396.131Z" fill="#F4C345"/>
<path d="M323.591 395.797C323.584 395.846 323.573 395.894 323.559 395.941C323.548 395.985 323.531 396.028 323.507 396.067C323.499 396.079 323.488 396.09 323.475 396.099C323.463 396.107 323.449 396.113 323.434 396.116C323.419 396.119 323.403 396.119 323.388 396.116C323.374 396.113 323.359 396.107 323.347 396.099C323.334 396.091 323.323 396.08 323.315 396.067C323.306 396.055 323.3 396.04 323.297 396.026C323.294 396.011 323.294 395.995 323.297 395.98C323.3 395.966 323.306 395.951 323.314 395.939C323.32 395.93 323.327 395.922 323.335 395.915C323.371 395.886 323.411 395.863 323.453 395.847C323.498 395.827 323.544 395.81 323.591 395.797V395.797Z" fill="#F4C345"/>
<path d="M323.493 395.26C323.465 395.297 323.434 395.331 323.4 395.362C323.371 395.393 323.337 395.419 323.299 395.439C323.271 395.451 323.24 395.451 323.212 395.441C323.184 395.43 323.161 395.409 323.148 395.382C323.135 395.354 323.133 395.323 323.143 395.295C323.153 395.266 323.173 395.243 323.2 395.229C323.21 395.224 323.221 395.221 323.233 395.219C323.275 395.214 323.318 395.217 323.359 395.227C323.405 395.234 323.449 395.246 323.493 395.26V395.26Z" fill="#F4C345"/>
<path d="M323.698 394.712C323.656 394.723 323.613 394.732 323.57 394.737C323.531 394.744 323.491 394.744 323.452 394.737C323.422 394.73 323.397 394.711 323.381 394.685C323.365 394.66 323.359 394.629 323.366 394.599C323.373 394.569 323.39 394.543 323.416 394.527C323.441 394.51 323.472 394.504 323.502 394.51C323.514 394.513 323.526 394.517 323.536 394.524C323.57 394.545 323.599 394.573 323.623 394.605C323.651 394.638 323.676 394.674 323.698 394.712V394.712Z" fill="#F4C345"/>
<path d="M324.136 394.343C324.095 394.324 324.056 394.301 324.019 394.276C323.984 394.255 323.952 394.227 323.926 394.196C323.907 394.171 323.899 394.14 323.903 394.11C323.908 394.079 323.924 394.052 323.948 394.033C323.973 394.014 324.004 394.006 324.034 394.01C324.065 394.015 324.092 394.031 324.111 394.055C324.118 394.065 324.124 394.075 324.128 394.086C324.141 394.126 324.146 394.167 324.144 394.208C324.145 394.253 324.142 394.298 324.136 394.343V394.343Z" fill="#F4C345"/>
<path d="M325.835 395.642C325.874 395.665 325.912 395.691 325.948 395.72C325.982 395.745 326.012 395.775 326.036 395.81C326.044 395.822 326.05 395.837 326.053 395.852C326.055 395.867 326.055 395.882 326.052 395.897C326.049 395.912 326.043 395.926 326.034 395.939C326.025 395.951 326.014 395.962 326.001 395.97C325.989 395.978 325.974 395.984 325.959 395.987C325.944 395.989 325.929 395.989 325.914 395.986C325.899 395.983 325.885 395.977 325.872 395.968C325.86 395.959 325.849 395.948 325.841 395.935C325.835 395.926 325.83 395.915 325.827 395.904C325.817 395.863 325.814 395.82 325.818 395.778C325.82 395.732 325.826 395.687 325.835 395.642V395.642Z" fill="#F4C345"/>
<path d="M326.115 395.132C326.158 395.124 326.202 395.12 326.245 395.12C326.285 395.116 326.325 395.12 326.363 395.131C326.392 395.141 326.416 395.162 326.43 395.189C326.444 395.217 326.446 395.249 326.437 395.278C326.427 395.307 326.406 395.331 326.379 395.345C326.351 395.359 326.319 395.362 326.29 395.352C326.278 395.348 326.267 395.342 326.257 395.335C326.226 395.31 326.2 395.28 326.18 395.245C326.155 395.209 326.134 395.172 326.115 395.132V395.132Z" fill="#F4C345"/>
<path d="M326.109 394.566C326.139 394.532 326.172 394.501 326.207 394.472C326.237 394.444 326.272 394.421 326.31 394.405C326.339 394.395 326.37 394.397 326.397 394.409C326.425 394.422 326.446 394.445 326.457 394.473C326.468 394.501 326.467 394.532 326.455 394.56C326.443 394.588 326.421 394.61 326.393 394.622C326.382 394.626 326.371 394.628 326.359 394.629C326.318 394.63 326.277 394.624 326.238 394.611C326.194 394.599 326.151 394.584 326.109 394.566V394.566Z" fill="#F4C345"/>
<path d="M325.816 394.139C325.825 394.091 325.837 394.045 325.853 393.999C325.865 393.956 325.884 393.915 325.909 393.878C325.919 393.865 325.932 393.854 325.946 393.846C325.961 393.837 325.977 393.832 325.993 393.831C326.01 393.83 326.026 393.832 326.042 393.837C326.057 393.843 326.072 393.852 326.084 393.863C326.096 393.875 326.105 393.889 326.111 393.904C326.117 393.92 326.12 393.936 326.119 393.953C326.118 393.969 326.113 393.986 326.106 394C326.098 394.015 326.087 394.028 326.074 394.038C326.038 394.064 325.998 394.084 325.955 394.098C325.91 394.115 325.864 394.129 325.816 394.139V394.139Z" fill="#F4C345"/>
<path d="M325.341 394.004C325.325 393.957 325.313 393.91 325.305 393.861C325.294 393.817 325.291 393.771 325.294 393.725C325.299 393.696 325.315 393.669 325.339 393.651C325.363 393.632 325.393 393.624 325.422 393.628C325.452 393.631 325.48 393.646 325.499 393.669C325.518 393.693 325.527 393.722 325.524 393.752C325.523 393.763 325.521 393.773 325.517 393.783C325.498 393.824 325.473 393.863 325.442 393.897C325.411 393.935 325.377 393.971 325.341 394.004V394.004Z" fill="#F4C345"/>
<path d="M325.35 396.823C325.31 396.823 325.271 396.808 325.242 396.781C325.212 396.755 325.194 396.718 325.19 396.678L324.878 393.349C324.876 393.328 324.878 393.307 324.884 393.287C324.89 393.266 324.901 393.248 324.914 393.231C324.928 393.215 324.945 393.202 324.963 393.192C324.982 393.182 325.003 393.176 325.024 393.174C326.034 393.087 326.828 393.678 326.913 394.579C326.995 395.456 326.365 396.394 325.415 396.81C325.394 396.819 325.372 396.823 325.35 396.823V396.823ZM325.213 393.487L325.488 396.415C326.201 396.019 326.657 395.29 326.593 394.609C326.53 393.94 325.962 393.487 325.216 393.487H325.213Z" fill="#BC1824"/>
<path d="M324.43 397.024C323.515 397.024 322.813 396.447 322.734 395.61C322.652 394.738 323.251 393.829 324.19 393.398C324.214 393.388 324.239 393.383 324.265 393.384C324.29 393.385 324.315 393.393 324.337 393.405C324.36 393.418 324.378 393.436 324.392 393.458C324.406 393.479 324.415 393.504 324.417 393.529L324.728 396.843C324.73 396.864 324.728 396.886 324.721 396.906C324.715 396.927 324.704 396.946 324.69 396.962C324.676 396.979 324.659 396.992 324.64 397.002C324.621 397.011 324.6 397.017 324.579 397.019C324.528 397.022 324.479 397.023 324.43 397.024ZM324.119 393.797C323.43 394.197 322.991 394.917 323.053 395.58C323.115 396.243 323.656 396.689 324.391 396.702L324.119 393.797Z" fill="#BC1824"/>
<path d="M320.201 402.755C321.395 401.983 321.863 400.584 321.247 399.631C320.631 398.678 319.163 398.531 317.969 399.303C316.775 400.076 316.306 401.474 316.923 402.427C317.539 403.38 319.007 403.527 320.201 402.755Z" fill="#E32529"/>
<path d="M319.461 403.057C318.198 403.385 317.09 402.75 316.986 401.64C316.882 400.531 317.821 399.366 319.084 399.039C320.013 398.798 320.857 399.078 321.281 399.684C320.858 398.972 319.921 398.631 318.886 398.899C317.546 399.246 316.55 400.481 316.661 401.657C316.771 402.833 317.947 403.506 319.286 403.159C319.633 403.068 319.963 402.918 320.26 402.716C320.012 402.868 319.743 402.983 319.461 403.057V403.057Z" fill="white"/>
<path d="M319.285 399.382L319.577 402.496C320.395 402.138 320.962 401.333 320.889 400.562C320.817 399.791 320.13 399.309 319.285 399.382Z" fill="#BC1824"/>
<path d="M318.555 399.579C317.757 399.945 317.208 400.737 317.28 401.497C317.351 402.257 318.019 402.734 318.846 402.679L318.555 399.579Z" fill="#BC1824"/>
<path d="M318.555 399.579C317.757 399.945 317.208 400.737 317.28 401.497C317.351 402.257 318.019 402.734 318.846 402.679L318.555 399.579Z" fill="#BC1824"/>
<path d="M318.666 400.618C318.405 400.738 318.225 400.998 318.248 401.246C318.271 401.495 318.49 401.652 318.761 401.633L318.666 400.618Z" fill="#E32529"/>
<path d="M319.371 400.436C319.642 400.417 319.861 400.574 319.884 400.823C319.907 401.072 319.728 401.331 319.466 401.451L319.371 400.436Z" fill="#E32529"/>
<path d="M318.589 403.416C318.098 403.416 317.64 403.283 317.273 403.026C316.823 402.71 316.546 402.229 316.493 401.673C316.376 400.421 317.429 399.105 318.842 398.739C319.599 398.542 320.347 398.65 320.893 399.032C321.344 399.349 321.621 399.829 321.673 400.385C321.791 401.637 320.737 402.953 319.325 403.319C319.084 403.382 318.837 403.415 318.589 403.416V403.416ZM319.578 398.974C319.358 398.975 319.138 399.004 318.925 399.06C317.663 399.387 316.72 400.545 316.823 401.643C316.866 402.101 317.093 402.496 317.463 402.755C317.93 403.084 318.578 403.172 319.242 403C320.504 402.673 321.447 401.515 321.344 400.417C321.301 399.959 321.073 399.564 320.703 399.305C320.392 399.086 320.001 398.974 319.578 398.974V398.974Z" fill="#6C174D"/>
<path d="M318.505 402.048C318.53 402.084 318.551 402.121 318.57 402.16C318.59 402.196 318.604 402.234 318.613 402.274C318.615 402.286 318.615 402.299 318.612 402.311C318.61 402.323 318.605 402.335 318.598 402.345C318.591 402.355 318.581 402.364 318.571 402.371C318.56 402.378 318.549 402.382 318.536 402.385C318.524 402.387 318.511 402.387 318.499 402.384C318.487 402.381 318.475 402.376 318.465 402.369C318.455 402.362 318.446 402.353 318.439 402.343C318.432 402.332 318.428 402.32 318.425 402.308C318.424 402.3 318.424 402.293 318.424 402.285C318.428 402.244 318.438 402.205 318.454 402.167C318.468 402.126 318.485 402.086 318.505 402.048V402.048Z" fill="#F4C345"/>
<path d="M318.078 401.875C318.08 401.92 318.079 401.965 318.075 402.01C318.073 402.053 318.065 402.095 318.052 402.136C318.047 402.147 318.041 402.158 318.032 402.167C318.024 402.176 318.014 402.184 318.002 402.189C317.991 402.194 317.979 402.197 317.966 402.198C317.954 402.198 317.941 402.196 317.93 402.192C317.918 402.188 317.907 402.181 317.898 402.173C317.889 402.164 317.881 402.154 317.876 402.143C317.871 402.131 317.868 402.119 317.867 402.106C317.867 402.094 317.869 402.082 317.873 402.07C317.876 402.063 317.879 402.056 317.883 402.05C317.908 402.015 317.937 401.984 317.97 401.958C318.004 401.928 318.04 401.9 318.078 401.875V401.875Z" fill="#F4C345"/>
<path d="M317.852 401.448C317.832 401.487 317.811 401.525 317.786 401.561C317.765 401.596 317.739 401.628 317.709 401.655C317.699 401.664 317.688 401.67 317.676 401.675C317.664 401.679 317.651 401.681 317.638 401.68C317.625 401.679 317.613 401.676 317.601 401.67C317.59 401.664 317.58 401.656 317.571 401.647C317.563 401.637 317.557 401.625 317.553 401.613C317.549 401.601 317.548 401.588 317.549 401.575C317.551 401.563 317.554 401.55 317.561 401.539C317.567 401.528 317.575 401.518 317.585 401.51C317.591 401.505 317.598 401.501 317.605 401.497C317.642 401.48 317.681 401.468 317.722 401.463C317.765 401.455 317.808 401.45 317.852 401.448V401.448Z" fill="#F4C345"/>
<path d="M317.902 400.917C317.867 400.938 317.831 400.956 317.794 400.972C317.761 400.989 317.725 401 317.688 401.005C317.662 401.008 317.637 401.001 317.617 400.985C317.598 400.969 317.585 400.946 317.583 400.92C317.58 400.895 317.587 400.87 317.603 400.85C317.619 400.831 317.642 400.818 317.668 400.815C317.676 400.814 317.685 400.814 317.693 400.815C317.73 400.823 317.765 400.836 317.798 400.855C317.834 400.873 317.869 400.894 317.902 400.917V400.917Z" fill="#F4C345"/>
<path d="M318.217 400.468C318.178 400.462 318.139 400.454 318.101 400.442C318.066 400.433 318.032 400.419 318.001 400.399C317.98 400.385 317.967 400.363 317.962 400.339C317.958 400.314 317.963 400.289 317.977 400.268C317.991 400.248 318.013 400.233 318.037 400.229C318.062 400.224 318.087 400.228 318.108 400.242C318.115 400.247 318.122 400.252 318.127 400.259C318.15 400.288 318.167 400.321 318.179 400.355C318.195 400.392 318.207 400.429 318.217 400.468V400.468Z" fill="#F4C345"/>
<path d="M320.03 401.541C320.065 401.564 320.098 401.589 320.129 401.617C320.159 401.642 320.185 401.671 320.207 401.704C320.214 401.715 320.218 401.728 320.22 401.741C320.221 401.755 320.22 401.768 320.216 401.781C320.212 401.794 320.205 401.806 320.196 401.816C320.187 401.826 320.176 401.834 320.164 401.84C320.152 401.845 320.139 401.848 320.125 401.848C320.112 401.848 320.098 401.845 320.086 401.84C320.074 401.834 320.063 401.826 320.054 401.816C320.045 401.806 320.038 401.794 320.034 401.781C320.024 401.743 320.02 401.704 320.022 401.666C320.022 401.624 320.024 401.582 320.03 401.541Z" fill="#F4C345"/>
<path d="M320.291 401.064C320.33 401.06 320.37 401.058 320.409 401.06C320.445 401.059 320.482 401.064 320.517 401.075C320.541 401.083 320.56 401.101 320.571 401.124C320.582 401.146 320.583 401.173 320.575 401.197C320.566 401.22 320.549 401.24 320.526 401.251C320.503 401.262 320.477 401.263 320.453 401.255C320.445 401.252 320.437 401.248 320.43 401.243C320.401 401.22 320.376 401.193 320.355 401.163C320.331 401.132 320.31 401.099 320.291 401.064V401.064Z" fill="#F4C345"/>
<path d="M320.285 400.534C320.314 400.505 320.345 400.478 320.378 400.454C320.407 400.43 320.44 400.411 320.475 400.397C320.488 400.392 320.502 400.39 320.515 400.391C320.529 400.392 320.542 400.396 320.554 400.403C320.566 400.41 320.576 400.419 320.584 400.43C320.593 400.441 320.598 400.453 320.601 400.466C320.604 400.48 320.604 400.494 320.601 400.507C320.598 400.52 320.593 400.533 320.584 400.544C320.576 400.555 320.566 400.564 320.554 400.57C320.542 400.577 320.529 400.581 320.515 400.582C320.477 400.583 320.439 400.579 320.403 400.569C320.363 400.56 320.323 400.549 320.285 400.534Z" fill="#F4C345"/>
<path d="M320.014 400.135C320.024 400.092 320.037 400.05 320.054 400.009C320.067 399.97 320.086 399.933 320.11 399.9C320.125 399.88 320.148 399.868 320.172 399.865C320.197 399.862 320.222 399.869 320.241 399.884C320.261 399.899 320.274 399.921 320.278 399.945C320.282 399.97 320.276 399.995 320.261 400.015C320.257 400.021 320.252 400.027 320.246 400.032C320.213 400.057 320.176 400.077 320.137 400.091C320.097 400.109 320.056 400.123 320.014 400.135V400.135Z" fill="#F4C345"/>
<path d="M319.568 400.009C319.557 399.965 319.548 399.921 319.542 399.877C319.535 399.835 319.533 399.793 319.538 399.751C319.539 399.738 319.543 399.726 319.549 399.715C319.555 399.703 319.563 399.693 319.573 399.685C319.583 399.678 319.595 399.672 319.607 399.668C319.62 399.665 319.633 399.664 319.645 399.666C319.658 399.668 319.67 399.672 319.681 399.679C319.692 399.685 319.702 399.694 319.709 399.704C319.717 399.715 319.722 399.726 319.725 399.739C319.728 399.751 319.729 399.764 319.726 399.777C319.725 399.784 319.723 399.791 319.721 399.798C319.704 399.837 319.682 399.874 319.655 399.906C319.629 399.942 319.6 399.977 319.568 400.009Z" fill="#F4C345"/>
<path d="M319.579 402.662C319.537 402.662 319.498 402.646 319.467 402.619C319.437 402.591 319.418 402.553 319.414 402.512L319.122 399.398C319.12 399.376 319.122 399.354 319.129 399.333C319.135 399.313 319.146 399.293 319.16 399.276C319.174 399.26 319.191 399.246 319.21 399.236C319.229 399.226 319.251 399.219 319.272 399.218C320.225 399.135 320.976 399.694 321.056 400.546C321.134 401.372 320.54 402.256 319.645 402.648C319.624 402.657 319.602 402.662 319.579 402.662V402.662ZM319.467 399.541L319.721 402.24C320.371 401.87 320.784 401.201 320.726 400.577C320.669 399.964 320.15 399.547 319.468 399.541H319.467Z" fill="#BC1824"/>
<path d="M318.716 402.849C317.853 402.849 317.189 402.305 317.114 401.513C317.037 400.691 317.601 399.835 318.485 399.429C318.509 399.418 318.536 399.413 318.562 399.414C318.589 399.415 318.614 399.423 318.637 399.436C318.66 399.449 318.679 399.468 318.694 399.49C318.708 399.512 318.717 399.538 318.719 399.564L319.01 402.664C319.012 402.686 319.01 402.708 319.003 402.729C318.997 402.75 318.986 402.77 318.972 402.787C318.957 402.804 318.94 402.817 318.92 402.827C318.9 402.837 318.879 402.843 318.857 402.845C318.809 402.848 318.762 402.849 318.716 402.849ZM318.413 399.841C317.786 400.215 317.387 400.875 317.444 401.481C317.501 402.088 317.993 402.498 318.664 402.518L318.413 399.841Z" fill="#BC1824"/>
<path d="M315.693 400.693C313.944 400.765 313.909 401.652 314.465 403.02C315.515 402.582 316.211 401.81 315.693 400.693Z" fill="#5BB25B"/>
<path d="M314.424 403.326C314.389 403.326 314.355 403.316 314.327 403.296C314.299 403.275 314.278 403.247 314.267 403.214C314 402.433 313.804 401.637 314.177 401.103C314.436 400.732 314.932 400.544 315.691 400.528C315.722 400.527 315.753 400.535 315.779 400.551C315.806 400.567 315.828 400.591 315.842 400.619C316.063 401.057 316.101 401.491 315.955 401.909C315.761 402.467 315.242 402.965 314.493 403.311C314.471 403.321 314.448 403.326 314.424 403.326V403.326ZM315.59 400.863C315.006 400.89 314.632 401.031 314.448 401.294C314.185 401.671 314.322 402.315 314.52 402.929C315.09 402.631 315.494 402.226 315.643 401.801C315.748 401.5 315.73 401.185 315.59 400.863Z" fill="#651946"/>
<path d="M315.745 400.85C315.628 400.904 315.518 400.973 315.418 401.055C315.31 401.143 315.211 401.242 315.122 401.349C314.94 401.572 314.788 401.831 314.662 402.114C314.663 401.957 314.685 401.801 314.725 401.649C314.766 401.494 314.824 401.344 314.898 401.202C314.973 401.054 315.072 400.918 315.19 400.801C315.312 400.683 315.464 400.581 315.639 400.536C315.679 400.527 315.721 400.532 315.757 400.552C315.793 400.571 315.82 400.603 315.834 400.642C315.848 400.681 315.847 400.723 315.831 400.761C315.816 400.799 315.787 400.829 315.75 400.847L315.745 400.85Z" fill="#651B47"/>
<path d="M318.859 395.92C320.408 395.103 320.883 395.853 321.09 397.315C319.961 397.463 318.973 397.146 318.859 395.92Z" fill="#5BB25B"/>
<path d="M320.834 397.599C320.178 397.599 319.622 397.428 319.244 397.104C318.908 396.815 318.723 396.421 318.694 395.931C318.692 395.899 318.699 395.868 318.714 395.841C318.729 395.814 318.751 395.791 318.779 395.776C319.443 395.409 319.966 395.323 320.376 395.513C320.967 395.787 321.198 396.574 321.359 397.384C321.364 397.407 321.364 397.43 321.359 397.453C321.354 397.475 321.344 397.497 321.33 397.515C321.316 397.534 321.298 397.549 321.278 397.561C321.258 397.572 321.236 397.579 321.212 397.581C321.083 397.593 320.957 397.599 320.834 397.599ZM319.033 396.014C319.075 396.363 319.218 396.644 319.459 396.852C319.801 397.145 320.355 397.291 320.996 397.263C320.859 396.632 320.654 396.006 320.236 395.813C319.946 395.678 319.552 395.744 319.033 396.014Z" fill="#651946"/>
<path d="M318.825 395.758C318.999 395.709 319.182 395.72 319.347 395.761C319.508 395.803 319.661 395.871 319.801 395.961C319.936 396.047 320.061 396.147 320.174 396.261C320.286 396.372 320.383 396.497 320.463 396.632C320.223 396.454 319.96 396.309 319.681 396.201C319.551 396.153 319.416 396.117 319.278 396.095C319.151 396.074 319.021 396.07 318.893 396.082H318.887C318.846 396.086 318.804 396.075 318.771 396.05C318.738 396.025 318.715 395.988 318.708 395.948C318.7 395.907 318.708 395.865 318.73 395.83C318.752 395.794 318.786 395.769 318.826 395.757L318.825 395.758Z" fill="#651B47"/>
<path d="M325.744 401.422C324.544 400.31 323.934 400.871 323.393 402.141C324.375 402.548 325.344 402.501 325.744 401.422Z" fill="#5BB25B"/>
<path d="M324.305 402.564C323.969 402.564 323.599 402.493 323.216 402.35C323.196 402.343 323.177 402.331 323.162 402.316C323.146 402.301 323.134 402.283 323.126 402.262C323.118 402.242 323.114 402.221 323.115 402.199C323.116 402.177 323.122 402.156 323.131 402.137C323.473 401.446 323.872 400.791 324.471 400.686C324.888 400.613 325.339 400.818 325.849 401.31C325.87 401.331 325.885 401.356 325.892 401.385C325.899 401.413 325.898 401.443 325.889 401.471C325.744 401.906 325.481 402.217 325.108 402.396C324.875 402.508 324.602 402.564 324.305 402.564ZM323.488 402.117C324.06 402.298 324.595 402.299 324.975 402.117C325.243 401.988 325.441 401.769 325.562 401.465C325.159 401.095 324.819 400.94 324.524 400.991C324.101 401.065 323.764 401.581 323.488 402.117V402.117Z" fill="#651946"/>
<path d="M325.674 401.56C325.561 401.518 325.443 401.49 325.323 401.478C325.193 401.465 325.063 401.464 324.933 401.476C324.655 401.506 324.383 401.573 324.123 401.675C324.228 401.572 324.346 401.484 324.473 401.411C324.602 401.335 324.74 401.275 324.883 401.23C325.031 401.182 325.185 401.159 325.341 401.16C325.499 401.163 325.667 401.197 325.812 401.283C325.844 401.304 325.868 401.335 325.879 401.372C325.89 401.408 325.886 401.448 325.87 401.482C325.853 401.517 325.825 401.544 325.789 401.559C325.754 401.573 325.715 401.574 325.679 401.562L325.674 401.56Z" fill="#651B47"/>
<path d="M312.063 404.23C312.158 404.236 312.247 404.244 312.34 404.254C312.432 404.264 312.522 404.277 312.615 404.294C312.709 404.309 312.803 404.33 312.895 404.357C312.99 404.386 313.087 404.416 313.194 404.482L313.206 404.49C313.232 404.506 313.254 404.526 313.272 404.551C313.29 404.575 313.302 404.603 313.309 404.633C313.316 404.662 313.317 404.693 313.313 404.722C313.308 404.752 313.297 404.781 313.281 404.807C313.265 404.832 313.245 404.855 313.22 404.872C313.195 404.89 313.168 404.903 313.138 404.91C313.109 404.917 313.078 404.918 313.048 404.913C313.019 404.908 312.99 404.898 312.964 404.882C312.952 404.874 312.94 404.865 312.93 404.855C312.891 404.82 312.822 404.782 312.752 404.75C312.677 404.716 312.601 404.686 312.523 404.661C312.443 404.634 312.361 404.61 312.278 404.588C312.195 404.567 312.109 404.546 312.028 404.529H312.025C311.987 404.522 311.953 404.501 311.931 404.469C311.908 404.438 311.899 404.4 311.904 404.362C311.909 404.324 311.928 404.289 311.958 404.264C311.987 404.24 312.025 404.228 312.063 404.23V404.23Z" fill="#5BB25B"/>
<path d="M312.063 404.23C312.158 404.236 312.247 404.244 312.34 404.254C312.432 404.264 312.522 404.277 312.615 404.294C312.709 404.309 312.803 404.33 312.895 404.357C312.99 404.386 313.087 404.416 313.194 404.482L313.206 404.49C313.232 404.506 313.254 404.526 313.272 404.551C313.29 404.575 313.302 404.603 313.309 404.633C313.316 404.662 313.317 404.693 313.313 404.722C313.308 404.752 313.297 404.781 313.281 404.807C313.265 404.832 313.245 404.855 313.22 404.872C313.195 404.89 313.168 404.903 313.138 404.91C313.109 404.917 313.078 404.918 313.048 404.913C313.019 404.908 312.99 404.898 312.964 404.882C312.952 404.874 312.94 404.865 312.93 404.855C312.891 404.82 312.822 404.782 312.752 404.75C312.677 404.716 312.601 404.686 312.523 404.661C312.443 404.634 312.361 404.61 312.278 404.588C312.195 404.567 312.109 404.546 312.028 404.529H312.025C311.987 404.522 311.953 404.501 311.931 404.469C311.908 404.438 311.899 404.4 311.904 404.362C311.909 404.324 311.928 404.289 311.958 404.264C311.987 404.24 312.025 404.228 312.063 404.23V404.23Z" fill="#6C174D"/>
<path d="M313.084 405.047C313.018 405.047 312.952 405.029 312.895 404.994C312.876 404.982 312.858 404.968 312.841 404.953C312.832 404.944 312.795 404.915 312.696 404.869C312.626 404.837 312.554 404.809 312.48 404.786C312.404 404.761 312.325 404.737 312.243 404.716C312.162 404.694 312.076 404.674 312 404.658C311.93 404.645 311.867 404.605 311.825 404.546C311.783 404.488 311.765 404.416 311.774 404.345C311.783 404.274 311.818 404.209 311.873 404.163C311.928 404.117 311.999 404.094 312.07 404.098V404.098C312.162 404.103 312.252 404.111 312.353 404.122C312.45 404.133 312.545 404.146 312.637 404.163C312.736 404.179 312.834 404.202 312.93 404.23C313.043 404.264 313.144 404.298 313.261 404.369L313.273 404.377C313.34 404.419 313.391 404.481 313.42 404.554C313.448 404.627 313.452 404.708 313.43 404.784C313.409 404.859 313.363 404.926 313.301 404.973C313.238 405.021 313.162 405.047 313.083 405.047H313.084ZM312.055 404.361C312.051 404.361 312.047 404.363 312.043 404.365C312.04 404.368 312.037 404.372 312.036 404.376C312.036 404.381 312.037 404.387 312.039 404.391C312.041 404.393 312.042 404.395 312.044 404.396C312.047 404.397 312.049 404.398 312.051 404.399C312.135 404.416 312.224 404.437 312.311 404.46C312.399 404.484 312.484 404.508 312.564 404.535C312.647 404.562 312.727 404.593 312.806 404.629C312.901 404.673 312.973 404.716 313.018 404.758C313.023 404.762 313.028 404.766 313.033 404.769C313.055 404.782 313.081 404.785 313.106 404.779C313.131 404.773 313.152 404.757 313.165 404.735C313.179 404.713 313.183 404.687 313.178 404.662C313.172 404.637 313.157 404.616 313.136 404.602L313.123 404.594C313.033 404.539 312.952 404.512 312.855 404.483C312.768 404.458 312.68 404.438 312.591 404.423C312.503 404.407 312.416 404.394 312.324 404.384C312.228 404.374 312.142 404.367 312.055 404.361H312.055Z" fill="#651946"/>
<path d="M312.272 404.409C311.738 402.458 309.496 404.049 309.496 404.049C309.496 404.049 311.259 406.159 312.272 404.409Z" fill="#5BB25B"/>
<path d="M312.26 404.429C312.264 404.422 312.268 404.416 312.272 404.409C311.738 402.458 309.496 404.049 309.496 404.049C309.496 404.049 309.556 404.121 309.66 404.227C310.081 403.96 311.704 403.044 312.26 404.429Z" fill="white"/>
<path d="M311.218 405.236C310.249 405.236 309.277 404.184 309.234 404.138C309.221 404.124 309.211 404.107 309.205 404.089C309.2 404.07 309.198 404.051 309.2 404.032C309.203 404.013 309.209 403.995 309.219 403.979C309.229 403.963 309.242 403.949 309.258 403.938C309.315 403.901 310.646 403.034 311.601 403.393C311.994 403.541 312.263 403.872 312.401 404.375C312.405 404.392 312.406 404.409 312.404 404.427C312.402 404.444 312.396 404.461 312.387 404.476C312.125 404.93 311.778 405.183 311.357 405.228C311.311 405.233 311.265 405.236 311.218 405.236V405.236ZM309.543 404.075C309.832 404.355 310.622 405.042 311.329 404.966C311.647 404.932 311.917 404.739 312.131 404.392C312.013 404.005 311.804 403.753 311.508 403.641C310.842 403.389 309.895 403.872 309.543 404.075Z" fill="#651946"/>
<path d="M312.256 404.54C312.129 404.533 312.003 404.518 311.879 404.495C311.754 404.474 311.63 404.446 311.506 404.418C311.259 404.36 311.012 404.297 310.768 404.214C311.025 404.197 311.28 404.198 311.534 404.205C311.661 404.209 311.788 404.213 311.914 404.225C312.04 404.235 312.165 404.252 312.289 404.277C312.322 404.284 312.351 404.303 312.37 404.33C312.389 404.358 312.397 404.391 312.393 404.424C312.389 404.457 312.372 404.487 312.346 404.509C312.321 404.53 312.288 404.541 312.255 404.539L312.256 404.54Z" fill="#651B47"/>
<path d="M311.172 405.235C311.341 405.085 311.512 404.936 311.685 404.789C311.858 404.642 312.032 404.497 312.215 404.356C312.243 404.337 312.277 404.329 312.311 404.334C312.344 404.339 312.374 404.357 312.395 404.384C312.416 404.411 312.425 404.445 312.422 404.479C312.418 404.513 312.402 404.544 312.376 404.566C312.37 404.571 312.362 404.576 312.355 404.579H312.354C312.155 404.679 311.957 404.786 311.76 404.897C311.563 405.007 311.367 405.12 311.172 405.235Z" fill="#651946"/>
<path d="M312.28 404.434C312.28 404.434 311.142 404.503 310.881 406.473C310.881 406.473 313.206 405.733 312.28 404.434Z" fill="#5BB25B"/>
<path d="M311.209 406.29C311.423 404.675 312.343 404.591 312.375 404.589C312.347 404.535 312.315 404.484 312.28 404.435C312.28 404.435 311.142 404.504 310.881 406.473C310.881 406.473 311.382 406.314 311.825 406.013C311.629 406.125 311.423 406.218 311.209 406.29V406.29Z" fill="white"/>
<path d="M310.882 406.605C310.863 406.605 310.845 406.601 310.828 406.594C310.81 406.586 310.795 406.574 310.783 406.56C310.77 406.546 310.761 406.53 310.756 406.512C310.75 406.494 310.749 406.475 310.751 406.456C311.023 404.402 312.222 404.306 312.272 404.303C312.295 404.302 312.317 404.306 312.337 404.316C312.358 404.325 312.375 404.34 312.388 404.358C312.622 404.686 312.687 405.014 312.581 405.332C312.309 406.149 310.979 406.581 310.922 406.599C310.909 406.603 310.896 406.605 310.882 406.605V406.605ZM312.218 404.578C311.99 404.63 311.292 404.898 311.047 406.271C311.413 406.124 312.159 405.766 312.331 405.248C312.403 405.033 312.366 404.813 312.218 404.578Z" fill="#651946"/>
<path d="M311.637 405.293C311.72 405.133 311.807 404.975 311.896 404.817C311.985 404.66 312.076 404.504 312.18 404.349C312.2 404.319 312.23 404.299 312.265 404.292C312.299 404.285 312.335 404.292 312.365 404.312C312.394 404.332 312.414 404.362 312.421 404.397C312.428 404.431 312.421 404.467 312.401 404.497C312.395 404.506 312.388 404.514 312.38 404.521C312.251 404.638 312.125 404.766 312.002 404.896C311.879 405.025 311.756 405.158 311.637 405.293Z" fill="#651946"/>
<path d="M312.271 404.429C312.271 404.429 311.21 404.012 311.571 402.058C311.571 402.058 313.552 403.48 312.271 404.429Z" fill="#5BB25B"/>
<path d="M311.879 402.312C311.781 402.222 311.678 402.137 311.571 402.058C311.21 404.012 312.271 404.429 312.271 404.429C312.286 404.418 312.301 404.406 312.316 404.395C312.104 404.238 311.556 403.687 311.879 402.312Z" fill="white"/>
<path d="M312.27 404.561C312.254 404.561 312.237 404.557 312.222 404.551C312.175 404.533 311.065 404.071 311.441 402.034C311.445 402.012 311.454 401.991 311.468 401.974C311.482 401.957 311.501 401.943 311.521 401.935C311.542 401.926 311.565 401.924 311.587 401.926C311.609 401.929 311.63 401.937 311.648 401.95C311.696 401.985 312.828 402.807 312.834 403.668C312.837 404.003 312.674 404.294 312.349 404.535C312.327 404.552 312.299 404.561 312.27 404.561ZM311.665 402.301C311.474 403.682 312.055 404.154 312.255 404.273C312.468 404.096 312.572 403.898 312.57 403.671C312.566 403.125 311.968 402.555 311.665 402.301Z" fill="#651946"/>
<path d="M311.924 403.414C311.996 403.579 312.071 403.742 312.148 403.904C312.226 404.066 312.305 404.227 312.392 404.377C312.408 404.408 312.412 404.443 312.402 404.476C312.393 404.51 312.371 404.538 312.341 404.555C312.311 404.572 312.275 404.577 312.242 404.569C312.208 404.561 312.18 404.539 312.161 404.51C312.156 404.501 312.152 404.49 312.148 404.48C312.098 404.3 312.06 404.124 312.023 403.946C311.987 403.769 311.954 403.591 311.924 403.414Z" fill="#651946"/>
<path d="M310.26 409.765C310.263 409.772 310.268 409.778 310.274 409.782C310.283 409.789 310.293 409.793 310.303 409.795C310.346 409.803 310.389 409.803 310.431 409.795C310.534 409.78 310.647 409.741 310.756 409.695C310.977 409.601 311.195 409.478 311.407 409.348C311.832 409.084 312.242 408.789 312.642 408.482C313.043 408.174 313.433 407.851 313.814 407.519C313.909 407.435 314.004 407.352 314.098 407.267C314.193 407.182 314.283 407.097 314.382 407.011C314.431 406.969 314.478 406.925 314.528 406.884L314.678 406.763L314.754 406.702L314.831 406.645L314.987 406.529C315.828 405.935 316.761 405.491 317.722 405.15C318.203 404.978 318.691 404.831 319.186 404.708C319.679 404.582 320.179 404.483 320.683 404.41C319.687 404.612 318.711 404.899 317.765 405.266C317.294 405.45 316.832 405.659 316.383 405.892C315.938 406.125 315.51 406.391 315.106 406.69L314.957 406.805L314.883 406.863L314.811 406.924L314.668 407.045C314.621 407.086 314.576 407.129 314.53 407.171C314.438 407.254 314.346 407.346 314.253 407.432C314.161 407.519 314.067 407.607 313.973 407.693C313.596 408.039 313.21 408.373 312.813 408.695C312.415 409.016 312.007 409.327 311.571 409.606C311.353 409.744 311.129 409.877 310.883 409.986C310.76 410.039 310.632 410.089 310.483 410.114C310.4 410.13 310.315 410.13 310.232 410.114C310.18 410.103 310.131 410.083 310.087 410.053C310.041 410.021 310.002 409.979 309.974 409.93C309.953 409.892 309.948 409.847 309.959 409.806C309.971 409.764 309.998 409.728 310.035 409.707C310.073 409.685 310.117 409.679 310.159 409.689C310.201 409.7 310.237 409.726 310.26 409.763V409.765Z" fill="#6C174D"/>
<path d="M329.493 402.148C329.635 402.112 329.727 401.998 329.701 401.895C329.674 401.792 329.538 401.738 329.396 401.775C329.255 401.811 329.162 401.924 329.189 402.028C329.216 402.131 329.352 402.185 329.493 402.148Z" fill="#6C174D"/>
<path d="M328.308 401.59C328.538 401.531 328.688 401.346 328.645 401.179C328.601 401.011 328.38 400.923 328.15 400.983C327.921 401.042 327.77 401.226 327.813 401.394C327.857 401.562 328.078 401.65 328.308 401.59Z" fill="#6C174D"/>
<path d="M325.576 399.697C325.749 399.631 325.847 399.468 325.796 399.332C325.745 399.196 325.563 399.139 325.39 399.204C325.216 399.27 325.118 399.433 325.169 399.569C325.221 399.705 325.402 399.762 325.576 399.697Z" fill="#6C174D"/>
<path d="M328.722 396.414C328.842 396.369 328.91 396.256 328.875 396.162C328.839 396.068 328.713 396.028 328.594 396.073C328.474 396.119 328.406 396.232 328.441 396.326C328.477 396.42 328.603 396.459 328.722 396.414Z" fill="#6C174D"/>
<path d="M329.146 398.842C329.282 398.79 329.36 398.662 329.319 398.555C329.279 398.448 329.136 398.404 329 398.455C328.864 398.506 328.787 398.634 328.827 398.741C328.867 398.848 329.01 398.893 329.146 398.842Z" fill="#6C174D"/>
<path d="M326.573 397.821C326.606 397.909 326.542 398.015 326.43 398.057C326.318 398.099 326.2 398.062 326.167 397.974C326.134 397.886 326.198 397.781 326.31 397.738C326.422 397.696 326.54 397.733 326.573 397.821Z" fill="#6C174D"/>
<path d="M322.785 401.037C322.892 400.96 322.929 400.829 322.869 400.745C322.808 400.661 322.672 400.655 322.565 400.732C322.458 400.809 322.42 400.94 322.481 401.024C322.542 401.109 322.678 401.114 322.785 401.037Z" fill="#6C174D"/>
<path d="M323.317 398.749C323.423 398.673 323.46 398.543 323.4 398.46C323.34 398.376 323.205 398.371 323.099 398.447C322.992 398.524 322.955 398.654 323.015 398.737C323.075 398.821 323.21 398.826 323.317 398.749Z" fill="#6C174D"/>
<path d="M316.093 404.837C316.234 404.735 316.284 404.563 316.204 404.452C316.124 404.342 315.945 404.334 315.804 404.436C315.663 404.538 315.614 404.71 315.693 404.821C315.773 404.931 315.952 404.939 316.093 404.837Z" fill="#6C174D"/>
<path d="M316.224 403.133C316.343 403.047 316.385 402.902 316.318 402.808C316.25 402.714 316.099 402.708 315.98 402.794C315.86 402.88 315.818 403.026 315.886 403.119C315.954 403.213 316.105 403.219 316.224 403.133Z" fill="#6C174D"/>
<path d="M313.639 406.351C313.717 406.294 313.745 406.198 313.7 406.137C313.656 406.075 313.556 406.071 313.478 406.128C313.4 406.184 313.372 406.28 313.416 406.341C313.461 406.403 313.56 406.407 313.639 406.351Z" fill="#6C174D"/>
<path d="M316.285 400.077C316.404 399.991 316.446 399.845 316.378 399.751C316.311 399.658 316.159 399.651 316.04 399.737C315.921 399.823 315.879 399.969 315.947 400.063C316.014 400.156 316.166 400.163 316.285 400.077Z" fill="#6C174D"/>
<path d="M318.648 398.456C318.804 398.344 318.859 398.154 318.771 398.031C318.682 397.909 318.485 397.901 318.329 398.013C318.173 398.125 318.118 398.316 318.207 398.438C318.295 398.56 318.493 398.568 318.648 398.456Z" fill="#6C174D"/>
<path d="M331.752 402.45C331.418 404.347 335.748 404.654 335.748 404.654C335.748 404.654 338.49 398.235 334.066 392.756C329.642 387.277 323.624 388.109 322.968 389.402C322.312 390.696 323.612 391.288 323.612 391.288C323.612 391.288 333.56 392.164 331.752 402.45Z" fill="#EB964F"/>
<path d="M334.067 392.756C329.642 387.278 323.624 388.109 322.968 389.402C322.384 390.555 323.351 391.15 323.569 391.267C323.307 390.984 323.088 390.519 323.425 389.854C323.569 389.571 323.988 389.312 324.598 389.148C324.457 389.237 324.378 389.34 324.395 389.435C324.43 389.626 324.84 389.714 325.311 389.629C325.782 389.545 326.136 389.321 326.102 389.13C326.09 389.06 326.029 389.006 325.934 388.967C328.083 388.913 331.197 389.818 333.743 392.971C337.856 398.065 335.307 404.032 335.307 404.032C335.307 404.032 332.451 403.829 331.736 402.712C331.824 404.375 335.749 404.654 335.749 404.654C335.749 404.654 338.491 398.235 334.067 392.756Z" fill="white"/>
<path d="M335.75 404.654C335.75 404.654 336.123 403.779 336.372 402.4C335.918 401.969 335.231 401.614 334.508 401.323C334.197 401.199 333.935 400.978 333.759 400.693C333.584 400.408 333.505 400.074 333.534 399.741C333.687 397.971 333.679 395.742 332.146 393.843C328.686 389.559 323.999 390.14 323.371 391.141C323.447 391.197 323.528 391.246 323.613 391.288C323.613 391.288 333.562 392.164 331.754 402.45C331.42 404.347 335.75 404.654 335.75 404.654Z" fill="#6C174D"/>
<path d="M335.749 404.843H335.736C335.614 404.834 332.741 404.618 331.829 403.451C331.589 403.142 331.5 402.794 331.566 402.418C332.104 399.361 331.64 396.85 330.187 394.956C327.835 391.886 323.637 391.48 323.595 391.476C323.574 391.474 323.553 391.468 323.533 391.459C323.507 391.447 322.886 391.158 322.668 390.537C322.536 390.159 322.58 389.749 322.8 389.316C323.057 388.808 323.93 388.418 325.079 388.297C327.586 388.032 331.303 389.034 334.214 392.637C336.538 395.514 336.879 398.648 336.756 400.771C336.623 403.068 335.952 404.662 335.923 404.729C335.909 404.763 335.884 404.791 335.853 404.812C335.822 404.832 335.786 404.843 335.749 404.843V404.843ZM331.752 402.45L331.938 402.483C331.891 402.754 331.952 402.994 332.127 403.217C332.832 404.12 335.049 404.396 335.624 404.453C335.783 404.033 336.272 402.608 336.378 400.735C336.495 398.683 336.163 395.654 333.919 392.875C331.104 389.389 327.526 388.42 325.117 388.673C323.973 388.794 323.298 389.169 323.136 389.488C322.966 389.824 322.928 390.134 323.024 390.41C323.165 390.817 323.56 391.049 323.664 391.103C323.869 391.124 324.865 391.246 326.124 391.695C327.404 392.151 329.2 393.047 330.485 394.722C332.006 396.705 332.495 399.316 331.938 402.483L331.752 402.45Z" fill="#6C174D"/>
<path d="M335.748 404.653C335.748 404.653 334.901 405.61 333.226 405.091C331.551 404.571 331.161 403.415 331.75 402.45C332.34 401.485 336.948 402.701 335.748 404.653Z" fill="#F5AE42"/>
<path d="M335.748 404.654C335.748 404.654 334.901 405.61 333.226 405.091C331.551 404.572 331.161 403.415 331.75 402.45C332.34 401.485 336.948 402.702 335.748 404.654Z" fill="#6C174D"/>
<path d="M334.192 405.436C333.892 405.436 333.551 405.39 333.172 405.272C332.013 404.913 331.573 404.314 331.407 403.875C331.223 403.387 331.288 402.846 331.591 402.352C331.819 401.978 332.388 401.913 332.826 401.924C333.969 401.954 335.5 402.533 335.979 403.417C336.209 403.842 336.186 404.304 335.91 404.753C335.904 404.762 335.897 404.771 335.89 404.779C335.861 404.813 335.292 405.436 334.192 405.436ZM332.736 402.302C332.314 402.302 332.009 402.392 331.913 402.549C331.67 402.946 331.617 403.359 331.761 403.741C331.953 404.25 332.494 404.666 333.284 404.91C334.733 405.359 335.496 404.643 335.598 404.539C335.795 404.208 335.811 403.9 335.647 403.597C335.245 402.856 333.859 402.33 332.817 402.302C332.789 402.302 332.763 402.302 332.736 402.302V402.302Z" fill="#6C174D"/>
<path d="M325.964 390.466C325.927 390.382 325.908 390.29 325.91 390.198C325.911 390.105 325.928 390.012 325.961 389.925C325.993 389.836 326.044 389.755 326.112 389.688C326.179 389.62 326.264 389.574 326.357 389.555C326.313 389.642 326.265 389.706 326.229 389.78C326.19 389.848 326.155 389.919 326.123 389.991C326.092 390.063 326.064 390.139 326.039 390.218C326.013 390.297 325.99 390.378 325.964 390.466Z" fill="#6D174D"/>
<path d="M326.465 390.798C326.438 390.675 326.445 390.548 326.465 390.424C326.487 390.298 326.53 390.177 326.59 390.065C326.65 389.95 326.732 389.849 326.832 389.768C326.858 389.748 326.883 389.728 326.91 389.711C326.936 389.693 326.966 389.679 326.994 389.665C327.023 389.651 327.053 389.639 327.083 389.631C327.114 389.621 327.144 389.614 327.175 389.607C327.091 389.705 327.005 389.78 326.936 389.874C326.864 389.96 326.799 390.053 326.742 390.15C326.684 390.249 326.633 390.352 326.589 390.459C326.544 390.567 326.505 390.679 326.465 390.798Z" fill="#6D174D"/>
<path d="M333.547 398.87C333.65 398.786 333.775 398.73 333.903 398.689C334.033 398.649 334.169 398.631 334.305 398.633C334.443 398.633 334.579 398.662 334.706 398.716C334.737 398.731 334.768 398.744 334.798 398.761C334.828 398.778 334.856 398.798 334.883 398.818C334.911 398.837 334.937 398.859 334.961 398.884C334.985 398.908 335.008 398.932 335.03 398.959C334.898 398.924 334.783 398.878 334.661 398.857C334.542 398.831 334.421 398.814 334.3 398.808C334.176 398.802 334.053 398.805 333.93 398.816C333.803 398.827 333.678 398.847 333.547 398.87Z" fill="#6D174D"/>
<path d="M333.336 399.744C333.5 399.66 333.681 399.612 333.864 399.585C334.05 399.559 334.238 399.56 334.423 399.588C334.469 399.597 334.516 399.602 334.561 399.614C334.606 399.627 334.652 399.639 334.698 399.653C334.743 399.667 334.786 399.687 334.829 399.705L334.894 399.733L334.956 399.767C334.996 399.792 335.037 399.815 335.077 399.841C335.116 399.867 335.15 399.901 335.186 399.93C335.204 399.944 335.221 399.96 335.238 399.976L335.285 400.028C335.315 400.062 335.345 400.098 335.373 400.135C335.207 400.05 335.058 399.958 334.892 399.901L334.832 399.876L334.77 399.857C334.729 399.844 334.689 399.828 334.647 399.817C334.605 399.806 334.563 399.796 334.521 399.785C334.48 399.774 334.436 399.768 334.394 399.76C334.222 399.73 334.047 399.714 333.873 399.713C333.693 399.712 333.514 399.723 333.336 399.744Z" fill="#6D174D"/>
<path d="M327.93 398.225C329.271 397.517 329.682 398.167 329.862 399.434C328.884 399.562 328.028 399.287 327.93 398.225Z" fill="#5BB25B"/>
<path d="M329.641 399.678C329.072 399.678 328.591 399.53 328.264 399.249C327.973 399 327.813 398.658 327.787 398.233C327.786 398.206 327.792 398.179 327.805 398.156C327.818 398.132 327.838 398.112 327.861 398.099C328.436 397.781 328.889 397.707 329.245 397.872C329.756 398.109 329.956 398.791 330.096 399.492C330.1 399.511 330.1 399.532 330.095 399.551C330.091 399.571 330.083 399.589 330.071 399.605C330.059 399.621 330.043 399.635 330.026 399.645C330.008 399.655 329.989 399.661 329.969 399.663C329.858 399.673 329.748 399.678 329.641 399.678ZM328.082 398.307C328.118 398.609 328.241 398.852 328.451 399.032C328.747 399.286 329.226 399.412 329.782 399.389C329.663 398.842 329.486 398.301 329.124 398.133C328.872 398.015 328.531 398.072 328.082 398.307Z" fill="#651946"/>
<path d="M327.9 398.085C328.051 398.042 328.21 398.052 328.352 398.087C328.491 398.123 328.624 398.182 328.745 398.26C328.863 398.334 328.971 398.421 329.069 398.52C329.165 398.616 329.249 398.723 329.319 398.841C329.11 398.687 328.883 398.561 328.641 398.468C328.528 398.426 328.411 398.395 328.292 398.376C328.182 398.358 328.069 398.354 327.958 398.365H327.953C327.917 398.368 327.882 398.358 327.853 398.336C327.825 398.314 327.806 398.283 327.799 398.248C327.793 398.213 327.8 398.176 327.818 398.146C327.837 398.116 327.867 398.093 327.901 398.083L327.9 398.085Z" fill="#651B47"/>
<path d="M54.5227 265.152C54.5227 267.603 54.5227 270.311 54.6538 273.146C54.6538 275.727 54.7804 278.047 54.7804 280.379C54.7804 286.311 54.5227 291.47 54.265 295.982C53.3608 302.311 51.0415 306.172 47.4291 307.736C43.8168 309.301 40.5978 310.042 37.8897 310.042C35.5201 310.035 33.1673 309.644 30.9227 308.885C28.4114 308.026 26.0998 306.668 24.127 304.893C22.1543 303.118 20.5612 300.961 19.4437 298.554C17.1379 293.007 15.0628 282.69 13.2543 267.861C11.3193 253.027 10.1619 238.844 9.63747 225.561C9.2577 212.279 9 201.957 9 194.755C9 182.892 9.38881 171.155 10.0308 159.418C11.1927 140.443 13.5211 124.063 17.1379 110.265C20.7548 96.4667 25.9088 87.5692 32.6136 83.5907C56.5933 71.1969 77.4385 65 95.1491 65C96.3065 65 97.4684 65.1311 98.6303 65.1311C117.054 66.0308 130.355 71.5782 138.755 81.7641C147.01 91.9546 151.265 103.949 151.265 117.616C151.235 120.941 151.019 124.262 150.618 127.563C148.041 144.969 143.14 160.566 136.047 174.374C129.358 187.521 120.992 199.746 111.158 210.741C102.548 220.369 93.1804 229.292 83.1456 237.425C73.8593 244.776 65.8615 250.708 59.0302 255.351C57.4795 256.513 56.0599 257.544 54.6448 258.443C54.5227 260.509 54.5227 262.702 54.5227 265.152ZM75.9119 195.659C82.8774 185.342 89.3259 173.477 95.2576 160.065C101.101 146.873 105.308 133.015 107.785 118.801C108.08 116.663 108.252 114.511 108.301 112.354C108.293 108.73 107.816 105.122 106.881 101.621C105.335 96.0779 102.885 92.0767 99.6475 89.3686C96.4104 86.6605 92.8117 85.2408 89.0727 85.2408C87.468 85.2281 85.8673 85.4026 84.303 85.7608C77.4671 87.1759 73.2083 91.5613 71.644 98.786C67.1766 117.735 63.9567 136.956 62.0051 156.326C59.9389 176.313 58.2661 196.174 57.1042 215.904C56.9731 216.809 56.9731 217.713 56.8465 218.617C62.5205 213.694 68.8364 206.085 75.9119 195.659Z" fill="#00D856"/>
<path d="M223.596 261.929C221.661 253.158 220.242 244.903 219.075 237.167C218.429 233.039 217.782 229.558 217.267 226.719C210.173 227.75 202.18 229.301 193.283 231.104C191.605 231.493 189.928 231.878 188.251 232.135V255.866C187.866 261.671 185.158 265.813 180.113 267.987C175.067 270.162 170.442 271.211 166.183 271.211C163.801 271.201 161.427 270.942 159.099 270.438C152.263 268.892 147.62 264.893 145.169 258.443C143.361 250.577 142.588 241.679 142.588 231.493C142.588 225.688 142.85 219.625 143.366 213.052C145.1 194.539 149.084 176.307 155.229 158.758C161.418 140.701 170.058 125.357 181.279 112.973C187.726 106.526 194.304 102.914 200.883 101.883C207.461 100.852 212.231 100.337 215.065 100.337C221.899 100.335 228.659 101.74 234.926 104.465C243.697 108.33 249.245 115.166 251.437 124.968C254.53 152.953 257.108 184.076 259.173 218.337C260.592 239.618 261.885 258.575 263.301 275.081V275.339C263.301 279.466 261.234 282.69 256.971 284.883C252.851 287.106 248.239 288.26 243.557 288.237H242.784C237.625 287.98 233.742 286.302 231.309 282.948C228.109 277.662 225.532 270.569 223.596 261.929ZM214.052 190.74C213.926 184.678 213.668 178.746 213.279 172.814C212.891 166.883 212.375 161.851 211.733 157.723C211.091 153.595 210.182 151.276 209.021 150.76C208.777 150.657 208.512 150.614 208.247 150.634C206.181 150.634 203.989 152.695 202.054 156.692C199.734 161.213 197.673 166.751 195.724 173.456C193.775 180.161 192.243 186.486 191.081 192.675C189.919 198.734 189.146 202.992 189.015 205.569C193.016 205.312 197.27 205.185 201.525 204.927C205.91 204.796 210.295 204.665 214.808 204.408C214.568 200.542 214.31 195.899 214.052 190.74Z" fill="#00D856"/>
<path d="M323.27 241.277C323.27 243.99 321.462 246.702 317.845 249.144C313.591 252.241 309.852 253.918 306.497 254.176C303.142 254.433 301.212 254.56 300.565 254.56C295.276 254.56 290.506 252.498 286.378 248.628C280.316 241.792 276.432 232.637 274.515 220.9C272.641 209.736 271.692 198.435 271.676 187.115C271.676 183.113 271.676 179.248 271.933 175.12C272.711 159.902 274.646 146.104 277.607 133.852C280.569 121.6 284.186 113.344 288.458 108.986C290.929 106.892 293.995 105.626 297.224 105.369C300.321 105.238 302.256 105.238 302.898 105.238C307.984 105.216 313.053 105.823 317.99 107.046C323.921 108.593 328.433 110.663 331.657 113.236C334.754 115.813 336.431 118.521 336.431 121.487C336.378 122.491 336.21 123.486 335.929 124.452C333.217 132.061 330.382 143.278 327.29 158.112C324.197 172.945 322.258 185.32 321.353 195.252C320.58 205.312 320.196 212.274 320.196 216.402C320.196 225.688 321.1 233.424 323.031 239.744C323.173 240.244 323.253 240.758 323.27 241.277V241.277Z" fill="#00D856"/>
<path d="M383.797 266.829C383.797 268.891 383.797 270.953 383.928 273.276C383.928 275.338 384.054 277.273 384.054 279.208C384.054 283.851 383.797 288.106 383.539 291.718C382.635 296.745 380.316 299.969 376.703 301.262C373.086 302.419 369.867 303.07 367.159 303.07C364.808 303.088 362.465 302.784 360.197 302.166C355.038 300.62 351.155 297.912 348.718 293.784C346.397 289.263 344.334 281.009 342.528 269.022C340.682 257.707 339.474 246.298 338.912 234.847C338.527 224.146 338.27 215.89 338.27 209.959C338.27 200.415 338.654 190.871 339.3 181.476C340.462 166.258 342.782 152.993 346.394 141.754C350.011 130.664 355.16 123.444 361.87 120.22C385.831 110.274 406.746 105.26 424.414 105.26C425.576 105.26 426.738 105.386 427.895 105.386C446.341 106.033 459.624 110.545 468.006 118.8C476.257 127.051 480.516 136.726 480.516 147.686C480.484 150.41 480.268 153.128 479.87 155.823C477.293 169.879 472.392 182.498 465.298 193.606C458.349 204.468 449.977 214.352 440.405 222.993C430.974 231.375 421.561 238.609 412.406 244.387C403.12 250.318 395.122 255.237 388.286 258.958C386.74 259.862 385.32 260.636 383.905 261.413C383.797 263.086 383.797 264.894 383.797 266.829ZM405.181 210.727C412.538 201.784 419.017 192.154 424.527 181.969C430.285 171.543 434.499 160.335 437.037 148.698C437.33 146.949 437.502 145.182 437.552 143.409C437.532 140.472 437.053 137.557 436.133 134.769C434.587 130.383 432.136 127.029 428.899 124.822C425.785 122.696 422.095 121.57 418.324 121.594C416.725 121.601 415.129 121.731 413.55 121.983C406.714 123.145 402.46 126.626 400.891 132.558C396.43 147.75 393.195 163.276 391.216 178.985C389.154 195.107 387.477 211.085 386.315 227.089C386.188 227.731 386.188 228.509 386.057 229.282C391.772 225.299 398.088 219.109 405.181 210.727Z" fill="#00D856"/>
<path d="M121.62 316.227C118.796 323.788 116.575 331.56 114.979 339.47C113.735 346.424 113.111 351.713 113.111 355.452C113.053 357.368 113.228 359.284 113.631 361.158C117.933 360.636 122.264 360.393 126.598 360.43H128.157C133.254 360.475 138.332 361.066 143.303 362.193C148.389 363.649 151.192 365.724 151.916 368.523C152.644 371.235 152.956 373.193 152.956 374.644C152.984 376.931 152.412 379.185 151.296 381.182C149.738 383.894 147.663 385.243 145.071 385.228C144.514 385.242 143.958 385.207 143.407 385.124C141.342 384.587 139.211 384.343 137.078 384.401C134.683 384.441 132.292 384.613 129.916 384.916C124.446 385.543 119.136 387.161 114.246 389.69C113.419 390.418 113.003 392.077 113.003 394.881V400.464C113.003 404.304 113.107 408.558 113.315 413.227C113.627 418.933 113.939 423.915 114.246 428.269C114.35 430.552 114.454 432.338 114.558 433.459C114.453 438.441 112.481 441.757 108.645 443.405C104.702 445.168 101.072 446 97.8527 446C95.6918 445.958 93.5394 445.714 91.4237 445.272C85.7136 444.029 81.3553 440.706 78.3488 435.416C73.019 424.046 69.7507 411.82 68.6963 399.307C67.6595 386.856 67.1411 376.896 67.1411 369.427C67.1229 359.477 67.6769 349.533 68.8003 339.647C70.7715 322.426 73.9905 308.207 78.6608 297.212C81.5333 290.935 86.4836 285.841 92.6761 282.79C98.9016 279.675 104.503 277.911 109.485 277.599C114.459 277.183 117.994 276.98 120.173 276.98C125.669 276.99 131.154 277.475 136.567 278.431C144.035 279.788 150.469 281.646 155.863 284.137C161.157 286.732 164.371 289.842 165.723 293.477C166.966 297.004 167.694 300.114 167.694 302.813C167.657 304.77 167.413 306.718 166.966 308.623C165.931 313.293 164.059 317.34 161.261 320.658C158.462 323.977 155.347 325.744 151.92 326.056C148.186 326.056 145.387 324.6 143.62 321.594C141.624 318.263 140.023 314.711 138.85 311.01C137.914 308.297 136.978 305.616 135.839 303.125C134.795 300.796 133.275 298.711 131.376 297.004C127.949 301.186 124.627 307.619 121.62 316.227Z" fill="white"/>
<path d="M260.963 333.66C258.06 324.735 253.494 317.89 247.476 313.012C239.384 307.099 229.739 303.675 218.542 302.74C216.362 302.532 214.079 302.532 211.9 302.532C202.811 302.592 193.795 304.17 185.226 307.202C176.093 310.313 169.352 315.399 164.682 322.457C163.538 324.527 163.023 326.295 163.023 327.746C163.023 328.886 163.538 330.133 164.578 331.585C165.84 333.246 167.43 334.631 169.248 335.654C170.202 336.182 171.075 336.846 171.839 337.625C172.137 337.936 172.321 338.339 172.359 338.769C172.351 339.103 172.242 339.428 172.047 339.7C168.312 344.673 165.098 351.22 162.399 359.52C159.899 367.261 158.638 375.348 158.664 383.482C158.664 384.106 158.664 386.801 158.768 391.575C158.872 396.349 161.481 402.159 166.549 409.112C171.522 416.061 179.932 420.523 191.763 422.702C197.008 423.593 202.317 424.046 207.637 424.059C217.443 424.068 227.124 421.861 235.957 417.603C244.877 413.348 251.934 406.395 257.016 396.747C262.131 387.18 264.98 376.566 265.344 365.723C265.448 364.06 265.448 362.504 265.448 360.949C265.471 351.667 263.955 342.446 260.963 333.66V333.66ZM227.557 375.891C226.429 383.21 224.189 390.313 220.915 396.955C217.8 403.284 214.17 406.901 209.915 407.846C204.309 407.019 200.371 404.532 198.088 400.273C196.012 396.539 194.973 392.077 194.973 386.886C194.973 386.059 195.077 383.984 195.285 380.453C195.389 376.926 196.736 371.863 199.02 365.307C201.275 358.939 204.312 352.875 208.062 347.255C208.734 346.168 209.092 344.916 209.097 343.638C209.097 341.563 207.854 339.28 205.155 336.689C202.564 334.094 198.206 332.846 192.084 332.747C191.945 332.168 191.875 331.574 191.876 330.979C191.876 329.622 192.292 327.452 193.233 324.753C194.168 321.955 195.945 319.048 198.319 316.245C200.692 313.659 203.482 312.302 206.805 312.302L207.632 312.406C214.378 313.238 219.563 316.973 223.004 323.302C226.444 329.632 228.501 337.412 229.229 346.545C229.437 349.258 229.541 352.043 229.541 354.742C229.487 361.835 228.823 368.911 227.557 375.891V375.891Z" fill="white"/>
<path d="M502.7 336.983C502.679 339.756 502.506 342.526 502.18 345.279C500.625 357.631 496.683 369.978 490.353 382.221C484.141 394.263 476.361 405.428 467.214 415.424C458.172 425.28 449.37 432.541 440.965 437.125C432.56 441.795 425.091 444.078 418.762 444.078C416.774 444.082 414.792 443.873 412.848 443.455C406.93 441.899 402.16 437.437 398.526 429.968C394.909 422.599 392.092 413.471 390.229 402.575C388.324 391.908 387.115 381.128 386.612 370.304C386.093 359.824 385.785 350.28 385.785 341.875C385.785 339.077 385.889 336.273 385.889 333.574C386.197 322.679 386.509 313.447 387.028 305.996C387.652 299.458 391.097 294.268 397.427 290.534C403.652 286.799 409.878 284.62 416.207 283.996C422.537 283.372 427.311 283.065 430.63 283.065C437.168 283.062 443.694 283.617 450.138 284.724C460.306 286.487 469.538 289.598 477.943 294.164C486.243 298.626 492.469 304.332 496.515 311.389C500.642 319.285 502.766 328.074 502.7 336.983ZM455.301 369.562C459.036 357.111 460.903 347.151 460.903 339.574C460.977 334.266 460.214 328.979 458.642 323.908C455.025 312.701 448.167 305.96 437.995 303.781H437.479C434.156 303.781 431.462 306.891 429.59 313.221C427.619 319.966 426.271 328.371 425.521 338.331C424.797 348.394 424.382 358.25 424.382 368.106V370.819C424.486 381.611 424.901 390.947 425.521 398.732C426.145 406.418 426.877 411.079 427.804 412.426C442.434 396.331 451.671 382.117 455.301 369.562Z" fill="white"/>
<path d="M374.062 339.366C371.675 332.001 366.796 325.351 359.328 319.654C351.859 313.958 341.379 310.612 327.992 309.798C326.229 309.694 324.466 309.694 322.906 309.694C316.047 309.694 310.247 310.309 305.558 311.534L305.283 311.607C304.046 311.936 302.829 312.336 301.639 312.805C297.755 314.283 294.975 316.164 293.302 318.411C285.657 324.781 276.601 336.721 272.957 358.603C272.898 358.942 272.844 359.286 272.785 359.63V359.661C272.681 360.317 272.582 360.986 272.491 361.678C272.069 364.772 271.861 367.891 271.867 371.014C271.867 375.892 272.491 381.598 273.735 388.343C274.982 394.984 278.093 400.898 282.971 406.084C288.257 411.072 294.59 414.818 301.507 417.047L320.776 363.468C321.228 362.265 322.042 361.519 322.951 361.519H326.568C327.472 361.519 328.313 362.274 328.742 363.477L347.491 416.048C351.817 414.336 355.846 411.954 359.431 408.991C363.79 405.256 367.628 399.546 370.947 392.077C374.166 384.609 376.241 376.308 377.172 367.175C377.38 364.915 377.484 362.713 377.484 360.43C377.466 353.788 376.345 346.735 374.062 339.366Z" fill="#212121"/>
<path d="M374.062 339.366C371.675 332.001 366.796 325.351 359.328 319.654C351.859 313.958 341.379 310.612 327.992 309.798C326.229 309.694 324.466 309.694 322.906 309.694C316.047 309.694 310.247 310.309 305.558 311.534L305.283 311.607C304.046 311.936 302.829 312.336 301.639 312.805C297.755 314.283 294.975 316.164 293.302 318.411C285.657 324.781 276.601 336.721 272.957 358.603C272.898 358.942 272.844 359.286 272.785 359.63V359.661C272.681 360.317 272.582 360.986 272.491 361.678C272.069 364.772 271.861 367.891 271.867 371.014C271.867 375.892 272.491 381.598 273.735 388.343C274.982 394.984 278.093 400.898 282.971 406.084C288.257 411.072 294.59 414.818 301.507 417.047L320.776 363.468C321.228 362.265 322.042 361.519 322.951 361.519H326.568C327.472 361.519 328.313 362.274 328.742 363.477L347.491 416.048C351.817 414.336 355.846 411.954 359.431 408.991C363.79 405.256 367.628 399.546 370.947 392.077C374.166 384.609 376.241 376.308 377.172 367.175C377.38 364.915 377.484 362.713 377.484 360.43C377.466 353.788 376.345 346.735 374.062 339.366Z" fill="white"/>
<path d="M342.957 351.23C341.954 349.371 340.597 348.341 337.763 347.215C332.848 345.23 327.61 344.166 322.31 344.077C318.055 344.018 313.778 344.552 309.547 345.085C308.19 345.253 306.929 346.265 305.627 346.894L305.817 347.405L342.957 351.23Z" fill="#EFEFEF"/>
<path d="M333.083 344.575C333.418 342.002 331.772 339.036 328.973 337.49C325.759 335.713 322.599 335.962 319.669 338.114C318.023 339.321 316.843 340.903 316.907 343.123L320.017 338.372C319.945 339.683 319.429 340.727 319.231 341.826C319.158 342.228 319.787 343.137 320.175 343.182C324.466 343.72 328.775 344.131 333.083 344.575Z" fill="#EFEFEF"/>
<path d="M338.093 352.174C336.181 351.975 334.531 351.776 332.872 351.659C332.485 351.674 332.118 351.835 331.845 352.111C330.796 353.16 329.802 354.263 328.789 355.339C331.493 356.333 335.874 354.955 338.093 352.174Z" fill="#EFEFEF"/>
<path d="M310.588 349.543C311.081 352.021 315.959 354.86 318.608 354.218C317.293 350.42 314.557 348.833 310.588 349.543Z" fill="#EFEFEF"/>
<path d="M323.522 354.38C323.516 353.424 323.458 352.468 323.35 351.518C323.304 351.317 323.21 351.13 323.076 350.972C322.942 350.815 322.773 350.692 322.581 350.614C321.067 350.374 319.534 350.261 317.961 350.099C318.431 353.63 319.756 354.638 323.522 354.38Z" fill="#EFEFEF"/>
<path d="M324.172 354.444C327.653 355.479 329.81 354.39 330.275 351.36L328.214 351.148C324.791 350.795 324.791 350.795 324.172 354.444Z" fill="#EFEFEF"/>
<path d="M305.582 348.924C306.459 351.094 310.555 353.576 312.956 353.567C311.893 352.663 310.465 351.881 309.687 350.678C308.629 349.077 307.327 348.815 305.582 348.924Z" fill="#EFEFEF"/>
<path d="M334.596 356.035C337.512 355.674 340.518 355.339 342.756 352.83C341.694 352.577 340.496 352.251 339.718 352.663C337.905 353.599 336.282 354.896 334.596 356.035Z" fill="#EFEFEF"/>
<path d="M342.96 351.23L305.832 347.405L305.643 346.894C306.945 346.265 308.201 345.253 309.562 345.085C313.794 344.552 318.071 344.018 322.325 344.077C327.621 344.168 332.854 345.232 337.765 347.215C340.6 348.341 341.956 349.376 342.96 351.23Z" fill="black"/>
<path d="M333.083 344.574C328.775 344.122 324.466 343.72 320.175 343.186C319.787 343.137 319.158 342.228 319.231 341.83C319.429 340.732 319.945 339.687 320.017 338.376L316.907 343.128C316.843 340.908 318.023 339.325 319.669 338.118C322.599 335.966 325.759 335.718 328.973 337.494C331.772 339.036 333.418 342.002 333.083 344.574Z" fill="black"/>
<path d="M338.093 352.174C335.86 354.955 331.493 356.334 328.789 355.316C329.802 354.24 330.796 353.137 331.845 352.088C332.118 351.813 332.485 351.651 332.872 351.636C334.517 351.776 336.181 351.975 338.093 352.174Z" fill="black"/>
<path d="M310.588 349.543C314.557 348.833 317.293 350.42 318.608 354.218C315.982 354.86 311.081 352.021 310.588 349.543Z" fill="black"/>
<path d="M323.522 354.38C319.756 354.638 318.431 353.63 317.961 350.104C319.534 350.266 321.067 350.379 322.581 350.619C322.773 350.697 322.942 350.82 323.076 350.977C323.21 351.135 323.304 351.322 323.35 351.523C323.458 352.472 323.515 353.426 323.522 354.38V354.38Z" fill="black"/>
<path d="M324.172 354.444C324.791 350.795 324.791 350.795 328.214 351.148L330.275 351.36C329.81 354.39 327.653 355.479 324.172 354.444Z" fill="black"/>
<path d="M305.582 348.923C307.35 348.81 308.652 349.073 309.687 350.678C310.465 351.88 311.893 352.662 312.956 353.566C310.555 353.58 306.437 351.098 305.582 348.923Z" fill="black"/>
<path d="M334.596 356.035C336.282 354.896 337.905 353.599 339.718 352.663C340.514 352.251 341.694 352.577 342.756 352.83C340.518 355.339 337.512 355.674 334.596 356.035Z" fill="black"/>
</svg>
