<svg width="550" height="353" viewBox="0 0 550 353" fill="none" xmlns="http://www.w3.org/2000/svg">
<path d="M219.109 59.5805C211.664 95.7715 212.118 114.145 219.109 153.383C226.101 192.622 280.08 195.376 275.054 153.383C270.027 111.391 352.303 100.173 355.414 59.5805C358.525 18.9879 315.451 0.601422 290.433 0.0106798C265.415 -0.580108 226.555 23.3897 219.109 59.5805Z" fill="url(#paint0_linear_91_9)"/>
<path d="M11.501 321.745V235.517H44.9476C49.4072 235.517 53.4364 236.709 57.0354 239.09C60.7125 241.39 63.6464 244.55 65.8371 248.575C68.0278 252.599 69.1231 257.074 69.1231 262.002C69.1231 266.929 68.0278 271.404 65.8371 275.428C63.6464 279.453 60.7125 282.696 57.0354 285.16C53.4364 287.541 49.4072 288.732 44.9476 288.732H24.1755V321.745H11.501ZM24.1755 275.921H44.7129C46.8253 275.921 48.7421 275.305 50.4634 274.073C52.1847 272.759 53.5537 271.077 54.5709 269.023C55.6662 266.888 56.2139 264.548 56.2139 262.002C56.2139 259.455 55.6662 257.157 54.5709 255.103C53.5537 253.05 52.1847 251.408 50.4634 250.176C48.7421 248.944 46.8253 248.328 44.7129 248.328H24.1755V275.921ZM105.389 322.977C100.304 322.977 95.6485 321.499 91.4237 318.542C87.277 315.586 83.9519 311.561 81.4484 306.47C78.9446 301.379 77.6929 295.63 77.6929 289.225C77.6929 282.737 78.9446 276.989 81.4484 271.979C84.0302 266.888 87.4726 262.904 91.7758 260.031C96.157 257.157 101.047 255.719 106.445 255.719C109.653 255.719 112.587 256.212 115.247 257.198C117.907 258.183 120.215 259.578 122.171 261.386C124.205 263.11 125.848 265.122 127.1 267.422C128.43 269.722 129.252 272.185 129.565 274.813L126.865 273.827V257.074H139.07V321.745H126.865V306.347L129.682 305.485C129.213 307.702 128.234 309.879 126.748 312.014C125.34 314.067 123.501 315.915 121.232 317.557C119.042 319.199 116.577 320.513 113.839 321.499C111.179 322.484 108.362 322.977 105.389 322.977ZM108.558 311.275C112.235 311.275 115.482 310.33 118.298 308.441C121.115 306.553 123.305 303.966 124.87 300.681C126.513 297.314 127.335 293.496 127.335 289.225C127.335 285.037 126.513 281.301 124.87 278.015C123.305 274.73 121.115 272.143 118.298 270.255C115.482 268.367 112.235 267.422 108.558 267.422C104.959 267.422 101.751 268.367 98.9345 270.255C96.1961 272.143 94.0055 274.73 92.3625 278.015C90.7977 281.301 90.0154 285.037 90.0154 289.225C90.0154 293.496 90.7977 297.314 92.3625 300.681C94.0055 303.966 96.1961 306.553 98.9345 308.441C101.751 310.33 104.959 311.275 108.558 311.275ZM157.943 321.745V257.074H170.031V321.745H157.943ZM163.811 242.785C161.229 242.785 159.234 242.087 157.825 240.691C156.417 239.296 155.713 237.325 155.713 234.778C155.713 232.397 156.417 230.467 157.825 228.989C159.312 227.511 161.307 226.771 163.811 226.771C166.393 226.771 168.388 227.47 169.796 228.866C171.204 230.261 171.908 232.232 171.908 234.778C171.908 237.159 171.165 239.09 169.679 240.568C168.27 242.046 166.314 242.785 163.811 242.785ZM188.61 348.845V257.074H200.815V271.856L198.937 270.748C199.407 268.284 200.738 265.943 202.927 263.726C205.118 261.426 207.779 259.578 210.908 258.183C214.116 256.705 217.402 255.966 220.765 255.966C226.322 255.966 231.251 257.403 235.552 260.277C239.856 263.151 243.259 267.093 245.762 272.103C248.267 277.113 249.518 282.86 249.518 289.348C249.518 295.754 248.267 301.503 245.762 306.594C243.338 311.604 239.973 315.586 235.67 318.542C231.368 321.416 226.516 322.854 221.118 322.854C217.52 322.854 214.038 322.115 210.673 320.636C207.31 319.075 204.453 317.105 202.106 314.724C199.759 312.343 198.312 309.879 197.764 307.333L200.815 305.608V348.845H188.61ZM219.122 311.151C222.722 311.151 225.929 310.206 228.746 308.318C231.562 306.43 233.792 303.843 235.435 300.558C237.078 297.272 237.9 293.536 237.9 289.348C237.9 285.16 237.078 281.464 235.435 278.262C233.871 274.976 231.68 272.389 228.863 270.501C226.047 268.613 222.801 267.668 219.122 267.668C215.446 267.668 212.198 268.613 209.382 270.501C206.565 272.308 204.336 274.853 202.693 278.138C201.05 281.424 200.228 285.16 200.228 289.348C200.228 293.536 201.05 297.272 202.693 300.558C204.336 303.843 206.565 306.43 209.382 308.318C212.198 310.206 215.446 311.151 219.122 311.151ZM302.227 321.745V249.807C302.227 246.111 303.01 242.826 304.574 239.952C306.14 237.078 308.291 234.819 311.029 233.177C313.768 231.535 316.937 230.713 320.534 230.713C323.039 230.713 325.386 231.206 327.576 232.192C329.767 233.177 331.527 234.492 332.857 236.133L328.749 245.865C327.733 244.879 326.598 244.1 325.346 243.524C324.172 242.868 323.039 242.539 321.943 242.539C320.3 242.539 318.891 242.826 317.718 243.401C316.623 243.894 315.802 244.716 315.253 245.865C314.707 246.933 314.432 248.246 314.432 249.807V321.745H308.329C307.313 321.745 306.296 321.745 305.278 321.745C304.262 321.745 303.244 321.745 302.227 321.745ZM292.369 269.885V258.183H328.984V269.885H292.369ZM367.015 322.977C360.989 322.977 355.591 321.539 350.819 318.665C346.125 315.709 342.408 311.727 339.671 306.717C336.931 301.626 335.563 295.836 335.563 289.348C335.563 282.86 336.931 277.113 339.671 272.103C342.408 267.012 346.125 263.028 350.819 260.154C355.591 257.198 360.989 255.719 367.015 255.719C372.96 255.719 378.281 257.198 382.975 260.154C387.747 263.028 391.502 267.012 394.241 272.103C396.979 277.113 398.349 282.86 398.349 289.348C398.349 295.836 396.979 301.626 394.241 306.717C391.502 311.727 387.747 315.709 382.975 318.665C378.281 321.539 372.96 322.977 367.015 322.977ZM367.015 311.398C370.691 311.398 373.977 310.453 376.873 308.565C379.766 306.594 382.036 303.966 383.679 300.681C385.322 297.314 386.104 293.536 386.026 289.348C386.104 285.077 385.322 281.301 383.679 278.015C382.036 274.649 379.766 272.02 376.873 270.132C373.977 268.243 370.691 267.298 367.015 267.298C363.336 267.298 360.012 268.284 357.039 270.255C354.144 272.143 351.876 274.772 350.233 278.138C348.59 281.424 347.807 285.16 347.886 289.348C347.807 293.536 348.59 297.314 350.233 300.681C351.876 303.966 354.144 306.594 357.039 308.565C360.012 310.453 363.336 311.398 367.015 311.398ZM439.215 322.977C433.192 322.977 427.793 321.539 423.02 318.665C418.326 315.709 414.611 311.727 411.871 306.717C409.133 301.626 407.764 295.836 407.764 289.348C407.764 282.86 409.133 277.113 411.871 272.103C414.611 267.012 418.326 263.028 423.02 260.154C427.793 257.198 433.192 255.719 439.215 255.719C445.162 255.719 450.482 257.198 455.176 260.154C459.949 263.028 463.704 267.012 466.442 272.103C469.182 277.113 470.55 282.86 470.55 289.348C470.55 295.836 469.182 301.626 466.442 306.717C463.704 311.727 459.949 315.709 455.176 318.665C450.482 321.539 445.162 322.977 439.215 322.977ZM439.215 311.398C442.894 311.398 446.18 310.453 449.073 308.565C451.969 306.594 454.237 303.966 455.88 300.681C457.523 297.314 458.306 293.536 458.227 289.348C458.306 285.077 457.523 281.301 455.88 278.015C454.237 274.649 451.969 272.02 449.073 270.132C446.18 268.243 442.894 267.298 439.215 267.298C435.539 267.298 432.214 268.284 429.24 270.255C426.346 272.143 424.076 274.772 422.433 278.138C420.79 281.424 420.009 285.16 420.086 289.348C420.009 293.536 420.79 297.314 422.433 300.681C424.076 303.966 426.346 306.594 429.24 308.565C432.214 310.453 435.539 311.398 439.215 311.398ZM509.423 322.977C503.79 322.977 498.743 321.539 494.284 318.665C489.903 315.709 486.421 311.727 483.839 306.717C481.257 301.626 479.966 295.836 479.966 289.348C479.966 282.86 481.219 277.113 483.722 272.103C486.303 267.012 489.786 263.028 494.166 260.154C498.547 257.198 503.516 255.719 509.071 255.719C512.122 255.719 515.056 256.252 517.872 257.321C520.768 258.306 523.35 259.702 525.618 261.509C527.886 263.233 529.647 265.164 530.899 267.298C532.228 269.352 532.894 271.446 532.894 273.581L529.373 273.827V230.59H541.461V321.745H529.373V306.347H531.72C531.72 308.318 531.095 310.289 529.843 312.26C528.59 314.148 526.909 315.915 524.796 317.557C522.763 319.199 520.375 320.513 517.638 321.499C514.977 322.484 512.239 322.977 509.423 322.977ZM511.066 312.014C514.742 312.014 517.99 311.028 520.806 309.057C523.623 307.086 525.814 304.417 527.378 301.05C529.021 297.601 529.843 293.7 529.843 289.348C529.843 284.996 529.021 281.135 527.378 277.769C525.814 274.32 523.623 271.61 520.806 269.639C517.99 267.668 514.742 266.683 511.066 266.683C507.389 266.683 504.142 267.668 501.325 269.639C498.508 271.61 496.279 274.32 494.636 277.769C493.072 281.135 492.289 284.996 492.289 289.348C492.289 293.7 493.072 297.601 494.636 301.05C496.279 304.417 498.508 307.086 501.325 309.057C504.142 311.028 507.389 312.014 511.066 312.014Z" fill="white"/>
<defs>
<linearGradient id="paint0_linear_91_9" x1="284.634" y1="1.50098e-08" x2="284.634" y2="183.854" gradientUnits="userSpaceOnUse">
<stop stop-color="#00D856"/>
<stop offset="1" stop-color="#027957"/>
</linearGradient>
</defs>
</svg>
