<svg width="400" height="400" viewBox="0 0 400 400" fill="none" xmlns="http://www.w3.org/2000/svg">
<rect width="400" height="400" fill="black"/>
<rect x="50" y="50" width="300" height="300" fill="white"/>
<path d="M371.495 2H28.505C12.7033 2 0 14.7033 0 30.1952V370.087C0 385.579 12.7033 398.282 28.505 398.282H371.495C387.297 398.282 400 385.579 400 370.087V30.1952C400 14.7033 387.297 2 371.495 2ZM251.278 300.683C216.266 335.385 160.496 336.934 123.935 305.331C123.935 305.331 123.625 305.021 123.315 304.711C121.146 302.542 121.146 298.824 123.315 296.655L247.25 173.65C249.419 171.481 253.137 171.481 255.306 173.65C287.839 209.901 286.29 265.672 251.278 300.683ZM276.995 103.936L153.06 226.942C150.891 229.111 147.173 229.111 145.004 226.942C112.471 190.691 113.71 134.92 149.032 99.9086C183.734 65.5167 239.504 63.9675 276.375 95.5709C276.375 95.5709 276.685 95.8807 276.995 96.1905C279.163 98.0496 279.163 101.768 276.995 103.936Z" fill="black"/>
</svg>
